<svg width="116" height="102" viewBox="0 0 116 102" fill="none" xmlns="http://www.w3.org/2000/svg">
<path d="M94.7484 33.0543C93.525 32.6445 92.3016 32.2575 91.0781 31.8932C91.282 31.0509 91.4633 30.2085 91.6445 29.3661C94.4313 15.7972 92.5961 4.89198 86.4109 1.29485C80.4523 -2.14291 70.7328 1.43145 60.9 10.0372C59.9258 10.8796 58.9742 11.7675 58.068 12.6554C57.4562 12.0635 56.8219 11.4715 56.1875 10.9024C45.8789 1.70465 35.5477 -2.16568 29.3625 1.45422C23.4266 4.91475 21.6594 15.1825 24.1516 28.0229C24.4008 29.2978 24.6727 30.55 24.9898 31.8249C23.5398 32.2347 22.1125 32.69 20.7758 33.1681C8.67734 37.38 0 44.0278 0 50.9034C0 58.0066 9.24375 65.1325 21.818 69.4582C22.8375 69.7997 23.857 70.1412 24.8992 70.4371C24.5594 71.8031 24.2648 73.1464 23.993 74.5351C21.6141 87.1706 23.4719 97.1879 29.4078 100.626C35.525 104.177 45.8109 100.535 55.825 91.7239C56.618 91.0182 57.4109 90.2897 58.2039 89.5156C59.2008 90.4946 60.243 91.428 61.2852 92.3386C70.982 100.717 80.5656 104.109 86.4789 100.671C92.5961 97.1196 94.5898 86.351 92.007 73.2374C91.8031 72.2357 91.5766 71.2112 91.3273 70.1639C92.0523 69.959 92.7547 69.7314 93.457 69.5037C106.53 65.1553 116 58.1204 116 50.9034C116 44.0051 107.073 37.3117 94.7484 33.0543ZM64.0945 13.7254C72.5227 6.34905 80.3844 3.45768 83.9641 5.52945C87.793 7.73781 89.2656 16.6623 86.8641 28.3872C86.7055 29.1612 86.5469 29.9125 86.343 30.6638C81.3133 29.5255 76.2156 28.7059 71.0953 28.2506C68.15 24.016 64.9328 19.9635 61.4438 16.1615C62.3273 15.3191 63.1883 14.5223 64.0945 13.7254ZM37.8812 62.7192C39.0367 64.6999 40.2148 66.6806 41.4609 68.6158C37.9266 68.2288 34.4148 67.6596 30.9484 66.9083C31.9453 63.6299 33.1914 60.2377 34.6414 56.7772C35.6836 58.7806 36.7484 60.7613 37.8812 62.7192ZM31.0164 35.331C34.2789 34.6024 37.7453 34.0105 41.3477 33.5552C40.1469 35.4448 38.9688 37.38 37.8586 39.3379C36.7484 41.2731 35.6609 43.2538 34.6414 45.2572C33.2141 41.865 32.0133 38.5411 31.0164 35.331ZM37.2242 51.0172C38.7195 47.8754 40.3508 44.8019 42.0727 41.7739C43.7945 38.746 45.6523 35.8091 47.6008 32.9177C50.9992 32.6673 54.4656 32.5307 58 32.5307C61.5344 32.5307 65.0234 32.6673 68.3992 32.9177C70.325 35.7863 72.1602 38.7232 73.9047 41.7284C75.6492 44.7336 77.2805 47.8071 78.8211 50.9261C77.3031 54.0679 75.6719 57.1642 73.9273 60.2149C72.2055 63.2429 70.3703 66.1798 68.4445 69.0939C65.0688 69.3443 61.557 69.4582 58 69.4582C54.443 69.4582 50.9992 69.3443 47.6687 69.1394C45.6977 66.2481 43.8398 63.2884 42.0953 60.2605C40.3508 57.2325 38.7422 54.159 37.2242 51.0172ZM78.1414 62.6737C79.2969 60.6702 80.3844 58.644 81.4492 56.595C82.8992 59.8962 84.168 63.2429 85.2781 66.6806C81.7664 67.4775 78.2094 68.0922 74.6297 68.502C75.8531 66.5896 77.0086 64.6316 78.1414 62.6737ZM81.4039 45.2572C80.3391 43.2538 79.2516 41.2503 78.1187 39.2924C77.0086 37.3572 75.8531 35.4448 74.6523 33.5552C78.3 34.0105 81.7891 34.6252 85.0516 35.3765C84.0094 38.746 82.7859 42.0244 81.4039 45.2572ZM58.0453 19.6448C60.4242 22.2402 62.6672 24.9722 64.7516 27.7952C60.2656 27.5903 55.757 27.5903 51.2711 27.7952C53.4914 24.8583 55.7797 22.1263 58.0453 19.6448ZM31.7641 5.68881C35.5703 3.45768 44.0211 6.64501 52.925 14.5678C53.4914 15.0687 54.0578 15.6151 54.6469 16.1615C51.1352 19.9635 47.8953 24.016 44.9273 28.2506C39.807 28.7059 34.732 29.5027 29.7023 30.6183C29.4078 29.4572 29.1586 28.2733 28.9094 27.0895C26.7797 16.0704 28.1844 7.76058 31.7641 5.68881ZM26.2133 65.7017C25.2617 65.4285 24.3328 65.1325 23.4039 64.8138C18.5781 63.2884 13.0953 60.8751 9.13047 57.7106C6.84219 56.1169 5.30156 53.6581 4.87109 50.9034C4.87109 46.7371 12.0305 41.4097 22.3617 37.7898C23.6531 37.3344 24.9672 36.9246 26.2812 36.5376C27.8219 41.478 29.6797 46.3273 31.832 51.0172C29.657 55.7754 27.7766 60.693 26.2133 65.7017ZM52.6305 88.013C48.8922 91.4507 44.5648 94.1827 39.8523 96.0496C37.3375 97.2562 34.4375 97.3701 31.8547 96.3456C28.2523 94.251 26.757 86.2144 28.7961 75.4003C29.0453 74.1253 29.3172 72.8504 29.6344 71.5982C34.7094 72.691 39.8297 73.4423 45.018 73.8294C48.0086 78.0867 51.2937 82.162 54.8055 85.9868C54.0805 86.6925 53.3555 87.3755 52.6305 88.013ZM58.1812 82.4807C55.8703 79.9764 53.5594 77.1988 51.3164 74.2164C53.4914 74.3075 55.7344 74.353 58 74.353C60.3336 74.353 62.6219 74.3075 64.8875 74.1936C62.8031 77.085 60.5602 79.8398 58.1812 82.4807ZM87.793 89.3107C87.5891 92.0882 86.2297 94.6836 84.0547 96.4366C80.4523 98.5312 72.7719 95.7992 64.4797 88.6504C63.5281 87.8309 62.5766 86.943 61.6023 86.0323C65.0687 82.1847 68.2633 78.1095 71.1633 73.8294C76.3516 73.3968 81.5172 72.6 86.6148 71.4389C86.8414 72.3723 87.0453 73.3057 87.2266 74.2164C88.3367 79.134 88.518 84.2565 87.793 89.3107ZM91.9164 64.8365C91.282 65.0414 90.6477 65.2463 89.9906 65.4285C88.4047 60.4653 86.4563 55.6161 84.2133 50.9034C86.3883 46.259 88.2234 41.478 89.7641 36.5831C90.9422 36.9246 92.075 37.2889 93.1625 37.6532C103.72 41.2958 111.129 46.7143 111.129 50.8578C111.129 55.3201 103.222 61.08 91.9164 64.8365ZM58 61.4215C63.732 61.4215 68.3766 56.7544 68.3766 50.9944C68.3766 45.2345 63.732 40.5673 58 40.5673C52.268 40.5673 47.6234 45.2345 47.6234 50.9944C47.6234 56.7544 52.268 61.4215 58 61.4215Z" fill="#888"/>
</svg>
