<svg width="191" height="382" viewBox="0 0 191 382" fill="none" xmlns="http://www.w3.org/2000/svg">
<path d="M179.03 381.529H12.57C5.95898 381.529 0.599976 376.17 0.599976 369.559V11.97C0.599976 5.359 5.95898 0 12.57 0H179.03C185.641 0 191 5.359 191 11.97V369.559C191 376.17 185.641 381.529 179.03 381.529Z" fill="white"/>
<path d="M22.074 16.8042V21.1815H21.544V17.3599H21.5183L20.4496 18.0695V17.5309L21.544 16.8042H22.074ZM24.7607 21.2413C24.4386 21.2413 24.1644 21.1537 23.9378 20.9784C23.7112 20.8018 23.5381 20.546 23.4184 20.2111C23.2987 19.8748 23.2389 19.4688 23.2389 18.9928C23.2389 18.5198 23.2987 18.1158 23.4184 17.781C23.5395 17.4447 23.7134 17.1882 23.9399 17.0115C24.1679 16.8334 24.4415 16.7443 24.7607 16.7443C25.0799 16.7443 25.3527 16.8334 25.5793 17.0115C25.8073 17.1882 25.9811 17.4447 26.1008 17.781C26.2219 18.1158 26.2825 18.5198 26.2825 18.9928C26.2825 19.4688 26.2226 19.8748 26.1029 20.2111C25.9832 20.546 25.8101 20.8018 25.5836 20.9784C25.357 21.1537 25.0827 21.2413 24.7607 21.2413ZM24.7607 20.7711C25.0799 20.7711 25.3278 20.6172 25.5045 20.3094C25.6812 20.0017 25.7695 19.5628 25.7695 18.9928C25.7695 18.6138 25.7289 18.2911 25.6477 18.0246C25.5679 17.7582 25.4525 17.5551 25.3014 17.4155C25.1518 17.2758 24.9716 17.206 24.7607 17.206C24.4443 17.206 24.1971 17.362 24.019 17.6741C23.8409 17.9847 23.7518 18.4243 23.7518 18.9928C23.7518 19.3719 23.7917 19.6939 23.8715 19.9589C23.9513 20.224 24.066 20.4256 24.2157 20.5638C24.3667 20.702 24.5484 20.7711 24.7607 20.7711ZM27.4708 20.6215C27.3654 20.6215 27.2749 20.5837 27.1994 20.5082C27.1239 20.4327 27.0861 20.3422 27.0861 20.2368C27.0861 20.1313 27.1239 20.0409 27.1994 19.9653C27.2749 19.8898 27.3654 19.8521 27.4708 19.8521C27.5763 19.8521 27.6668 19.8898 27.7423 19.9653C27.8178 20.0409 27.8556 20.1313 27.8556 20.2368C27.8556 20.3066 27.8378 20.3707 27.8021 20.4291C27.7679 20.4876 27.7216 20.5346 27.6632 20.5702C27.6062 20.6044 27.5421 20.6215 27.4708 20.6215ZM27.4708 18.4072C27.3654 18.4072 27.2749 18.3694 27.1994 18.2939C27.1239 18.2184 27.0861 18.1279 27.0861 18.0225C27.0861 17.917 27.1239 17.8265 27.1994 17.751C27.2749 17.6755 27.3654 17.6377 27.4708 17.6377C27.5763 17.6377 27.6668 17.6755 27.7423 17.751C27.8178 17.8265 27.8556 17.917 27.8556 18.0225C27.8556 18.0923 27.8378 18.1564 27.8021 18.2148C27.7679 18.2733 27.7216 18.3203 27.6632 18.3559C27.6062 18.3901 27.5421 18.4072 27.4708 18.4072ZM30.1799 21.2413C29.8579 21.2413 29.5836 21.1537 29.3571 20.9784C29.1305 20.8018 28.9574 20.546 28.8377 20.2111C28.718 19.8748 28.6581 19.4688 28.6581 18.9928C28.6581 18.5198 28.718 18.1158 28.8377 17.781C28.9588 17.4447 29.1326 17.1882 29.3592 17.0115C29.5872 16.8334 29.8608 16.7443 30.1799 16.7443C30.4991 16.7443 30.772 16.8334 30.9986 17.0115C31.2265 17.1882 31.4004 17.4447 31.5201 17.781C31.6412 18.1158 31.7017 18.5198 31.7017 18.9928C31.7017 19.4688 31.6419 19.8748 31.5222 20.2111C31.4025 20.546 31.2294 20.8018 31.0028 20.9784C30.7763 21.1537 30.502 21.2413 30.1799 21.2413ZM30.1799 20.7711C30.4991 20.7711 30.7471 20.6172 30.9237 20.3094C31.1004 20.0017 31.1888 19.5628 31.1888 18.9928C31.1888 18.6138 31.1482 18.2911 31.067 18.0246C30.9872 17.7582 30.8717 17.5551 30.7207 17.4155C30.5711 17.2758 30.3908 17.206 30.1799 17.206C29.8636 17.206 29.6164 17.362 29.4383 17.6741C29.2602 17.9847 29.1711 18.4243 29.1711 18.9928C29.1711 19.3719 29.211 19.6939 29.2908 19.9589C29.3706 20.224 29.4853 20.4256 29.6349 20.5638C29.786 20.702 29.9676 20.7711 30.1799 20.7711ZM33.9417 21.2413C33.6197 21.2413 33.3454 21.1537 33.1188 20.9784C32.8923 20.8018 32.7191 20.546 32.5994 20.2111C32.4797 19.8748 32.4199 19.4688 32.4199 18.9928C32.4199 18.5198 32.4797 18.1158 32.5994 17.781C32.7206 17.4447 32.8944 17.1882 33.121 17.0115C33.3489 16.8334 33.6225 16.7443 33.9417 16.7443C34.2609 16.7443 34.5337 16.8334 34.7603 17.0115C34.9883 17.1882 35.1621 17.4447 35.2818 17.781C35.4029 18.1158 35.4635 18.5198 35.4635 18.9928C35.4635 19.4688 35.4037 19.8748 35.284 20.2111C35.1643 20.546 34.9911 20.8018 34.7646 20.9784C34.538 21.1537 34.2637 21.2413 33.9417 21.2413ZM33.9417 20.7711C34.2609 20.7711 34.5088 20.6172 34.6855 20.3094C34.8622 20.0017 34.9505 19.5628 34.9505 18.9928C34.9505 18.6138 34.9099 18.2911 34.8287 18.0246C34.7489 17.7582 34.6335 17.5551 34.4824 17.4155C34.3328 17.2758 34.1526 17.206 33.9417 17.206C33.6254 17.206 33.3781 17.362 33.2 17.6741C33.0219 17.9847 32.9329 18.4243 32.9329 18.9928C32.9329 19.3719 32.9728 19.6939 33.0526 19.9589C33.1324 20.224 33.2471 20.4256 33.3967 20.5638C33.5477 20.702 33.7294 20.7711 33.9417 20.7711Z" fill="#34385B"/>
<path d="M47.281 17.958H46.877V17.209C46.877 17.11 46.797 17.03 46.698 17.03H38.121C38.022 17.03 37.942 17.11 37.942 17.209V21.021C37.942 21.12 38.022 21.2 38.121 21.2H46.698C46.797 21.2 46.877 21.12 46.877 21.021V20.272H47.281C47.38 20.272 47.46 20.192 47.46 20.093V18.137C47.46 18.038 47.38 17.958 47.281 17.958ZM46.519 20.842H38.301V17.389H46.519V18.138V20.094V20.842ZM47.102 19.914H46.877V18.316H47.102V19.914Z" fill="#34385B"/>
<path d="M44.23 20.38H39.12C38.96 20.38 38.83 20.25 38.83 20.09V18.141C38.83 17.981 38.96 17.851 39.12 17.851H44.23C44.39 17.851 44.52 17.981 44.52 18.141V20.09C44.52 20.25 44.39 20.38 44.23 20.38Z" fill="#34385B"/>
<path d="M21.6674 76.9852V63.8943H26.0907C27.1177 63.8943 27.9572 64.0797 28.6092 64.4504C29.2654 64.8169 29.7512 65.3133 30.0666 65.9397C30.3819 66.5662 30.5396 67.265 30.5396 68.0363C30.5396 68.8076 30.3819 69.5086 30.0666 70.1393C29.7555 70.77 29.2739 71.2728 28.622 71.6478C27.97 72.0186 27.1347 72.2039 26.1163 72.2039H22.9458V70.7977H26.0651C26.7683 70.7977 27.3329 70.6762 27.759 70.4334C28.1852 70.1905 28.4941 69.8623 28.6859 69.449C28.8819 69.0314 28.9799 68.5605 28.9799 68.0363C28.9799 67.5122 28.8819 67.0434 28.6859 66.6301C28.4941 66.2167 28.183 65.8929 27.7526 65.6585C27.3222 65.4199 26.7512 65.3005 26.0396 65.3005H23.2526V76.9852H21.6674ZM35.7779 77.2153C35.1557 77.2153 34.5911 77.0981 34.084 76.8638C33.5769 76.6251 33.1742 76.2821 32.8759 75.8346C32.5776 75.3829 32.4284 74.8375 32.4284 74.1983C32.4284 73.6358 32.5392 73.1798 32.7608 72.8304C32.9824 72.4767 33.2786 72.1997 33.6493 71.9994C34.02 71.7991 34.4291 71.65 34.8766 71.552C35.3283 71.4497 35.7821 71.3687 36.2381 71.3091C36.8347 71.2324 37.3183 71.1748 37.6891 71.1365C38.0641 71.0939 38.3368 71.0236 38.5073 70.9255C38.682 70.8275 38.7693 70.6571 38.7693 70.4142V70.363C38.7693 69.7324 38.5967 69.2423 38.2516 68.8929C37.9107 68.5434 37.3929 68.3687 36.6983 68.3687C35.9781 68.3687 35.4135 68.5264 35.0044 68.8417C34.5953 69.1571 34.3077 69.4937 34.1415 69.8517L32.7097 69.3403C32.9654 68.7437 33.3063 68.2792 33.7324 67.9468C34.1628 67.6102 34.6315 67.3758 35.1386 67.2437C35.65 67.1074 36.1529 67.0392 36.6472 67.0392C36.9625 67.0392 37.3247 67.0775 37.7338 67.1542C38.1472 67.2267 38.5456 67.378 38.9291 67.6081C39.3169 67.8382 39.6386 68.1855 39.8943 68.65C40.15 69.1145 40.2779 69.7366 40.2779 70.5164V76.9852H38.7693V75.6557H38.6926C38.5904 75.8687 38.4199 76.0967 38.1813 76.3396C37.9426 76.5825 37.6252 76.7892 37.2288 76.9596C36.8325 77.1301 36.3489 77.2153 35.7779 77.2153ZM36.008 75.8602C36.6046 75.8602 37.1074 75.743 37.5165 75.5086C37.9298 75.2743 38.2409 74.9717 38.4497 74.601C38.6628 74.2302 38.7693 73.8403 38.7693 73.4312V72.0505C38.7054 72.1272 38.5648 72.1976 38.3475 72.2615C38.1344 72.3211 37.8872 72.3744 37.606 72.4213C37.329 72.4639 37.0584 72.5022 36.7942 72.5363C36.5342 72.5662 36.3233 72.5917 36.1614 72.613C35.7693 72.6642 35.4029 72.7473 35.0619 72.8623C34.7253 72.9731 34.4526 73.1414 34.2438 73.3673C34.0392 73.5889 33.9369 73.8914 33.9369 74.275C33.9369 74.7991 34.1308 75.1954 34.5186 75.4639C34.9107 75.7281 35.4071 75.8602 36.008 75.8602ZM43.6513 80.667C43.3956 80.667 43.1676 80.6457 42.9673 80.6031C42.767 80.5647 42.6285 80.5264 42.5518 80.488L42.9353 79.1585C43.3018 79.2522 43.6257 79.2863 43.9069 79.2608C44.1882 79.2352 44.4375 79.1095 44.6548 78.8836C44.8764 78.662 45.0788 78.302 45.262 77.8034L45.5433 77.0363L41.9126 67.167H43.549L46.2592 74.9909H46.3615L49.0717 67.167H50.7081L46.5405 78.417C46.353 78.9241 46.1207 79.3439 45.8437 79.6763C45.5667 80.0129 45.245 80.2622 44.8785 80.4241C44.5163 80.5861 44.1072 80.667 43.6513 80.667ZM52.6992 76.9852V67.167H54.1566V68.7011H54.2844C54.489 68.177 54.8192 67.77 55.2752 67.4802C55.7312 67.1862 56.2787 67.0392 56.9179 67.0392C57.5657 67.0392 58.1047 67.1862 58.5351 67.4802C58.9698 67.77 59.3086 68.177 59.5515 68.7011H59.6537C59.9052 68.194 60.2823 67.7913 60.7851 67.493C61.288 67.1905 61.891 67.0392 62.5941 67.0392C63.4719 67.0392 64.19 67.314 64.7482 67.8637C65.3064 68.4092 65.5856 69.2593 65.5856 70.4142V76.9852H64.077V70.4142C64.077 69.6897 63.8789 69.172 63.4826 68.8609C63.0863 68.5498 62.6196 68.3943 62.0827 68.3943C61.3924 68.3943 60.8576 68.6031 60.4783 69.0207C60.0991 69.4341 59.9094 69.9582 59.9094 70.5932V76.9852H58.3753V70.2608C58.3753 69.7025 58.1942 69.253 57.832 68.912C57.4698 68.5669 57.0032 68.3943 56.4321 68.3943C56.0401 68.3943 55.6736 68.4987 55.3327 68.7075C54.9961 68.9163 54.7233 69.2061 54.5145 69.5768C54.31 69.9433 54.2077 70.3673 54.2077 70.8488V76.9852H52.6992ZM72.4602 77.1897C71.5142 77.1897 70.6981 76.9809 70.012 76.5633C69.3302 76.1414 68.804 75.5534 68.4332 74.7991C68.0667 74.0406 67.8835 73.1585 67.8835 72.1528C67.8835 71.1471 68.0667 70.2608 68.4332 69.4937C68.804 68.7224 69.3196 68.1216 69.9801 67.6912C70.6449 67.2565 71.4204 67.0392 72.3068 67.0392C72.8182 67.0392 73.3231 67.1244 73.8217 67.2949C74.3203 67.4653 74.7741 67.7423 75.1832 68.1258C75.5923 68.5051 75.9183 69.0079 76.1612 69.6343C76.4041 70.2608 76.5255 71.0321 76.5255 71.9483V72.5875H68.9574V71.2835H74.9915C74.9915 70.7295 74.8807 70.2352 74.6591 69.8005C74.4417 69.3659 74.1307 69.0228 73.7258 68.7714C73.3253 68.52 72.8522 68.3943 72.3068 68.3943C71.7059 68.3943 71.1861 68.5434 70.7471 68.8417C70.3125 69.1358 69.978 69.5193 69.7436 69.9923C69.5092 70.4653 69.392 70.9724 69.392 71.5136V72.3829C69.392 73.1244 69.5199 73.753 69.7755 74.2686C70.0355 74.7799 70.3956 75.1699 70.8558 75.4383C71.316 75.7025 71.8508 75.8346 72.4602 75.8346C72.8565 75.8346 73.2145 75.7792 73.5341 75.6684C73.8579 75.5534 74.137 75.3829 74.3714 75.1571C74.6058 74.927 74.7869 74.6414 74.9147 74.3005L76.3721 74.7096C76.2187 75.2039 75.9609 75.6386 75.5987 76.0136C75.2365 76.3843 74.789 76.6741 74.2564 76.8829C73.7237 77.0875 73.125 77.1897 72.4602 77.1897ZM80.3288 71.0789V76.9852H78.8203V67.167H80.2777V68.7011H80.4055C80.6356 68.2025 80.9851 67.802 81.4538 67.4994C81.9226 67.1926 82.5277 67.0392 83.2692 67.0392C83.9339 67.0392 84.5156 67.1755 85.0142 67.4483C85.5128 67.7167 85.9005 68.1258 86.1775 68.6755C86.4545 69.221 86.593 69.9113 86.593 70.7466V76.9852H85.0845V70.8488C85.0845 70.0775 84.8842 69.4767 84.4836 69.0463C84.0831 68.6116 83.5334 68.3943 82.8345 68.3943C82.353 68.3943 81.9226 68.4987 81.5433 68.7075C81.1683 68.9163 80.8721 69.221 80.6548 69.6216C80.4375 70.0221 80.3288 70.5079 80.3288 71.0789ZM93.6195 67.167V68.4454H88.5314V67.167H93.6195ZM90.0144 64.8147H91.5229V74.1727C91.5229 74.5988 91.5847 74.9184 91.7082 75.1315C91.8361 75.3403 91.998 75.4809 92.194 75.5534C92.3943 75.6216 92.6053 75.6557 92.8269 75.6557C92.9931 75.6557 93.1294 75.6471 93.2359 75.6301C93.3425 75.6088 93.4277 75.5917 93.4916 75.5789L93.7984 76.9341C93.6962 76.9724 93.5534 77.0108 93.3702 77.0491C93.1869 77.0917 92.9547 77.113 92.6734 77.113C92.2473 77.113 91.8297 77.0214 91.4206 76.8382C91.0158 76.6549 90.6791 76.3758 90.4107 76.0008C90.1465 75.6258 90.0144 75.1528 90.0144 74.5818V64.8147Z" fill="#34385B"/>
<path d="M136.682 352.116H54.918C53.712 352.116 52.735 351.138 52.735 349.933V327.962C52.735 326.756 53.712 325.779 54.918 325.779H136.682C137.888 325.779 138.865 326.756 138.865 327.962V349.933C138.865 351.138 137.888 352.116 136.682 352.116Z" fill="#F2B866"/>
<path d="M74.3244 342.795V335.522H75.1624V338.207H75.2335C75.295 338.112 75.3802 337.991 75.4891 337.845C75.6004 337.695 75.759 337.563 75.965 337.447C76.1733 337.328 76.4551 337.269 76.8102 337.269C77.2695 337.269 77.6743 337.384 78.0247 337.614C78.375 337.843 78.6485 338.169 78.845 338.59C79.0415 339.012 79.1397 339.509 79.1397 340.082C79.1397 340.659 79.0415 341.16 78.845 341.584C78.6485 342.005 78.3762 342.332 78.0282 342.564C77.6802 342.794 77.2789 342.908 76.8244 342.908C76.474 342.908 76.1935 342.85 75.9828 342.734C75.7721 342.616 75.6099 342.482 75.4963 342.333C75.3826 342.182 75.295 342.056 75.2335 341.957H75.134V342.795H74.3244ZM75.1482 340.068C75.1482 340.479 75.2086 340.843 75.3293 341.158C75.4501 341.47 75.6265 341.715 75.8585 341.893C76.0905 342.068 76.3746 342.156 76.7107 342.156C77.0611 342.156 77.3535 342.063 77.5879 341.879C77.8246 341.692 78.0022 341.441 78.1205 341.126C78.2413 340.809 78.3016 340.456 78.3016 340.068C78.3016 339.684 78.2425 339.338 78.1241 339.031C78.0081 338.72 77.8317 338.475 77.595 338.296C77.3606 338.113 77.0659 338.022 76.7107 338.022C76.3698 338.022 76.0834 338.108 75.8514 338.281C75.6194 338.452 75.4442 338.691 75.3258 338.999C75.2074 339.304 75.1482 339.66 75.1482 340.068ZM83.8592 340.565V337.34H84.6972V342.795H83.8592V341.872H83.8024C83.6745 342.148 83.4757 342.384 83.2058 342.578C82.9359 342.77 82.595 342.866 82.183 342.866C81.8421 342.866 81.5391 342.791 81.274 342.642C81.0088 342.491 80.8005 342.263 80.649 341.96C80.4974 341.655 80.4217 341.27 80.4217 340.806V337.34H81.2597V340.749C81.2597 341.147 81.371 341.464 81.5936 341.701C81.8185 341.938 82.1049 342.056 82.4529 342.056C82.6613 342.056 82.8731 342.003 83.0886 341.896C83.3064 341.79 83.4887 341.626 83.6355 341.406C83.7846 341.186 83.8592 340.906 83.8592 340.565ZM86.772 344.84C86.63 344.84 86.5033 344.828 86.392 344.805C86.2808 344.783 86.2038 344.762 86.1612 344.741L86.3743 344.002C86.5779 344.054 86.7578 344.073 86.914 344.059C87.0703 344.045 87.2088 343.975 87.3295 343.849C87.4526 343.726 87.5651 343.526 87.6669 343.249L87.8231 342.823L85.8061 337.34H86.7152L88.2209 341.687H88.2777L89.7834 337.34H90.6925L88.3771 343.59C88.2729 343.872 88.1439 344.105 87.99 344.29C87.8362 344.477 87.6574 344.615 87.4538 344.705C87.2526 344.795 87.0253 344.84 86.772 344.84ZM95.4492 339.514V342.795H94.6111V337.34H95.4208V338.193H95.4918C95.6197 337.916 95.8138 337.693 96.0742 337.525C96.3346 337.354 96.6708 337.269 97.0827 337.269C97.452 337.269 97.7752 337.345 98.0522 337.497C98.3292 337.646 98.5446 337.873 98.6985 338.178C98.8524 338.481 98.9293 338.865 98.9293 339.329V342.795H98.0912V339.386C98.0912 338.957 97.98 338.623 97.7574 338.384C97.5349 338.143 97.2295 338.022 96.8412 338.022C96.5737 338.022 96.3346 338.08 96.1239 338.196C95.9156 338.312 95.751 338.481 95.6303 338.704C95.5096 338.926 95.4492 339.196 95.4492 339.514ZM102.677 342.908C102.184 342.908 101.752 342.791 101.38 342.557C101.011 342.322 100.722 341.995 100.514 341.573C100.308 341.152 100.205 340.659 100.205 340.096C100.205 339.528 100.308 339.032 100.514 338.608C100.722 338.184 101.011 337.855 101.38 337.621C101.752 337.386 102.184 337.269 102.677 337.269C103.169 337.269 103.6 337.386 103.969 337.621C104.341 337.855 104.63 338.184 104.836 338.608C105.044 339.032 105.148 339.528 105.148 340.096C105.148 340.659 105.044 341.152 104.836 341.573C104.63 341.995 104.341 342.322 103.969 342.557C103.6 342.791 103.169 342.908 102.677 342.908ZM102.677 342.156C103.051 342.156 103.358 342.06 103.6 341.868C103.841 341.676 104.02 341.424 104.136 341.112C104.252 340.799 104.31 340.461 104.31 340.096C104.31 339.731 104.252 339.392 104.136 339.077C104.02 338.762 103.841 338.507 103.6 338.313C103.358 338.119 103.051 338.022 102.677 338.022C102.303 338.022 101.995 338.119 101.753 338.313C101.512 338.507 101.333 338.762 101.217 339.077C101.101 339.392 101.043 339.731 101.043 340.096C101.043 340.461 101.101 340.799 101.217 341.112C101.333 341.424 101.512 341.676 101.753 341.868C101.995 342.06 102.303 342.156 102.677 342.156ZM107.478 342.795L105.816 337.34H106.697L107.876 341.516H107.932L109.097 337.34H109.992L111.143 341.502H111.199L112.378 337.34H113.259L111.597 342.795H110.773L109.58 338.604H109.495L108.302 342.795H107.478Z" fill="white"/>
<path d="M171.52 305.989H20.085C19.947 305.989 19.835 305.877 19.835 305.739C19.835 305.601 19.947 305.489 20.085 305.489H171.52C171.658 305.489 171.77 305.601 171.77 305.739C171.77 305.877 171.658 305.989 171.52 305.989Z" fill="#CECECE"/>
<path d="M25.009 107.442C22.456 107.442 20.379 105.365 20.379 102.812C20.379 100.259 22.456 98.182 25.009 98.182C27.562 98.182 29.639 100.259 29.639 102.812C29.639 105.365 27.561 107.442 25.009 107.442ZM25.009 98.682C22.732 98.682 20.879 100.535 20.879 102.812C20.879 105.089 22.732 106.942 25.009 106.942C27.286 106.942 29.139 105.089 29.139 102.812C29.139 100.535 27.286 98.682 25.009 98.682Z" fill="#E5E5E8"/>
<path d="M33.8933 104.266V98.5698H34.5831V103.654H37.2311V104.266H33.8933ZM39.9458 104.355C39.5601 104.355 39.2217 104.264 38.9306 104.08C38.6413 103.896 38.4151 103.64 38.2519 103.309C38.0906 102.979 38.0099 102.594 38.0099 102.152C38.0099 101.707 38.0906 101.319 38.2519 100.987C38.4151 100.655 38.6413 100.397 38.9306 100.214C39.2217 100.03 39.5601 99.9383 39.9458 99.9383C40.3315 99.9383 40.669 100.03 40.9583 100.214C41.2494 100.397 41.4757 100.655 41.637 100.987C41.8002 101.319 41.8818 101.707 41.8818 102.152C41.8818 102.594 41.8002 102.979 41.637 103.309C41.4757 103.64 41.2494 103.896 40.9583 104.08C40.669 104.264 40.3315 104.355 39.9458 104.355ZM39.9458 103.766C40.2388 103.766 40.4799 103.691 40.669 103.54C40.8582 103.39 40.9982 103.193 41.089 102.948C41.1799 102.703 41.2253 102.438 41.2253 102.152C41.2253 101.867 41.1799 101.601 41.089 101.354C40.9982 101.107 40.8582 100.908 40.669 100.756C40.4799 100.604 40.2388 100.528 39.9458 100.528C39.6529 100.528 39.4118 100.604 39.2227 100.756C39.0335 100.908 38.8935 101.107 38.8026 101.354C38.7118 101.601 38.6664 101.867 38.6664 102.152C38.6664 102.438 38.7118 102.703 38.8026 102.948C38.8935 103.193 39.0335 103.39 39.2227 103.54C39.4118 103.691 39.6529 103.766 39.9458 103.766ZM42.8838 104.266V99.9939H43.518V100.639H43.5625C43.6404 100.428 43.7813 100.256 43.9853 100.125C44.1893 99.993 44.4192 99.9272 44.6751 99.9272C44.7233 99.9272 44.7836 99.9281 44.8559 99.9299C44.9282 99.9318 44.9829 99.9346 45.02 99.9383V100.606C44.9977 100.6 44.9467 100.592 44.867 100.581C44.7891 100.568 44.7066 100.561 44.6195 100.561C44.4118 100.561 44.2263 100.605 44.0632 100.692C43.9018 100.777 43.7739 100.896 43.6793 101.048C43.5866 101.198 43.5402 101.37 43.5402 101.563V104.266H42.8838ZM47.4594 104.355C47.0477 104.355 46.6926 104.264 46.3941 104.083C46.0974 103.899 45.8683 103.643 45.707 103.315C45.5476 102.985 45.4678 102.601 45.4678 102.163C45.4678 101.726 45.5476 101.34 45.707 101.006C45.8683 100.671 46.0927 100.409 46.3801 100.222C46.6694 100.033 47.0069 99.9383 47.3926 99.9383C47.6151 99.9383 47.8349 99.9754 48.0518 100.05C48.2688 100.124 48.4663 100.244 48.6443 100.411C48.8223 100.576 48.9642 100.795 49.0699 101.068C49.1756 101.34 49.2284 101.676 49.2284 102.074V102.353H45.9351V101.785H48.5608C48.5608 101.544 48.5126 101.329 48.4162 101.14C48.3216 100.951 48.1863 100.801 48.0101 100.692C47.8358 100.583 47.63 100.528 47.3926 100.528C47.1311 100.528 46.9049 100.593 46.7139 100.723C46.5248 100.851 46.3792 101.018 46.2772 101.223C46.1752 101.429 46.1242 101.65 46.1242 101.885V102.264C46.1242 102.586 46.1799 102.86 46.2911 103.084C46.4043 103.307 46.5609 103.476 46.7612 103.593C46.9615 103.708 47.1942 103.766 47.4594 103.766C47.6318 103.766 47.7876 103.742 47.9267 103.693C48.0676 103.643 48.189 103.569 48.291 103.471C48.393 103.371 48.4718 103.246 48.5275 103.098L49.1616 103.276C49.0949 103.491 48.9827 103.68 48.8251 103.844C48.6675 104.005 48.4728 104.131 48.241 104.222C48.0092 104.311 47.7486 104.355 47.4594 104.355ZM50.227 104.266V99.9939H50.8611V100.661H50.9168C51.0058 100.433 51.1495 100.256 51.3479 100.13C51.5463 100.002 51.7846 99.9383 52.0627 99.9383C52.3446 99.9383 52.5792 100.002 52.7665 100.13C52.9556 100.256 53.103 100.433 53.2087 100.661H53.2532C53.3626 100.441 53.5267 100.266 53.7456 100.136C53.9644 100.004 54.2268 99.9383 54.5327 99.9383C54.9147 99.9383 55.2272 100.058 55.4701 100.297C55.713 100.534 55.8345 100.904 55.8345 101.407V104.266H55.178V101.407C55.178 101.092 55.0918 100.866 54.9193 100.731C54.7469 100.596 54.5438 100.528 54.3102 100.528C54.0098 100.528 53.7771 100.619 53.612 100.801C53.447 100.98 53.3645 101.209 53.3645 101.485V104.266H52.6969V101.34C52.6969 101.097 52.6181 100.902 52.4605 100.753C52.3029 100.603 52.0998 100.528 51.8514 100.528C51.6808 100.528 51.5213 100.573 51.3729 100.664C51.2264 100.755 51.1078 100.881 51.0169 101.043C50.9279 101.202 50.8834 101.387 50.8834 101.596V104.266H50.227ZM59.2376 104.266V99.9939H59.8941V104.266H59.2376ZM59.5714 99.2819C59.4435 99.2819 59.3331 99.2383 59.2404 99.1511C59.1495 99.064 59.1041 98.9592 59.1041 98.8368C59.1041 98.7144 59.1495 98.6097 59.2404 98.5225C59.3331 98.4353 59.4435 98.3918 59.5714 98.3918C59.6994 98.3918 59.8088 98.4353 59.8996 98.5225C59.9923 98.6097 60.0387 98.7144 60.0387 98.8368C60.0387 98.9592 59.9923 99.064 59.8996 99.1511C59.8088 99.2383 59.6994 99.2819 59.5714 99.2819ZM61.0964 105.868V99.9939H61.7305V100.673H61.8084C61.8566 100.598 61.9234 100.504 62.0087 100.389C62.0958 100.272 62.2201 100.168 62.3814 100.077C62.5446 99.9846 62.7653 99.9383 63.0434 99.9383C63.4031 99.9383 63.7202 100.028 63.9947 100.208C64.2691 100.388 64.4833 100.643 64.6372 100.973C64.7911 101.303 64.8681 101.692 64.8681 102.141C64.8681 102.594 64.7911 102.986 64.6372 103.318C64.4833 103.648 64.27 103.904 63.9975 104.085C63.7249 104.265 63.4106 104.355 63.0545 104.355C62.7801 104.355 62.5604 104.31 62.3953 104.219C62.2303 104.126 62.1033 104.022 62.0143 103.905C61.9252 103.786 61.8566 103.688 61.8084 103.61H61.7528V105.868H61.0964ZM61.7417 102.13C61.7417 102.453 61.789 102.737 61.8835 102.984C61.9781 103.229 62.1162 103.421 62.298 103.56C62.4797 103.697 62.7022 103.766 62.9655 103.766C63.24 103.766 63.469 103.693 63.6526 103.549C63.838 103.402 63.9771 103.206 64.0698 102.959C64.1644 102.711 64.2116 102.434 64.2116 102.13C64.2116 101.83 64.1653 101.559 64.0726 101.318C63.9817 101.075 63.8436 100.883 63.6581 100.742C63.4745 100.599 63.2437 100.528 62.9655 100.528C62.6985 100.528 62.4741 100.596 62.2924 100.731C62.1107 100.865 61.9735 101.052 61.8807 101.293C61.788 101.532 61.7417 101.811 61.7417 102.13ZM68.8957 100.951L68.306 101.118C68.2689 101.019 68.2142 100.924 68.1419 100.831C68.0714 100.737 67.975 100.659 67.8526 100.597C67.7302 100.536 67.5735 100.506 67.3825 100.506C67.1211 100.506 66.9032 100.566 66.7289 100.687C66.5564 100.805 66.4702 100.956 66.4702 101.14C66.4702 101.303 66.5296 101.432 66.6482 101.527C66.7669 101.621 66.9523 101.7 67.2045 101.763L67.8387 101.919C68.2207 102.011 68.5053 102.153 68.6926 102.344C68.8799 102.533 68.9736 102.777 68.9736 103.076C68.9736 103.321 68.9031 103.539 68.7622 103.732C68.6231 103.925 68.4284 104.077 68.1781 104.188C67.9277 104.3 67.6366 104.355 67.3047 104.355C66.8689 104.355 66.5082 104.261 66.2227 104.072C65.9371 103.882 65.7563 103.606 65.6803 103.243L66.3033 103.087C66.3627 103.317 66.4749 103.489 66.6399 103.604C66.8068 103.719 67.0247 103.777 67.2935 103.777C67.5995 103.777 67.8424 103.712 68.0223 103.582C68.204 103.45 68.2949 103.293 68.2949 103.109C68.2949 102.961 68.243 102.837 68.1391 102.736C68.0353 102.634 67.8758 102.558 67.6607 102.508L66.9486 102.341C66.5574 102.249 66.2699 102.105 66.0864 101.91C65.9046 101.714 65.8138 101.468 65.8138 101.173C65.8138 100.932 65.8815 100.719 66.0168 100.534C66.1541 100.348 66.3404 100.203 66.5759 100.097C66.8133 99.9911 67.0821 99.9383 67.3825 99.9383C67.8053 99.9383 68.1373 100.031 68.3783 100.216C68.6212 100.402 68.7937 100.647 68.8957 100.951ZM72.6542 102.52V99.9939H73.3106V104.266H72.6542V103.543H72.6097C72.5095 103.76 72.3538 103.945 72.1424 104.097C71.931 104.247 71.664 104.322 71.3413 104.322C71.0743 104.322 70.8369 104.264 70.6292 104.147C70.4216 104.028 70.2584 103.85 70.1397 103.613C70.021 103.373 69.9617 103.072 69.9617 102.709V99.9939H70.6181V102.664C70.6181 102.976 70.7053 103.224 70.8796 103.41C71.0557 103.595 71.2801 103.688 71.5527 103.688C71.7159 103.688 71.8819 103.646 72.0506 103.563C72.2212 103.479 72.364 103.351 72.4789 103.179C72.5958 103.006 72.6542 102.787 72.6542 102.52ZM74.5129 104.266V99.9939H75.1471V100.661H75.2027C75.2917 100.433 75.4354 100.256 75.6339 100.13C75.8323 100.002 76.0706 99.9383 76.3487 99.9383C76.6306 99.9383 76.8651 100.002 77.0524 100.13C77.2416 100.256 77.389 100.433 77.4947 100.661H77.5392C77.6486 100.441 77.8127 100.266 78.0315 100.136C78.2503 100.004 78.5127 99.9383 78.8187 99.9383C79.2007 99.9383 79.5131 100.058 79.756 100.297C79.999 100.534 80.1204 100.904 80.1204 101.407V104.266H79.464V101.407C79.464 101.092 79.3778 100.866 79.2053 100.731C79.0329 100.596 78.8298 100.528 78.5962 100.528C78.2958 100.528 78.063 100.619 77.898 100.801C77.733 100.98 77.6504 101.209 77.6504 101.485V104.266H76.9829V101.34C76.9829 101.097 76.9041 100.902 76.7465 100.753C76.5888 100.603 76.3858 100.528 76.1373 100.528C75.9667 100.528 75.8072 100.573 75.6589 100.664C75.5124 100.755 75.3937 100.881 75.3029 101.043C75.2139 101.202 75.1694 101.387 75.1694 101.596V104.266H74.5129Z" fill="#7E8284"/>
<path d="M25.01 104.271C25.8163 104.271 26.47 103.617 26.47 102.811C26.47 102.005 25.8163 101.351 25.01 101.351C24.2036 101.351 23.55 102.005 23.55 102.811C23.55 103.617 24.2036 104.271 25.01 104.271Z" fill="#669FF2"/>
<path d="M75.86 118.556H35.85C34.11 118.556 32.7 119.966 32.7 121.706V145.266C32.7 146.996 34.11 148.406 35.85 148.406H75.86C77.6 148.406 79.01 146.996 79.01 145.266V121.706C79.01 119.966 77.6 118.556 75.86 118.556Z" fill="#34385B"/>
<path d="M41.972 125.68C41.972 127.094 40.825 128.241 39.411 128.241C37.997 128.241 36.85 127.094 36.85 125.68C36.85 124.266 37.997 123.119 39.411 123.119C40.825 123.119 41.972 124.265 41.972 125.68Z" fill="#ECEFF1"/>
<path d="M46.092 125.681C46.092 127.091 44.942 128.241 43.532 128.241C42.852 128.241 42.232 127.971 41.772 127.541C42.202 127.041 42.472 126.391 42.472 125.681C42.472 124.971 42.202 124.321 41.772 123.821C42.232 123.391 42.852 123.121 43.532 123.121C44.942 123.121 46.092 124.261 46.092 125.681Z" fill="#ECEFF1"/>
<path d="M72.842 129.472H66.142C65.579 129.472 65.122 129.93 65.122 130.492V135.122C65.122 135.694 65.57 136.142 66.142 136.142H72.842C73.413 136.142 73.862 135.694 73.862 135.122V130.492C73.861 129.93 73.404 129.472 72.842 129.472ZM73.361 130.492V132.562H71.521V132.122C71.521 131.819 71.274 131.572 70.971 131.572H69.741V129.972H72.841C73.128 129.972 73.361 130.205 73.361 130.492ZM68.012 133.552C67.991 133.552 67.962 133.524 67.962 133.502V132.122C67.962 132.089 67.991 132.072 68.012 132.072H70.972C70.992 132.072 71.022 132.09 71.022 132.122V133.502C71.022 133.524 70.994 133.552 70.972 133.552H68.012ZM66.142 129.972H69.243V131.572H68.013C67.71 131.572 67.463 131.819 67.463 132.122V132.562H65.623V130.492C65.622 130.205 65.855 129.972 66.142 129.972ZM65.622 135.122V133.062H67.462V133.502C67.462 133.8 67.714 134.052 68.012 134.052H69.242V135.642H66.141C65.85 135.642 65.622 135.414 65.622 135.122ZM72.842 135.642H69.742V134.052H70.972C71.27 134.052 71.522 133.8 71.522 133.502V133.062H73.362V135.122C73.361 135.414 73.133 135.642 72.842 135.642Z" fill="#ECEFF1"/>
<path d="M73.861 124.729H64.775C64.637 124.729 64.525 124.617 64.525 124.479C64.525 124.341 64.637 124.229 64.775 124.229H73.861C73.999 124.229 74.111 124.341 74.111 124.479C74.111 124.618 73.999 124.729 73.861 124.729Z" fill="#ECEFF1"/>
<path d="M73.861 126.784H69.491C69.353 126.784 69.241 126.672 69.241 126.534C69.241 126.396 69.353 126.284 69.491 126.284H73.861C73.999 126.284 74.111 126.396 74.111 126.534C74.111 126.672 73.999 126.784 73.861 126.784Z" fill="#ECEFF1"/>
<path d="M46.937 144.847H37.851C37.713 144.847 37.601 144.735 37.601 144.597C37.601 144.459 37.713 144.347 37.851 144.347H46.937C47.075 144.347 47.187 144.459 47.187 144.597C47.187 144.735 47.075 144.847 46.937 144.847Z" fill="#ECEFF1"/>
<path d="M42.22 142.792H37.85C37.712 142.792 37.6 142.68 37.6 142.542C37.6 142.404 37.712 142.292 37.85 142.292H42.22C42.358 142.292 42.47 142.404 42.47 142.542C42.47 142.68 42.358 142.792 42.22 142.792Z" fill="#ECEFF1"/>
<path d="M37.8642 139.566V139.341L38.7063 138.419C38.8052 138.311 38.8866 138.218 38.9505 138.138C39.0145 138.057 39.0618 137.982 39.0925 137.911C39.1241 137.84 39.1399 137.765 39.1399 137.687C39.1399 137.597 39.1183 137.52 39.0751 137.454C39.0327 137.388 38.9746 137.338 38.9007 137.302C38.8268 137.266 38.7437 137.248 38.6515 137.248C38.5535 137.248 38.468 137.269 38.3949 137.309C38.3226 137.349 38.2666 137.405 38.2267 137.478C38.1877 137.55 38.1682 137.635 38.1682 137.732H37.8742C37.8742 137.582 37.9086 137.451 37.9776 137.338C38.0465 137.225 38.1403 137.137 38.2591 137.074C38.3787 137.011 38.5128 136.979 38.6615 136.979C38.811 136.979 38.9435 137.011 39.0589 137.074C39.1743 137.137 39.2649 137.222 39.3305 137.329C39.3961 137.436 39.4289 137.556 39.4289 137.687C39.4289 137.781 39.4119 137.873 39.3778 137.962C39.3446 138.051 39.2865 138.15 39.2034 138.26C39.1212 138.369 39.007 138.502 38.8608 138.659L38.2878 139.272V139.291H39.4737V139.566H37.8642ZM40.8005 136.979C40.9051 136.98 41.0098 137 41.1144 137.039C41.2191 137.078 41.3146 137.143 41.401 137.233C41.4873 137.323 41.5567 137.446 41.609 137.601C41.6613 137.756 41.6875 137.951 41.6875 138.185C41.6875 138.412 41.6659 138.613 41.6227 138.789C41.5803 138.965 41.5189 139.112 41.4383 139.233C41.3586 139.353 41.2614 139.445 41.1468 139.507C41.033 139.569 40.9043 139.6 40.7606 139.6C40.6178 139.6 40.4903 139.572 40.3782 139.516C40.2669 139.458 40.1755 139.379 40.1041 139.278C40.0335 139.176 39.9882 139.057 39.9683 138.923H40.2723C40.2997 139.04 40.3541 139.137 40.4355 139.213C40.5177 139.289 40.6261 139.326 40.7606 139.326C40.9575 139.326 41.1128 139.24 41.2265 139.068C41.3412 138.897 41.3985 138.654 41.3985 138.34H41.3785C41.332 138.409 41.2768 138.47 41.2128 138.52C41.1489 138.571 41.0779 138.61 40.9998 138.637C40.9217 138.665 40.8387 138.679 40.7507 138.679C40.6045 138.679 40.4704 138.642 40.3483 138.57C40.227 138.497 40.1298 138.397 40.0568 138.27C39.9845 138.142 39.9484 137.996 39.9484 137.831C39.9484 137.675 39.9833 137.532 40.053 137.403C40.1236 137.272 40.2225 137.169 40.3495 137.091C40.4774 137.014 40.6277 136.977 40.8005 136.979ZM40.8005 137.253C40.6958 137.253 40.6016 137.28 40.5177 137.332C40.4346 137.383 40.3686 137.453 40.3196 137.541C40.2715 137.628 40.2474 137.725 40.2474 137.831C40.2474 137.938 40.2706 138.034 40.3171 138.122C40.3645 138.208 40.4288 138.277 40.5102 138.328C40.5924 138.379 40.6859 138.404 40.7905 138.404C40.8694 138.404 40.9429 138.389 41.011 138.358C41.0791 138.327 41.1385 138.284 41.1892 138.23C41.2407 138.175 41.2809 138.113 41.31 138.044C41.3391 137.975 41.3536 137.902 41.3536 137.826C41.3536 137.727 41.3295 137.633 41.2814 137.546C41.234 137.459 41.1684 137.388 41.0845 137.334C41.0015 137.28 40.9068 137.253 40.8005 137.253ZM42.1176 139.042V138.788L43.2388 137.014H43.4232V137.408H43.2986L42.4515 138.748V138.768H43.9613V139.042H42.1176ZM43.3185 139.566V138.965V138.847V137.014H43.6125V139.566H43.3185ZM46.2769 139.6C46.1125 139.6 45.9659 139.572 45.8372 139.516C45.7093 139.459 45.6075 139.381 45.5319 139.28C45.4572 139.179 45.4165 139.061 45.4099 138.928H45.7238C45.7304 139.01 45.7587 139.081 45.8085 139.141C45.8583 139.2 45.9235 139.245 46.0041 139.278C46.0847 139.31 46.1739 139.326 46.2719 139.326C46.3816 139.326 46.4787 139.307 46.5634 139.269C46.6482 139.231 46.7146 139.178 46.7628 139.11C46.8109 139.041 46.835 138.963 46.835 138.873C46.835 138.779 46.8118 138.696 46.7653 138.625C46.7187 138.553 46.6506 138.496 46.561 138.456C46.4713 138.415 46.3616 138.394 46.2321 138.394H46.0278V138.12H46.2321C46.3334 138.12 46.4223 138.102 46.4987 138.066C46.5759 138.029 46.6361 137.978 46.6793 137.911C46.7233 137.845 46.7453 137.767 46.7453 137.677C46.7453 137.591 46.7262 137.515 46.688 137.451C46.6498 137.387 46.5958 137.338 46.5261 137.302C46.4571 137.266 46.3757 137.248 46.2819 137.248C46.1939 137.248 46.1108 137.265 46.0327 137.297C45.9555 137.329 45.8924 137.375 45.8434 137.435C45.7944 137.495 45.7678 137.567 45.7637 137.652H45.4647C45.4697 137.518 45.5099 137.401 45.5855 137.301C45.6611 137.199 45.7599 137.12 45.882 137.064C46.0049 137.008 46.1399 136.979 46.2869 136.979C46.4447 136.979 46.5801 137.011 46.693 137.075C46.806 137.138 46.8927 137.222 46.9534 137.326C47.014 137.429 47.0443 137.542 47.0443 137.662C47.0443 137.806 47.0065 137.928 46.9309 138.029C46.8562 138.131 46.7545 138.201 46.6257 138.24V138.26C46.7869 138.287 46.9127 138.355 47.0032 138.466C47.0937 138.575 47.139 138.711 47.139 138.873C47.139 139.012 47.1012 139.136 47.0256 139.247C46.9509 139.356 46.8487 139.443 46.7192 139.506C46.5896 139.569 46.4422 139.6 46.2769 139.6ZM48.4657 139.6C48.2947 139.6 48.1435 139.57 48.0123 139.509C47.8819 139.448 47.7801 139.364 47.7071 139.257C47.634 139.149 47.5979 139.026 47.5987 138.888C47.5979 138.78 47.619 138.68 47.6622 138.589C47.7054 138.497 47.7644 138.42 47.8391 138.358C47.9147 138.296 47.999 138.257 48.092 138.24V138.225C47.9699 138.194 47.8728 138.125 47.8005 138.02C47.7282 137.913 47.6925 137.792 47.6934 137.657C47.6925 137.527 47.7253 137.412 47.7918 137.309C47.8582 137.207 47.9496 137.127 48.0658 137.068C48.1829 137.009 48.3162 136.979 48.4657 136.979C48.6136 136.979 48.7456 137.009 48.8619 137.068C48.9782 137.127 49.0695 137.207 49.136 137.309C49.2032 137.412 49.2373 137.527 49.2381 137.657C49.2373 137.792 49.2003 137.913 49.1272 138.02C49.055 138.125 48.9591 138.194 48.8395 138.225V138.24C48.9317 138.257 49.0147 138.296 49.0886 138.358C49.1625 138.42 49.2215 138.497 49.2655 138.589C49.3095 138.68 49.332 138.78 49.3328 138.888C49.332 139.026 49.2946 139.149 49.2207 139.257C49.1476 139.364 49.0459 139.448 48.9155 139.509C48.7859 139.57 48.636 139.6 48.4657 139.6ZM48.4657 139.326C48.5812 139.326 48.6808 139.308 48.7647 139.27C48.8486 139.233 48.9134 139.18 48.9591 139.112C49.0047 139.044 49.028 138.964 49.0288 138.873C49.028 138.777 49.0031 138.691 48.9541 138.617C48.9051 138.544 48.8382 138.485 48.7535 138.443C48.6696 138.401 48.5737 138.38 48.4657 138.38C48.3569 138.38 48.2598 138.401 48.1742 138.443C48.0895 138.485 48.0227 138.544 47.9737 138.617C47.9255 138.691 47.9018 138.777 47.9027 138.873C47.9018 138.964 47.9238 139.044 47.9687 139.112C48.0144 139.18 48.0795 139.233 48.1643 139.27C48.249 139.308 48.3495 139.326 48.4657 139.326ZM48.4657 138.115C48.5571 138.115 48.6381 138.097 48.7087 138.061C48.7801 138.024 48.8362 137.973 48.8768 137.907C48.9175 137.842 48.9383 137.765 48.9391 137.677C48.9383 137.591 48.918 137.515 48.8781 137.451C48.8382 137.387 48.783 137.337 48.7124 137.302C48.6418 137.266 48.5596 137.248 48.4657 137.248C48.3702 137.248 48.2868 137.266 48.2153 137.302C48.1439 137.337 48.0887 137.387 48.0497 137.451C48.0106 137.515 47.9915 137.591 47.9923 137.677C47.9915 137.765 48.011 137.842 48.0509 137.907C48.0916 137.973 48.1477 138.024 48.2191 138.061C48.2905 138.097 48.3727 138.115 48.4657 138.115ZM49.89 139.566L51.0311 137.308V137.288H49.7156V137.014H51.35V137.303L50.2139 139.566H49.89ZM53.6631 139.6C53.4987 139.6 53.3521 139.572 53.2234 139.516C53.0955 139.459 52.9937 139.381 52.9181 139.28C52.8434 139.179 52.8027 139.061 52.7961 138.928H53.11C53.1166 139.01 53.1449 139.081 53.1947 139.141C53.2445 139.2 53.3097 139.245 53.3903 139.278C53.4708 139.31 53.5601 139.326 53.6581 139.326C53.7678 139.326 53.8649 139.307 53.9496 139.269C54.0344 139.231 54.1008 139.178 54.149 139.11C54.1971 139.041 54.2212 138.963 54.2212 138.873C54.2212 138.779 54.198 138.696 54.1515 138.625C54.1049 138.553 54.0368 138.496 53.9471 138.456C53.8575 138.415 53.7478 138.394 53.6183 138.394H53.414V138.12H53.6183C53.7196 138.12 53.8085 138.102 53.8849 138.066C53.9621 138.029 54.0223 137.978 54.0655 137.911C54.1095 137.845 54.1315 137.767 54.1315 137.677C54.1315 137.591 54.1124 137.515 54.0742 137.451C54.036 137.387 53.982 137.338 53.9123 137.302C53.8433 137.266 53.7619 137.248 53.6681 137.248C53.5801 137.248 53.497 137.265 53.4189 137.297C53.3417 137.329 53.2786 137.375 53.2296 137.435C53.1806 137.495 53.154 137.567 53.1499 137.652H52.8509C52.8558 137.518 52.8961 137.401 52.9717 137.301C53.0473 137.199 53.1461 137.12 53.2682 137.064C53.3911 137.008 53.5261 136.979 53.6731 136.979C53.8309 136.979 53.9662 137.011 54.0792 137.075C54.1921 137.138 54.2789 137.222 54.3396 137.326C54.4002 137.429 54.4305 137.542 54.4305 137.662C54.4305 137.806 54.3927 137.928 54.3171 138.029C54.2424 138.131 54.1407 138.201 54.0119 138.24V138.26C54.173 138.287 54.2989 138.355 54.3894 138.466C54.4799 138.575 54.5252 138.711 54.5252 138.873C54.5252 139.012 54.4874 139.136 54.4118 139.247C54.3371 139.356 54.2349 139.443 54.1054 139.506C53.9758 139.569 53.8284 139.6 53.6631 139.6ZM55.8519 139.6C55.6808 139.6 55.5297 139.57 55.3985 139.509C55.2681 139.448 55.1663 139.364 55.0933 139.257C55.0202 139.149 54.984 139.026 54.9849 138.888C54.984 138.78 55.0052 138.68 55.0484 138.589C55.0916 138.497 55.1506 138.42 55.2253 138.358C55.3009 138.296 55.3852 138.257 55.4782 138.24V138.225C55.3561 138.194 55.2589 138.125 55.1867 138.02C55.1144 137.913 55.0787 137.792 55.0796 137.657C55.0787 137.527 55.1115 137.412 55.178 137.309C55.2444 137.207 55.3358 137.127 55.452 137.068C55.5691 137.009 55.7024 136.979 55.8519 136.979C55.9998 136.979 56.1318 137.009 56.2481 137.068C56.3644 137.127 56.4557 137.207 56.5222 137.309C56.5894 137.412 56.6235 137.527 56.6243 137.657C56.6235 137.792 56.5865 137.913 56.5134 138.02C56.4412 138.125 56.3453 138.194 56.2257 138.225V138.24C56.3179 138.257 56.4009 138.296 56.4748 138.358C56.5487 138.42 56.6077 138.497 56.6517 138.589C56.6957 138.68 56.7182 138.78 56.719 138.888C56.7182 139.026 56.6808 139.149 56.6069 139.257C56.5338 139.364 56.4321 139.448 56.3017 139.509C56.1721 139.57 56.0222 139.6 55.8519 139.6ZM55.8519 139.326C55.9674 139.326 56.067 139.308 56.1509 139.27C56.2348 139.233 56.2996 139.18 56.3453 139.112C56.3909 139.044 56.4142 138.964 56.415 138.873C56.4142 138.777 56.3893 138.691 56.3403 138.617C56.2913 138.544 56.2244 138.485 56.1397 138.443C56.0558 138.401 55.9599 138.38 55.8519 138.38C55.7431 138.38 55.646 138.401 55.5604 138.443C55.4757 138.485 55.4089 138.544 55.3599 138.617C55.3117 138.691 55.288 138.777 55.2888 138.873C55.288 138.964 55.31 139.044 55.3549 139.112C55.4005 139.18 55.4657 139.233 55.5505 139.27C55.6352 139.308 55.7357 139.326 55.8519 139.326ZM55.8519 138.115C55.9433 138.115 56.0243 138.097 56.0949 138.061C56.1663 138.024 56.2223 137.973 56.263 137.907C56.3037 137.842 56.3245 137.765 56.3253 137.677C56.3245 137.591 56.3042 137.515 56.2643 137.451C56.2244 137.387 56.1692 137.337 56.0986 137.302C56.028 137.266 55.9458 137.248 55.8519 137.248C55.7564 137.248 55.673 137.266 55.6015 137.302C55.5301 137.337 55.4749 137.387 55.4358 137.451C55.3968 137.515 55.3777 137.591 55.3785 137.677C55.3777 137.765 55.3972 137.842 55.4371 137.907C55.4778 137.973 55.5338 138.024 55.6053 138.061C55.6767 138.097 55.7589 138.115 55.8519 138.115ZM57.2762 139.566L58.4173 137.308V137.288H57.1018V137.014H58.7362V137.303L57.6001 139.566H57.2762ZM61.0493 139.6C60.8849 139.6 60.7383 139.572 60.6095 139.516C60.4816 139.459 60.3799 139.381 60.3043 139.28C60.2296 139.179 60.1889 139.061 60.1822 138.928H60.4962C60.5028 139.01 60.5311 139.081 60.5809 139.141C60.6307 139.2 60.6959 139.245 60.7765 139.278C60.857 139.31 60.9463 139.326 61.0443 139.326C61.1539 139.326 61.2511 139.307 61.3358 139.269C61.4205 139.231 61.487 139.178 61.5352 139.11C61.5833 139.041 61.6074 138.963 61.6074 138.873C61.6074 138.779 61.5842 138.696 61.5376 138.625C61.4911 138.553 61.423 138.496 61.3333 138.456C61.2436 138.415 61.134 138.394 61.0045 138.394H60.8001V138.12H61.0045C61.1058 138.12 61.1946 138.102 61.2711 138.066C61.3483 138.029 61.4085 137.978 61.4517 137.911C61.4957 137.845 61.5177 137.767 61.5177 137.677C61.5177 137.591 61.4986 137.515 61.4604 137.451C61.4222 137.387 61.3682 137.338 61.2985 137.302C61.2295 137.266 61.1481 137.248 61.0543 137.248C60.9663 137.248 60.8832 137.265 60.8051 137.297C60.7279 137.329 60.6648 137.375 60.6158 137.435C60.5668 137.495 60.5402 137.567 60.536 137.652H60.2371C60.242 137.518 60.2823 137.401 60.3579 137.301C60.4335 137.199 60.5323 137.12 60.6544 137.064C60.7773 137.008 60.9123 136.979 61.0593 136.979C61.2171 136.979 61.3524 137.011 61.4654 137.075C61.5783 137.138 61.6651 137.222 61.7258 137.326C61.7864 137.429 61.8167 137.542 61.8167 137.662C61.8167 137.806 61.7789 137.928 61.7033 138.029C61.6286 138.131 61.5269 138.201 61.3981 138.24V138.26C61.5592 138.287 61.6851 138.355 61.7756 138.466C61.8661 138.575 61.9114 138.711 61.9114 138.873C61.9114 139.012 61.8736 139.136 61.798 139.247C61.7233 139.356 61.6211 139.443 61.4916 139.506C61.362 139.569 61.2146 139.6 61.0493 139.6ZM63.2381 139.6C63.067 139.6 62.9159 139.57 62.7847 139.509C62.6543 139.448 62.5525 139.364 62.4795 139.257C62.4064 139.149 62.3702 139.026 62.3711 138.888C62.3702 138.78 62.3914 138.68 62.4346 138.589C62.4778 138.497 62.5368 138.42 62.6115 138.358C62.6871 138.296 62.7714 138.257 62.8644 138.24V138.225C62.7423 138.194 62.6451 138.125 62.5729 138.02C62.5006 137.913 62.4649 137.792 62.4657 137.657C62.4649 137.527 62.4977 137.412 62.5642 137.309C62.6306 137.207 62.722 137.127 62.8382 137.068C62.9553 137.009 63.0886 136.979 63.2381 136.979C63.386 136.979 63.518 137.009 63.6343 137.068C63.7506 137.127 63.8419 137.207 63.9084 137.309C63.9756 137.412 64.0097 137.527 64.0105 137.657C64.0097 137.792 63.9727 137.913 63.8996 138.02C63.8274 138.125 63.7315 138.194 63.6119 138.225V138.24C63.704 138.257 63.7871 138.296 63.861 138.358C63.9349 138.42 63.9939 138.497 64.0379 138.589C64.0819 138.68 64.1044 138.78 64.1052 138.888C64.1044 139.026 64.067 139.149 63.9931 139.257C63.92 139.364 63.8182 139.448 63.6879 139.509C63.5583 139.57 63.4084 139.6 63.2381 139.6ZM63.2381 139.326C63.3536 139.326 63.4532 139.308 63.5371 139.27C63.621 139.233 63.6858 139.18 63.7315 139.112C63.7771 139.044 63.8004 138.964 63.8012 138.873C63.8004 138.777 63.7755 138.691 63.7265 138.617C63.6775 138.544 63.6106 138.485 63.5259 138.443C63.442 138.401 63.3461 138.38 63.2381 138.38C63.1293 138.38 63.0322 138.401 62.9466 138.443C62.8619 138.485 62.795 138.544 62.746 138.617C62.6979 138.691 62.6742 138.777 62.675 138.873C62.6742 138.964 62.6962 139.044 62.7411 139.112C62.7867 139.18 62.8519 139.233 62.9367 139.27C63.0214 139.308 63.1219 139.326 63.2381 139.326ZM63.2381 138.115C63.3295 138.115 63.4105 138.097 63.4811 138.061C63.5525 138.024 63.6085 137.973 63.6492 137.907C63.6899 137.842 63.7107 137.765 63.7115 137.677C63.7107 137.591 63.6903 137.515 63.6505 137.451C63.6106 137.387 63.5554 137.337 63.4848 137.302C63.4142 137.266 63.332 137.248 63.2381 137.248C63.1426 137.248 63.0592 137.266 62.9877 137.302C62.9163 137.337 62.8611 137.387 62.822 137.451C62.783 137.515 62.7639 137.591 62.7647 137.677C62.7639 137.765 62.7834 137.842 62.8233 137.907C62.864 137.973 62.92 138.024 62.9915 138.061C63.0629 138.097 63.1451 138.115 63.2381 138.115Z" fill="#ECEFF1"/>
<path d="M129.2 118.556H89.18C87.45 118.556 86.04 119.966 86.04 121.706V145.266C86.04 146.996 87.45 148.406 89.18 148.406H129.2C130.93 148.406 132.34 146.996 132.34 145.266V121.706C132.34 119.966 130.93 118.556 129.2 118.556Z" fill="#ECEFF1"/>
<path d="M126.175 129.472H119.475C118.912 129.472 118.455 129.93 118.455 130.492V135.122C118.455 135.694 118.903 136.142 119.475 136.142H126.175C126.746 136.142 127.195 135.694 127.195 135.122V130.492C127.195 129.93 126.738 129.472 126.175 129.472ZM126.695 130.492V132.562H124.855V132.122C124.855 131.819 124.608 131.572 124.305 131.572H123.076V129.972H126.176C126.461 129.972 126.695 130.205 126.695 130.492ZM121.345 133.552C121.323 133.552 121.295 133.524 121.295 133.502V132.122C121.295 132.089 121.324 132.072 121.345 132.072H124.305C124.326 132.072 124.355 132.09 124.355 132.122V133.502C124.355 133.524 124.327 133.552 124.305 133.552H121.345ZM119.475 129.972H122.576V131.572H121.346C121.043 131.572 120.796 131.819 120.796 132.122V132.562H118.956V130.492C118.955 130.205 119.188 129.972 119.475 129.972ZM118.955 135.122V133.062H120.795V133.502C120.795 133.8 121.047 134.052 121.345 134.052H122.575V135.642H119.474C119.183 135.642 118.955 135.414 118.955 135.122ZM126.175 135.642H123.075V134.052H124.304C124.602 134.052 124.854 133.8 124.854 133.502V133.062H126.694V135.122C126.695 135.414 126.466 135.642 126.175 135.642Z" fill="#34385B"/>
<path d="M127.195 124.729H118.109C117.971 124.729 117.859 124.617 117.859 124.479C117.859 124.341 117.971 124.229 118.109 124.229H127.195C127.333 124.229 127.445 124.341 127.445 124.479C127.445 124.618 127.332 124.729 127.195 124.729Z" fill="#34385B"/>
<path d="M127.195 126.784H122.825C122.687 126.784 122.575 126.672 122.575 126.534C122.575 126.396 122.687 126.284 122.825 126.284H127.195C127.333 126.284 127.445 126.396 127.445 126.534C127.445 126.672 127.332 126.784 127.195 126.784Z" fill="#34385B"/>
<path d="M100.27 144.847H91.184C91.046 144.847 90.934 144.735 90.934 144.597C90.934 144.459 91.046 144.347 91.184 144.347H100.27C100.408 144.347 100.52 144.459 100.52 144.597C100.52 144.735 100.408 144.847 100.27 144.847Z" fill="#34385B"/>
<path d="M95.553 142.792H91.183C91.045 142.792 90.933 142.68 90.933 142.542C90.933 142.404 91.045 142.292 91.183 142.292H95.553C95.691 142.292 95.803 142.404 95.803 142.542C95.803 142.68 95.691 142.792 95.553 142.792Z" fill="#34385B"/>
<path d="M92.0592 139.6C91.8947 139.6 91.7481 139.572 91.6194 139.516C91.4915 139.459 91.3898 139.381 91.3142 139.28C91.2394 139.179 91.1987 139.061 91.1921 138.928H91.506C91.5127 139.01 91.5409 139.081 91.5908 139.141C91.6406 139.2 91.7058 139.245 91.7863 139.278C91.8669 139.31 91.9562 139.326 92.0542 139.326C92.1638 139.326 92.261 139.307 92.3457 139.269C92.4304 139.231 92.4968 139.178 92.545 139.11C92.5932 139.041 92.6173 138.963 92.6173 138.873C92.6173 138.779 92.594 138.696 92.5475 138.625C92.501 138.553 92.4329 138.496 92.3432 138.456C92.2535 138.415 92.1439 138.394 92.0143 138.394H91.81V138.12H92.0143C92.1156 138.12 92.2045 138.102 92.2809 138.066C92.3581 138.029 92.4184 137.978 92.4615 137.911C92.5056 137.845 92.5276 137.767 92.5276 137.677C92.5276 137.591 92.5085 137.515 92.4703 137.451C92.4321 137.387 92.3781 137.338 92.3083 137.302C92.2394 137.266 92.158 137.248 92.0641 137.248C91.9761 137.248 91.8931 137.265 91.815 137.297C91.7378 137.328 91.6746 137.375 91.6256 137.435C91.5766 137.495 91.5501 137.567 91.5459 137.652H91.2469C91.2519 137.518 91.2922 137.401 91.3678 137.301C91.4433 137.199 91.5422 137.12 91.6643 137.064C91.7872 137.008 91.9221 136.979 92.0691 136.979C92.2269 136.979 92.3623 137.011 92.4753 137.075C92.5882 137.138 92.675 137.222 92.7356 137.326C92.7962 137.429 92.8266 137.542 92.8266 137.662C92.8266 137.806 92.7888 137.928 92.7132 138.029C92.6384 138.131 92.5367 138.201 92.408 138.24V138.26C92.5691 138.286 92.6949 138.355 92.7854 138.465C92.876 138.575 92.9212 138.711 92.9212 138.873C92.9212 139.012 92.8835 139.136 92.8079 139.247C92.7331 139.356 92.631 139.443 92.5014 139.506C92.3719 139.569 92.2244 139.6 92.0592 139.6ZM94.248 139.6C94.0769 139.6 93.9257 139.57 93.7945 139.509C93.6641 139.448 93.5624 139.364 93.4893 139.257C93.4162 139.149 93.3801 139.026 93.3809 138.888C93.3801 138.78 93.4013 138.68 93.4445 138.589C93.4877 138.497 93.5466 138.42 93.6214 138.358C93.6969 138.296 93.7812 138.257 93.8743 138.24V138.225C93.7522 138.193 93.655 138.125 93.5827 138.019C93.5105 137.913 93.4748 137.792 93.4756 137.657C93.4748 137.527 93.5076 137.412 93.574 137.309C93.6405 137.207 93.7318 137.127 93.8481 137.068C93.9652 137.009 94.0985 136.979 94.248 136.979C94.3958 136.979 94.5279 137.009 94.6441 137.068C94.7604 137.127 94.8518 137.207 94.9182 137.309C94.9855 137.412 95.0195 137.527 95.0204 137.657C95.0195 137.792 94.9826 137.913 94.9095 138.019C94.8372 138.125 94.7413 138.193 94.6217 138.225V138.24C94.7139 138.257 94.797 138.296 94.8709 138.358C94.9448 138.42 95.0038 138.497 95.0478 138.589C95.0918 138.68 95.1142 138.78 95.115 138.888C95.1142 139.026 95.0768 139.149 95.0029 139.257C94.9298 139.364 94.8281 139.448 94.6977 139.509C94.5682 139.57 94.4182 139.6 94.248 139.6ZM94.248 139.326C94.3634 139.326 94.4631 139.308 94.547 139.27C94.6309 139.233 94.6956 139.18 94.7413 139.112C94.787 139.044 94.8102 138.964 94.8111 138.873C94.8102 138.777 94.7853 138.691 94.7363 138.617C94.6873 138.544 94.6205 138.485 94.5358 138.443C94.4519 138.401 94.356 138.38 94.248 138.38C94.1392 138.38 94.042 138.401 93.9565 138.443C93.8718 138.485 93.8049 138.544 93.7559 138.617C93.7077 138.691 93.6841 138.777 93.6849 138.873C93.6841 138.964 93.7061 139.044 93.7509 139.112C93.7966 139.18 93.8618 139.233 93.9465 139.27C94.0312 139.308 94.1317 139.326 94.248 139.326ZM94.248 138.115C94.3393 138.115 94.4203 138.097 94.4909 138.061C94.5623 138.024 94.6184 137.973 94.6591 137.907C94.6998 137.842 94.7206 137.765 94.7214 137.677C94.7206 137.591 94.7002 137.515 94.6603 137.451C94.6205 137.387 94.5652 137.337 94.4947 137.302C94.4241 137.266 94.3418 137.248 94.248 137.248C94.1525 137.248 94.069 137.266 93.9976 137.302C93.9262 137.337 93.8709 137.387 93.8319 137.451C93.7929 137.515 93.7738 137.591 93.7746 137.677C93.7738 137.765 93.7933 137.842 93.8331 137.907C93.8738 137.973 93.9299 138.024 94.0013 138.061C94.0727 138.097 94.155 138.115 94.248 138.115ZM95.5327 139.042V138.788L96.6539 137.014H96.8383V137.408H96.7137L95.8666 138.748V138.768H97.3764V139.042H95.5327ZM96.7336 139.565V138.965V138.847V137.014H97.0276V139.565H96.7336ZM99.6472 139.6C99.4761 139.6 99.3249 139.57 99.1937 139.509C99.0633 139.448 98.9616 139.364 98.8885 139.257C98.8154 139.149 98.7793 139.026 98.7801 138.888C98.7793 138.78 98.8005 138.68 98.8436 138.589C98.8868 138.497 98.9458 138.42 99.0205 138.358C99.0961 138.296 99.1804 138.257 99.2734 138.24V138.225C99.1514 138.193 99.0542 138.125 98.9819 138.019C98.9097 137.913 98.874 137.792 98.8748 137.657C98.874 137.527 98.9068 137.412 98.9732 137.309C99.0397 137.207 99.131 137.127 99.2473 137.068C99.3644 137.009 99.4977 136.979 99.6472 136.979C99.795 136.979 99.9271 137.009 100.043 137.068C100.16 137.127 100.251 137.207 100.317 137.309C100.385 137.412 100.419 137.527 100.42 137.657C100.419 137.792 100.382 137.913 100.309 138.019C100.236 138.125 100.141 138.193 100.021 138.225V138.24C100.113 138.257 100.196 138.296 100.27 138.358C100.344 138.42 100.403 138.497 100.447 138.589C100.491 138.68 100.513 138.78 100.514 138.888C100.513 139.026 100.476 139.149 100.402 139.257C100.329 139.364 100.227 139.448 100.097 139.509C99.9673 139.57 99.8174 139.6 99.6472 139.6ZM99.6472 139.326C99.7626 139.326 99.8623 139.308 99.9462 139.27C100.03 139.233 100.095 139.18 100.141 139.112C100.186 139.044 100.209 138.964 100.21 138.873C100.209 138.777 100.185 138.691 100.136 138.617C100.087 138.544 100.02 138.485 99.9349 138.443C99.8511 138.401 99.7551 138.38 99.6472 138.38C99.5384 138.38 99.4412 138.401 99.3557 138.443C99.2709 138.485 99.2041 138.544 99.1551 138.617C99.1069 138.691 99.0833 138.777 99.0841 138.873C99.0833 138.964 99.1053 139.044 99.1501 139.112C99.1958 139.18 99.261 139.233 99.3457 139.27C99.4304 139.308 99.5309 139.326 99.6472 139.326ZM99.6472 138.115C99.7385 138.115 99.8195 138.097 99.8901 138.061C99.9615 138.024 100.018 137.973 100.058 137.907C100.099 137.842 100.12 137.765 100.121 137.677C100.12 137.591 100.099 137.515 100.06 137.451C100.02 137.387 99.9644 137.337 99.8938 137.302C99.8232 137.266 99.741 137.248 99.6472 137.248C99.5517 137.248 99.4682 137.266 99.3968 137.302C99.3253 137.337 99.2701 137.387 99.2311 137.451C99.1921 137.515 99.1729 137.591 99.1738 137.677C99.1729 137.765 99.1925 137.842 99.2323 137.907C99.273 137.973 99.3291 138.024 99.4005 138.061C99.4719 138.097 99.5542 138.115 99.6472 138.115ZM100.932 139.042V138.788L102.053 137.014H102.237V137.408H102.113L101.266 138.748V138.768H102.776V139.042H100.932ZM102.133 139.565V138.965V138.847V137.014H102.427V139.565H102.133ZM103.322 139.565L104.463 137.308V137.288H103.148V137.014H104.782V137.303L103.646 139.565H103.322ZM107.05 139.6C106.879 139.6 106.728 139.57 106.597 139.509C106.467 139.448 106.365 139.364 106.292 139.257C106.219 139.149 106.183 139.026 106.183 138.888C106.183 138.78 106.204 138.68 106.247 138.589C106.29 138.497 106.349 138.42 106.424 138.358C106.499 138.296 106.584 138.257 106.677 138.24V138.225C106.555 138.193 106.458 138.125 106.385 138.019C106.313 137.913 106.277 137.792 106.278 137.657C106.277 137.527 106.31 137.412 106.377 137.309C106.443 137.207 106.534 137.127 106.651 137.068C106.768 137.009 106.901 136.979 107.05 136.979C107.198 136.979 107.33 137.009 107.447 137.068C107.563 137.127 107.654 137.207 107.721 137.309C107.788 137.412 107.822 137.527 107.823 137.657C107.822 137.792 107.785 137.913 107.712 138.019C107.64 138.125 107.544 138.193 107.424 138.225V138.24C107.516 138.257 107.599 138.296 107.673 138.358C107.747 138.42 107.806 138.497 107.85 138.589C107.894 138.68 107.917 138.78 107.918 138.888C107.917 139.026 107.879 139.149 107.805 139.257C107.732 139.364 107.631 139.448 107.5 139.509C107.371 139.57 107.221 139.6 107.05 139.6ZM107.05 139.326C107.166 139.326 107.266 139.308 107.349 139.27C107.433 139.233 107.498 139.18 107.544 139.112C107.59 139.044 107.613 138.964 107.614 138.873C107.613 138.777 107.588 138.691 107.539 138.617C107.49 138.544 107.423 138.485 107.338 138.443C107.254 138.401 107.158 138.38 107.05 138.38C106.942 138.38 106.845 138.401 106.759 138.443C106.674 138.485 106.607 138.544 106.558 138.617C106.51 138.691 106.487 138.777 106.487 138.873C106.487 138.964 106.509 139.044 106.553 139.112C106.599 139.18 106.664 139.233 106.749 139.27C106.834 139.308 106.934 139.326 107.05 139.326ZM107.05 138.115C107.142 138.115 107.223 138.097 107.293 138.061C107.365 138.024 107.421 137.973 107.462 137.907C107.502 137.842 107.523 137.765 107.524 137.677C107.523 137.591 107.503 137.515 107.463 137.451C107.423 137.387 107.368 137.337 107.297 137.302C107.227 137.266 107.144 137.248 107.05 137.248C106.955 137.248 106.872 137.266 106.8 137.302C106.729 137.337 106.673 137.387 106.634 137.451C106.595 137.515 106.576 137.591 106.577 137.677C106.576 137.765 106.596 137.842 106.636 137.907C106.676 137.973 106.732 138.024 106.804 138.061C106.875 138.097 106.957 138.115 107.05 138.115ZM108.335 139.042V138.788L109.456 137.014H109.641V137.408H109.516L108.669 138.748V138.768H110.179V139.042H108.335ZM109.536 139.565V138.965V138.847V137.014H109.83V139.565H109.536ZM110.726 139.565L111.867 137.308V137.288H110.551V137.014H112.186V137.303L111.049 139.565H110.726ZM114.454 139.6C114.283 139.6 114.132 139.57 114 139.509C113.87 139.448 113.768 139.364 113.695 139.257C113.622 139.149 113.586 139.026 113.587 138.888C113.586 138.78 113.607 138.68 113.65 138.589C113.693 138.497 113.752 138.42 113.827 138.358C113.903 138.296 113.987 138.257 114.08 138.24V138.225C113.958 138.193 113.861 138.125 113.789 138.019C113.716 137.913 113.681 137.792 113.681 137.657C113.681 137.527 113.713 137.412 113.78 137.309C113.846 137.207 113.938 137.127 114.054 137.068C114.171 137.009 114.304 136.979 114.454 136.979C114.602 136.979 114.734 137.009 114.85 137.068C114.966 137.127 115.058 137.207 115.124 137.309C115.191 137.412 115.225 137.527 115.226 137.657C115.225 137.792 115.188 137.913 115.115 138.019C115.043 138.125 114.947 138.193 114.828 138.225V138.24C114.92 138.257 115.003 138.296 115.077 138.358C115.151 138.42 115.21 138.497 115.254 138.589C115.298 138.68 115.32 138.78 115.321 138.888C115.32 139.026 115.283 139.149 115.209 139.257C115.136 139.364 115.034 139.448 114.904 139.509C114.774 139.57 114.624 139.6 114.454 139.6ZM114.454 139.326C114.569 139.326 114.669 139.308 114.753 139.27C114.837 139.233 114.901 139.18 114.947 139.112C114.993 139.044 115.016 138.964 115.017 138.873C115.016 138.777 114.991 138.691 114.942 138.617C114.893 138.544 114.826 138.485 114.742 138.443C114.658 138.401 114.562 138.38 114.454 138.38C114.345 138.38 114.248 138.401 114.162 138.443C114.078 138.485 114.011 138.544 113.962 138.617C113.914 138.691 113.89 138.777 113.891 138.873C113.89 138.964 113.912 139.044 113.957 139.112C114.002 139.18 114.068 139.233 114.152 139.27C114.237 139.308 114.338 139.326 114.454 139.326ZM114.454 138.115C114.545 138.115 114.626 138.097 114.697 138.061C114.768 138.024 114.824 137.973 114.865 137.907C114.906 137.842 114.926 137.765 114.927 137.677C114.926 137.591 114.906 137.515 114.866 137.451C114.826 137.387 114.771 137.337 114.7 137.302C114.63 137.266 114.548 137.248 114.454 137.248C114.358 137.248 114.275 137.266 114.203 137.302C114.132 137.337 114.077 137.387 114.038 137.451C113.999 137.515 113.98 137.591 113.98 137.677C113.98 137.765 113.999 137.842 114.039 137.907C114.08 137.973 114.136 138.024 114.207 138.061C114.279 138.097 114.361 138.115 114.454 138.115ZM115.878 139.565L117.019 137.308V137.288H115.704V137.014H117.338V137.303L116.202 139.565H115.878Z" fill="#34385B"/>
<path d="M93.692 125.046V124.456C93.692 124.166 93.692 123.766 93.512 123.396C93.252 122.886 92.682 122.636 92.202 122.806C91.942 122.896 91.792 123.186 91.882 123.446C91.972 123.706 92.242 123.846 92.512 123.756C92.532 123.756 92.592 123.796 92.622 123.856C92.692 124.006 92.692 124.246 92.692 124.456L92.682 126.786H91.422C91.152 126.786 90.932 126.566 90.932 126.296V122.986C90.932 122.716 91.152 122.496 91.422 122.496H95.342C94.752 123.316 94.202 124.176 93.692 125.046Z" fill="#34385B"/>
<path d="M98.622 122.986V126.296C98.622 126.566 98.402 126.786 98.132 126.786H93.862C94.642 125.326 95.532 123.906 96.502 122.566C96.522 122.546 96.532 122.516 96.542 122.496H98.132C98.402 122.496 98.622 122.716 98.622 122.986Z" fill="#34385B"/>
<path d="M25.009 177.087C22.456 177.087 20.379 175.01 20.379 172.457C20.379 169.904 22.456 167.827 25.009 167.827C27.562 167.827 29.639 169.904 29.639 172.457C29.639 175.01 27.561 177.087 25.009 177.087ZM25.009 168.327C22.732 168.327 20.879 170.179 20.879 172.457C20.879 174.734 22.732 176.587 25.009 176.587C27.286 176.587 29.139 174.734 29.139 172.457C29.139 170.179 27.286 168.327 25.009 168.327Z" fill="#E5E5E8"/>
<path d="M33.8933 173.911V168.215H34.5831V173.299H37.2311V173.911H33.8933ZM39.9458 174C39.5601 174 39.2217 173.908 38.9306 173.725C38.6413 173.541 38.4151 173.284 38.2519 172.954C38.0906 172.624 38.0099 172.238 38.0099 171.797C38.0099 171.352 38.0906 170.964 38.2519 170.632C38.4151 170.3 38.6413 170.042 38.9306 169.858C39.2217 169.675 39.5601 169.583 39.9458 169.583C40.3315 169.583 40.669 169.675 40.9583 169.858C41.2494 170.042 41.4757 170.3 41.637 170.632C41.8002 170.964 41.8818 171.352 41.8818 171.797C41.8818 172.238 41.8002 172.624 41.637 172.954C41.4757 173.284 41.2494 173.541 40.9583 173.725C40.669 173.908 40.3315 174 39.9458 174ZM39.9458 173.41C40.2388 173.41 40.4799 173.335 40.669 173.185C40.8582 173.035 40.9982 172.837 41.089 172.593C41.1799 172.348 41.2253 172.083 41.2253 171.797C41.2253 171.512 41.1799 171.245 41.089 170.999C40.9982 170.752 40.8582 170.553 40.669 170.401C40.4799 170.249 40.2388 170.173 39.9458 170.173C39.6529 170.173 39.4118 170.249 39.2227 170.401C39.0335 170.553 38.8935 170.752 38.8026 170.999C38.7118 171.245 38.6664 171.512 38.6664 171.797C38.6664 172.083 38.7118 172.348 38.8026 172.593C38.8935 172.837 39.0335 173.035 39.2227 173.185C39.4118 173.335 39.6529 173.41 39.9458 173.41ZM42.8838 173.911V169.639H43.518V170.284H43.5625C43.6404 170.073 43.7813 169.901 43.9853 169.769C44.1893 169.638 44.4192 169.572 44.6751 169.572C44.7233 169.572 44.7836 169.573 44.8559 169.575C44.9282 169.577 44.9829 169.579 45.02 169.583V170.251C44.9977 170.245 44.9467 170.237 44.867 170.226C44.7891 170.213 44.7066 170.206 44.6195 170.206C44.4118 170.206 44.2263 170.25 44.0632 170.337C43.9018 170.422 43.7739 170.541 43.6793 170.693C43.5866 170.843 43.5402 171.015 43.5402 171.207V173.911H42.8838ZM47.4594 174C47.0477 174 46.6926 173.909 46.3941 173.727C46.0974 173.544 45.8683 173.288 45.707 172.96C45.5476 172.63 45.4678 172.246 45.4678 171.808C45.4678 171.371 45.5476 170.985 45.707 170.651C45.8683 170.315 46.0927 170.054 46.3801 169.867C46.6694 169.678 47.0069 169.583 47.3926 169.583C47.6151 169.583 47.8349 169.62 48.0518 169.694C48.2688 169.768 48.4663 169.889 48.6443 170.056C48.8223 170.221 48.9642 170.44 49.0699 170.712C49.1756 170.985 49.2284 171.321 49.2284 171.719V171.997H45.9351V171.43H48.5608C48.5608 171.189 48.5126 170.974 48.4162 170.785C48.3216 170.595 48.1863 170.446 48.0101 170.337C47.8358 170.227 47.63 170.173 47.3926 170.173C47.1311 170.173 46.9049 170.238 46.7139 170.367C46.5248 170.495 46.3792 170.662 46.2772 170.868C46.1752 171.074 46.1242 171.295 46.1242 171.53V171.908C46.1242 172.231 46.1799 172.504 46.2911 172.729C46.4043 172.951 46.5609 173.121 46.7612 173.238C46.9615 173.353 47.1942 173.41 47.4594 173.41C47.6318 173.41 47.7876 173.386 47.9267 173.338C48.0676 173.288 48.189 173.214 48.291 173.116C48.393 173.015 48.4718 172.891 48.5275 172.743L49.1616 172.921C49.0949 173.136 48.9827 173.325 48.8251 173.488C48.6675 173.65 48.4728 173.776 48.241 173.867C48.0092 173.956 47.7486 174 47.4594 174ZM50.227 173.911V169.639H50.8611V170.306H50.9168C51.0058 170.078 51.1495 169.901 51.3479 169.775C51.5463 169.647 51.7846 169.583 52.0627 169.583C52.3446 169.583 52.5792 169.647 52.7665 169.775C52.9556 169.901 53.103 170.078 53.2087 170.306H53.2532C53.3626 170.086 53.5267 169.91 53.7456 169.78C53.9644 169.649 54.2268 169.583 54.5327 169.583C54.9147 169.583 55.2272 169.703 55.4701 169.942C55.713 170.179 55.8345 170.549 55.8345 171.052V173.911H55.178V171.052C55.178 170.736 55.0918 170.511 54.9193 170.376C54.7469 170.24 54.5438 170.173 54.3102 170.173C54.0098 170.173 53.7771 170.264 53.612 170.445C53.447 170.625 53.3645 170.853 53.3645 171.13V173.911H52.6969V170.985C52.6969 170.742 52.6181 170.546 52.4605 170.398C52.3029 170.248 52.0998 170.173 51.8514 170.173C51.6808 170.173 51.5213 170.218 51.3729 170.309C51.2264 170.4 51.1078 170.526 51.0169 170.687C50.9279 170.847 50.8834 171.031 50.8834 171.241V173.911H50.227ZM59.2376 173.911V169.639H59.8941V173.911H59.2376ZM59.5714 168.927C59.4435 168.927 59.3331 168.883 59.2404 168.796C59.1495 168.709 59.1041 168.604 59.1041 168.482C59.1041 168.359 59.1495 168.254 59.2404 168.167C59.3331 168.08 59.4435 168.036 59.5714 168.036C59.6994 168.036 59.8088 168.08 59.8996 168.167C59.9923 168.254 60.0387 168.359 60.0387 168.482C60.0387 168.604 59.9923 168.709 59.8996 168.796C59.8088 168.883 59.6994 168.927 59.5714 168.927ZM61.0964 175.513V169.639H61.7305V170.317H61.8084C61.8566 170.243 61.9234 170.149 62.0087 170.034C62.0958 169.917 62.2201 169.813 62.3814 169.722C62.5446 169.629 62.7653 169.583 63.0434 169.583C63.4031 169.583 63.7202 169.673 63.9947 169.853C64.2691 170.033 64.4833 170.288 64.6372 170.618C64.7911 170.948 64.8681 171.337 64.8681 171.786C64.8681 172.238 64.7911 172.631 64.6372 172.963C64.4833 173.293 64.27 173.548 63.9975 173.73C63.7249 173.91 63.4106 174 63.0545 174C62.7801 174 62.5604 173.955 62.3953 173.864C62.2303 173.771 62.1033 173.666 62.0143 173.549C61.9252 173.431 61.8566 173.332 61.8084 173.255H61.7528V175.513H61.0964ZM61.7417 171.775C61.7417 172.097 61.789 172.382 61.8835 172.629C61.9781 172.874 62.1162 173.065 62.298 173.205C62.4797 173.342 62.7022 173.41 62.9655 173.41C63.24 173.41 63.469 173.338 63.6526 173.193C63.838 173.047 63.9771 172.85 64.0698 172.604C64.1644 172.355 64.2116 172.079 64.2116 171.775C64.2116 171.474 64.1653 171.204 64.0726 170.963C63.9817 170.72 63.8436 170.528 63.6581 170.387C63.4745 170.244 63.2437 170.173 62.9655 170.173C62.6985 170.173 62.4741 170.24 62.2924 170.376C62.1107 170.509 61.9735 170.697 61.8807 170.938C61.788 171.177 61.7417 171.456 61.7417 171.775ZM68.8957 170.595L68.306 170.762C68.2689 170.664 68.2142 170.569 68.1419 170.476C68.0714 170.381 67.975 170.303 67.8526 170.242C67.7302 170.181 67.5735 170.15 67.3825 170.15C67.1211 170.15 66.9032 170.211 66.7289 170.331C66.5564 170.45 66.4702 170.601 66.4702 170.785C66.4702 170.948 66.5296 171.077 66.6482 171.171C66.7669 171.266 66.9523 171.345 67.2045 171.408L67.8387 171.563C68.2207 171.656 68.5053 171.798 68.6926 171.989C68.8799 172.178 68.9736 172.422 68.9736 172.721C68.9736 172.965 68.9031 173.184 68.7622 173.377C68.6231 173.57 68.4284 173.722 68.1781 173.833C67.9277 173.944 67.6366 174 67.3047 174C66.8689 174 66.5082 173.905 66.2227 173.716C65.9371 173.527 65.7563 173.251 65.6803 172.887L66.3033 172.732C66.3627 172.962 66.4749 173.134 66.6399 173.249C66.8068 173.364 67.0247 173.421 67.2935 173.421C67.5995 173.421 67.8424 173.357 68.0223 173.227C68.204 173.095 68.2949 172.937 68.2949 172.754C68.2949 172.606 68.243 172.481 68.1391 172.381C68.0353 172.279 67.8758 172.203 67.6607 172.153L66.9486 171.986C66.5574 171.893 66.2699 171.75 66.0864 171.555C65.9046 171.359 65.8138 171.113 65.8138 170.818C65.8138 170.577 65.8815 170.364 66.0168 170.178C66.1541 169.993 66.3404 169.847 66.5759 169.742C66.8133 169.636 67.0821 169.583 67.3825 169.583C67.8053 169.583 68.1373 169.676 68.3783 169.861C68.6212 170.047 68.7937 170.291 68.8957 170.595ZM72.6542 172.164V169.639H73.3106V173.911H72.6542V173.188H72.6097C72.5095 173.405 72.3538 173.589 72.1424 173.741C71.931 173.892 71.664 173.967 71.3413 173.967C71.0743 173.967 70.8369 173.908 70.6292 173.791C70.4216 173.673 70.2584 173.495 70.1397 173.257C70.021 173.018 69.9617 172.717 69.9617 172.353V169.639H70.6181V172.309C70.6181 172.62 70.7053 172.869 70.8796 173.054C71.0557 173.24 71.2801 173.332 71.5527 173.332C71.7159 173.332 71.8819 173.291 72.0506 173.207C72.2212 173.124 72.364 172.996 72.4789 172.823C72.5958 172.651 72.6542 172.431 72.6542 172.164ZM74.5129 173.911V169.639H75.1471V170.306H75.2027C75.2917 170.078 75.4354 169.901 75.6339 169.775C75.8323 169.647 76.0706 169.583 76.3487 169.583C76.6306 169.583 76.8651 169.647 77.0524 169.775C77.2416 169.901 77.389 170.078 77.4947 170.306H77.5392C77.6486 170.086 77.8127 169.91 78.0315 169.78C78.2503 169.649 78.5127 169.583 78.8187 169.583C79.2007 169.583 79.5131 169.703 79.756 169.942C79.999 170.179 80.1204 170.549 80.1204 171.052V173.911H79.464V171.052C79.464 170.736 79.3778 170.511 79.2053 170.376C79.0329 170.24 78.8298 170.173 78.5962 170.173C78.2958 170.173 78.063 170.264 77.898 170.445C77.733 170.625 77.6504 170.853 77.6504 171.13V173.911H76.9829V170.985C76.9829 170.742 76.9041 170.546 76.7465 170.398C76.5888 170.248 76.3858 170.173 76.1373 170.173C75.9667 170.173 75.8072 170.218 75.6589 170.309C75.5124 170.4 75.3937 170.526 75.3029 170.687C75.2139 170.847 75.1694 171.031 75.1694 171.241V173.911H74.5129Z" fill="#7E8284"/>
<path d="M75.308 188.201H37.503C36.015 188.201 34.803 189.413 34.803 190.901V215.204C34.803 216.695 36.015 217.904 37.503 217.904H75.308C76.799 217.904 78.008 216.694 78.008 215.204V190.901C78.008 189.413 76.798 188.201 75.308 188.201Z" fill="#ECEFF1"/>
<path d="M65.192 198.2C64.166 196.993 62.665 196.302 61.077 196.302H53.705C53.043 196.302 52.482 196.78 52.374 197.431L49.674 213.633C49.609 214.025 49.72 214.424 49.977 214.727C50.231 215.032 50.609 215.205 51.006 215.205H53.706C54.367 215.205 54.929 214.727 55.037 214.076L56.198 207.104H61.078C63.73 207.104 65.971 205.211 66.406 202.597C66.664 201.017 66.221 199.413 65.192 198.2Z" fill="#2196F3"/>
<path d="M62.492 195.5C61.466 194.293 59.964 193.602 58.377 193.602H51.005C50.343 193.602 49.782 194.08 49.674 194.731L46.974 210.933C46.909 211.325 47.02 211.724 47.276 212.027C47.53 212.332 47.908 212.505 48.305 212.505H51.005C51.667 212.505 52.228 212.027 52.336 211.376L53.497 204.404H58.377C61.029 204.404 63.27 202.511 63.705 199.897C63.964 198.316 63.521 196.712 62.492 195.5Z" fill="#1976D2"/>
<path d="M25.009 246.585C22.456 246.585 20.379 244.508 20.379 241.955C20.379 239.402 22.456 237.325 25.009 237.325C27.562 237.325 29.639 239.402 29.639 241.955C29.639 244.508 27.561 246.585 25.009 246.585ZM25.009 237.825C22.732 237.825 20.879 239.678 20.879 241.955C20.879 244.232 22.732 246.085 25.009 246.085C27.286 246.085 29.139 244.232 29.139 241.955C29.139 239.678 27.286 237.825 25.009 237.825Z" fill="#E5E5E8"/>
<path d="M33.3883 243.258L33.4088 237.561L34.0986 237.564L34.0803 242.648L36.7283 242.658L36.7261 243.27L33.3883 243.258ZM39.4405 243.368C39.0548 243.367 38.7167 243.274 38.4263 243.089C38.1377 242.905 37.9124 242.647 37.7504 242.316C37.5902 241.986 37.5109 241.6 37.5125 241.158C37.5141 240.713 37.5962 240.325 37.7587 239.994C37.9231 239.663 38.1503 239.406 38.4402 239.223C38.732 239.041 39.0707 238.95 39.4564 238.951C39.8421 238.953 40.1793 239.046 40.4679 239.23C40.7584 239.415 40.9837 239.674 41.1438 240.006C41.3058 240.339 41.386 240.727 41.3844 241.172C41.3828 241.614 41.2998 241.999 41.1354 242.329C40.9729 242.658 40.7458 242.914 40.454 243.097C40.164 243.279 39.8262 243.37 39.4405 243.368ZM39.4426 242.779C39.7356 242.78 39.977 242.706 40.1666 242.556C40.3563 242.406 40.497 242.21 40.5888 241.965C40.6805 241.721 40.7269 241.456 40.7279 241.17C40.729 240.884 40.6845 240.618 40.5945 240.371C40.5046 240.124 40.3653 239.924 40.1767 239.772C39.9881 239.619 39.7473 239.542 39.4543 239.541C39.1613 239.54 38.92 239.615 38.7303 239.767C38.5406 239.918 38.3999 240.117 38.3081 240.363C38.2164 240.609 38.17 240.875 38.169 241.161C38.1679 241.446 38.2124 241.712 38.3024 241.957C38.3924 242.202 38.5317 242.4 38.7203 242.551C38.9089 242.702 39.1497 242.778 39.4426 242.779ZM42.3788 243.29L42.3942 239.018L43.0284 239.02L43.026 239.665L43.0705 239.665C43.1492 239.454 43.2907 239.283 43.4952 239.152C43.6996 239.021 43.9298 238.956 44.1857 238.957C44.2339 238.957 44.2942 238.959 44.3665 238.961C44.4388 238.963 44.4935 238.966 44.5306 238.97L44.5282 239.637C44.5059 239.632 44.455 239.623 44.3753 239.612C44.2974 239.598 44.215 239.592 44.1278 239.591C43.9201 239.591 43.7345 239.633 43.571 239.72C43.4094 239.805 43.281 239.923 43.1859 240.075C43.0926 240.224 43.0457 240.396 43.045 240.589L43.0352 243.292L42.3788 243.29ZM46.954 243.395C46.5424 243.394 46.1876 243.302 45.8897 243.119C45.5937 242.934 45.3656 242.678 45.2054 242.349C45.0472 242.018 44.9688 241.634 44.9704 241.196C44.972 240.759 45.0531 240.373 45.2138 240.04C45.3763 239.705 45.6016 239.445 45.8897 239.258C46.1797 239.07 46.5175 238.977 46.9032 238.978C47.1257 238.979 47.3453 239.017 47.562 239.092C47.7787 239.167 47.9758 239.288 48.1532 239.456C48.3306 239.621 48.4717 239.841 48.5764 240.114C48.6811 240.386 48.7327 240.722 48.7313 241.121L48.7303 241.399L45.437 241.387L45.439 240.82L48.0648 240.829C48.0656 240.588 48.0182 240.373 47.9225 240.183C47.8286 239.994 47.6937 239.844 47.518 239.734C47.3441 239.624 47.1384 239.569 46.9011 239.568C46.6396 239.567 46.4131 239.631 46.2217 239.76C46.0321 239.887 45.8859 240.054 45.7832 240.259C45.6805 240.465 45.6287 240.685 45.6278 240.921L45.6265 241.299C45.6253 241.622 45.6799 241.895 45.7904 242.12C45.9027 242.343 46.0588 242.513 46.2586 242.631C46.4585 242.746 46.691 242.805 46.9562 242.806C47.1286 242.806 47.2845 242.783 47.4237 242.735C47.5648 242.686 47.6866 242.612 47.7889 242.514C47.8913 242.414 47.9705 242.29 48.0267 242.142L48.6602 242.322C48.5927 242.537 48.4798 242.726 48.3216 242.889C48.1634 243.049 47.9682 243.175 47.7361 243.265C47.504 243.353 47.2433 243.396 46.954 243.395ZM49.722 243.316L49.7373 239.044L50.3715 239.046L50.3691 239.714L50.4247 239.714C50.5146 239.486 50.6589 239.31 50.8578 239.184C51.0567 239.057 51.2952 238.994 51.5733 238.995C51.8552 238.996 52.0895 239.061 52.2764 239.189C52.465 239.316 52.6118 239.494 52.7167 239.722L52.7612 239.722C52.8714 239.502 53.0361 239.328 53.2554 239.199C53.4747 239.068 53.7373 239.003 54.0433 239.004C54.4253 239.005 54.7373 239.126 54.9794 239.366C55.2214 239.604 55.3416 239.975 55.3398 240.477L55.3295 243.337L54.673 243.334L54.6833 240.475C54.6845 240.16 54.599 239.934 54.4271 239.798C54.2551 239.662 54.0523 239.594 53.8187 239.593C53.5183 239.592 53.2852 239.682 53.1195 239.863C52.9538 240.042 52.8705 240.27 52.8695 240.546L52.8595 243.328L52.1919 243.325L52.2025 240.399C52.2033 240.156 52.1252 239.96 51.9682 239.811C51.8111 239.661 51.6083 239.585 51.3598 239.584C51.1892 239.583 51.0296 239.628 50.8809 239.718C50.7341 239.809 50.615 239.934 50.5235 240.095C50.4339 240.255 50.3888 240.439 50.388 240.649L50.3784 243.319L49.722 243.316ZM58.7326 243.349L58.748 239.076L59.4044 239.079L59.3891 243.351L58.7326 243.349ZM59.0843 238.366C58.9564 238.365 58.8462 238.321 58.7538 238.234C58.6633 238.146 58.6182 238.041 58.6187 237.919C58.6191 237.796 58.6649 237.692 58.7561 237.605C58.8491 237.518 58.9596 237.475 59.0876 237.476C59.2155 237.476 59.3248 237.52 59.4153 237.607C59.5077 237.695 59.5537 237.8 59.5532 237.922C59.5528 238.045 59.5061 238.149 59.413 238.236C59.3219 238.323 59.2123 238.366 59.0843 238.366ZM60.5856 244.958L60.6067 239.083L61.2409 239.085L61.2385 239.764L61.3164 239.764C61.3648 239.69 61.4319 239.596 61.5177 239.481C61.6052 239.365 61.7298 239.261 61.8915 239.171C62.055 239.079 62.2758 239.034 62.554 239.035C62.9137 239.036 63.2305 239.127 63.5043 239.308C63.7781 239.489 63.9913 239.744 64.1441 240.075C64.2968 240.406 64.3723 240.795 64.3707 241.244C64.3691 241.696 64.2907 242.088 64.1356 242.42C63.9805 242.749 63.7664 243.004 63.4931 243.185C63.2199 243.364 62.9052 243.453 62.5492 243.452C62.2748 243.451 62.0552 243.404 61.8905 243.313C61.7258 243.22 61.5991 243.114 61.5106 242.997C61.422 242.878 61.3537 242.78 61.3058 242.702L61.2502 242.701L61.242 244.96L60.5856 244.958ZM61.2444 241.222C61.2432 241.544 61.2895 241.829 61.3831 242.076C61.4768 242.321 61.6143 242.514 61.7955 242.653C61.9767 242.791 62.199 242.861 62.4623 242.862C62.7368 242.863 62.966 242.791 63.1501 242.647C63.3361 242.501 63.4759 242.305 63.5695 242.059C63.665 241.811 63.7132 241.535 63.7143 241.231C63.7154 240.93 63.67 240.659 63.5782 240.418C63.4882 240.175 63.3507 239.982 63.1658 239.841C62.9827 239.697 62.7521 239.625 62.474 239.624C62.207 239.623 61.9823 239.69 61.8001 239.825C61.6179 239.957 61.48 240.144 61.3864 240.385C61.2929 240.624 61.2455 240.903 61.2444 241.222ZM68.4026 240.068L67.8123 240.233C67.7756 240.134 67.7213 240.039 67.6493 239.946C67.5791 239.851 67.483 239.773 67.3608 239.711C67.2387 239.649 67.0821 239.618 66.8911 239.618C66.6296 239.617 66.4115 239.676 66.2368 239.796C66.0639 239.914 65.9771 240.065 65.9765 240.248C65.9759 240.412 66.0348 240.541 66.1531 240.636C66.2714 240.731 66.4566 240.81 66.7085 240.874L67.3422 241.032C67.7238 241.126 68.008 241.269 68.1946 241.461C68.3812 241.651 68.4739 241.895 68.4729 242.193C68.472 242.438 68.4007 242.657 68.2591 242.849C68.1193 243.041 67.9241 243.193 67.6733 243.303C67.4226 243.413 67.1313 243.468 66.7993 243.467C66.3636 243.465 66.0033 243.369 65.7184 243.179C65.4335 242.989 65.2537 242.712 65.179 242.348L65.8026 242.195C65.8611 242.425 65.9727 242.598 66.1373 242.713C66.3037 242.829 66.5214 242.887 66.7903 242.888C67.0963 242.889 67.3394 242.825 67.5198 242.696C67.702 242.565 67.7934 242.408 67.794 242.224C67.7946 242.076 67.7431 241.952 67.6396 241.851C67.5361 241.749 67.377 241.672 67.162 241.621L66.4506 241.452C66.0596 241.358 65.7727 241.213 65.5899 241.018C65.4088 240.82 65.3189 240.574 65.3199 240.279C65.3208 240.038 65.3892 239.825 65.5253 239.64C65.6632 239.456 65.85 239.311 66.0859 239.206C66.3237 239.101 66.5927 239.049 66.8931 239.05C67.3159 239.052 67.6475 239.146 67.8879 239.332C68.1302 239.518 68.3017 239.764 68.4026 240.068ZM72.1555 241.65L72.1646 239.125L72.821 239.127L72.8056 243.399L72.1492 243.397L72.1518 242.674L72.1073 242.674C72.0064 242.89 71.8499 243.074 71.638 243.226C71.4261 243.375 71.1588 243.449 70.8361 243.448C70.5691 243.447 70.3319 243.388 70.1247 243.27C69.9174 243.151 69.7549 242.972 69.6371 242.734C69.5192 242.495 69.461 242.193 69.4623 241.83L69.4721 239.115L70.1285 239.117L70.1189 241.788C70.1178 242.099 70.204 242.348 70.3777 242.534C70.5532 242.72 70.7772 242.814 71.0498 242.815C71.213 242.815 71.3791 242.774 71.5481 242.691C71.719 242.608 71.8623 242.481 71.9779 242.309C72.0953 242.137 72.1545 241.917 72.1555 241.65ZM74.0079 243.404L74.0233 239.131L74.6575 239.134L74.6551 239.801L74.7107 239.801C74.8005 239.574 74.9449 239.397 75.1438 239.272C75.3426 239.145 75.5811 239.081 75.8593 239.082C76.1411 239.083 76.3755 239.148 76.5623 239.277C76.751 239.404 76.8978 239.581 77.0027 239.81L77.0472 239.81C77.1574 239.59 77.3221 239.415 77.5414 239.286C77.7607 239.155 78.0233 239.09 78.3293 239.091C78.7113 239.093 79.0233 239.213 79.2653 239.454C79.5074 239.692 79.6275 240.062 79.6257 240.565L79.6154 243.424L78.959 243.422L78.9693 240.562C78.9704 240.247 78.885 240.021 78.713 239.885C78.5411 239.749 78.3383 239.681 78.1046 239.68C77.8042 239.679 77.5712 239.769 77.4055 239.95C77.2398 240.13 77.1565 240.357 77.1555 240.634L77.1454 243.415L76.4779 243.413L76.4884 240.487C76.4893 240.244 76.4112 240.048 76.2541 239.899C76.097 239.748 75.8943 239.672 75.6458 239.671C75.4752 239.671 75.3155 239.716 75.1669 239.806C75.02 239.896 74.9009 240.022 74.8095 240.183C74.7199 240.342 74.6747 240.526 74.674 240.736L74.6644 243.406L74.0079 243.404Z" fill="#7E8284"/>
<path d="M70.95 273.26C70.693 273.266 70.435 273.246 70.18 273.265C69.326 273.329 69.171 273.647 69.162 274.349C69.156 274.763 69.348 274.985 69.676 275.04C70.131 275.114 70.559 275.018 70.973 274.835C71.086 274.786 71.141 274.719 71.136 274.59C71.128 274.408 71.134 274.225 71.134 274.043C71.134 273.848 71.13 273.651 71.136 273.455C71.14 273.322 71.094 273.256 70.95 273.26Z" fill="#7F6499"/>
<path d="M53.077 273.414C53.074 273.362 53.002 273.27 52.965 273.27C52.542 273.286 52.117 273.296 51.697 273.35C51.439 273.383 51.25 273.57 51.199 273.827C51.151 274.066 51.136 274.321 51.156 274.567C51.178 274.838 51.372 274.995 51.639 275.04C52.065 275.113 52.467 275.031 52.864 274.876C53.034 274.809 53.106 274.713 53.087 274.528C53.071 274.367 53.084 274.202 53.083 274.041C53.082 273.833 53.09 273.622 53.077 273.414Z" fill="#7F6499"/>
<path d="M76.896 257.699H35.915C35.3 257.699 34.803 258.197 34.803 258.811V284.586C34.803 285.2 35.3 285.699 35.915 285.699H76.896C77.511 285.699 78.008 285.201 78.008 284.587V258.811C78.008 258.198 77.511 257.699 76.896 257.699ZM40.671 275.693C40.671 276.071 40.479 276.263 40.097 276.267C39.732 276.27 39.367 276.27 39.002 276.267C38.754 276.267 38.72 276.232 38.72 275.985C38.72 274.571 38.72 273.16 38.72 271.746C38.72 270.354 38.72 268.96 38.72 267.568C38.72 267.191 38.928 266.977 39.303 266.971C39.662 266.966 40.02 266.968 40.379 266.97C40.62 266.972 40.673 267.028 40.673 267.275C40.672 270.081 40.672 272.886 40.671 275.693ZM45.357 276.286C44.539 276.209 43.788 275.955 43.124 275.467C42.111 274.726 41.502 273.733 41.314 272.488C41.3 272.394 41.281 272.301 41.278 272.207C41.269 271.952 41.272 271.952 41.611 271.958C42.661 272.062 43.625 272.513 44.408 273.331C45.135 274.093 45.513 275.015 45.618 276.053C45.642 276.293 45.6 276.308 45.357 276.286ZM45.616 267.223C45.393 269.095 44.423 270.4 42.652 271.073C42.297 271.208 41.911 271.264 41.541 271.355C41.271 271.321 41.256 271.32 41.279 271.063C41.365 270.077 41.732 269.206 42.391 268.467C43.111 267.659 44.015 267.187 45.081 267.017C45.173 267.003 45.27 267.009 45.363 266.994C45.607 266.955 45.646 266.983 45.616 267.223ZM48.419 268.513C48.419 270.98 48.419 273.447 48.419 275.913C48.419 276.27 48.386 276.303 48.024 276.303C47.639 276.303 47.253 276.304 46.868 276.303C46.629 276.302 46.587 276.258 46.587 276.016C46.587 274.547 46.587 273.082 46.587 271.616C46.587 270.176 46.587 268.737 46.587 267.297C46.587 266.999 46.615 266.97 46.909 266.969C47.301 266.969 47.693 266.969 48.085 266.969C48.369 266.97 48.419 267.019 48.42 267.296C48.42 267.702 48.419 268.107 48.419 268.513ZM54.622 276.302C54.257 276.303 53.892 276.303 53.527 276.302C53.218 276.302 53.179 276.264 53.164 275.958C53.163 275.925 53.156 275.892 53.148 275.828C52.94 275.944 52.763 276.055 52.577 276.146C51.928 276.462 51.252 276.492 50.57 276.289C49.956 276.108 49.579 275.684 49.429 275.062C49.32 274.615 49.311 274.164 49.401 273.717C49.542 273.027 50.008 272.643 50.656 272.447C51.284 272.257 51.93 272.236 52.579 272.242C53.043 272.247 53.043 272.243 53.042 271.773C53.042 271.651 53.051 271.526 53.029 271.409C52.959 271.03 52.706 270.794 52.287 270.794C51.586 270.794 50.884 270.824 50.184 270.864C49.841 270.885 49.795 270.867 49.795 270.521C49.795 270.278 49.8 270.034 49.794 269.791C49.791 269.655 49.844 269.562 49.974 269.536C51.061 269.304 52.155 269.144 53.257 269.418C54.252 269.665 54.84 270.357 54.866 271.391C54.906 272.936 54.899 274.484 54.908 276.03C54.909 276.236 54.834 276.302 54.622 276.302ZM59.509 270.787C59.001 270.766 58.54 270.925 58.088 271.137C57.953 271.201 57.908 271.286 57.908 271.435C57.913 272.936 57.912 274.438 57.912 275.938C57.912 276.257 57.862 276.304 57.551 276.304C57.166 276.305 56.78 276.305 56.394 276.304C56.109 276.304 56.044 276.237 56.044 275.938C56.043 274.808 56.044 273.681 56.044 272.551C56.044 271.617 56.044 270.685 56.044 269.752C56.044 269.419 56.099 269.366 56.433 269.365C56.798 269.365 57.164 269.364 57.529 269.366C57.814 269.366 57.865 269.419 57.871 269.711C57.872 269.769 57.88 269.827 57.886 269.923C57.975 269.86 58.033 269.821 58.09 269.779C58.518 269.47 58.995 269.304 59.522 269.282C59.701 269.274 59.782 269.352 59.779 269.535C59.773 269.867 59.771 270.197 59.78 270.529C59.785 270.724 59.694 270.793 59.509 270.787ZM66.108 276.303C65.73 276.303 65.352 276.303 64.974 276.303C64.677 276.303 64.646 276.272 64.646 275.98C64.644 274.656 64.649 273.33 64.641 272.006C64.641 271.785 64.61 271.562 64.57 271.344C64.513 271.028 64.297 270.848 63.992 270.799C63.436 270.707 62.936 270.883 62.474 271.17C62.413 271.208 62.388 271.347 62.388 271.438C62.382 272.553 62.383 273.669 62.383 274.784C62.383 275.203 62.378 275.622 62.384 276.042C62.386 276.236 62.303 276.308 62.116 276.307C61.697 276.299 61.278 276.305 60.858 276.304C60.616 276.303 60.549 276.234 60.549 275.986C60.548 273.878 60.548 271.768 60.549 269.659C60.549 269.436 60.615 269.368 60.838 269.366C61.217 269.362 61.595 269.363 61.972 269.365C62.211 269.366 62.254 269.411 62.259 269.649C62.26 269.74 62.268 269.831 62.276 269.976C62.401 269.897 62.474 269.853 62.546 269.805C63.286 269.304 64.104 269.182 64.966 269.335C65.753 269.473 66.183 270 66.343 270.749C66.42 271.109 66.463 271.483 66.468 271.851C66.482 273.217 66.473 274.581 66.473 275.947C66.473 276.267 66.436 276.303 66.108 276.303ZM72.604 276.304C72.253 276.305 71.901 276.305 71.55 276.304C71.248 276.304 71.23 276.286 71.213 275.99C71.212 275.956 71.208 275.923 71.202 275.89C71.2 275.878 71.188 275.869 71.167 275.837C71.123 275.858 71.084 275.87 71.053 275.891C70.581 276.244 70.039 276.378 69.463 276.424C68.324 276.516 67.453 275.766 67.401 274.626C67.388 274.345 67.379 274.058 67.422 273.782C67.527 273.116 67.936 272.673 68.569 272.495C69.044 272.363 69.544 272.307 70.039 272.249C70.325 272.215 70.62 272.238 70.91 272.244C71.037 272.246 71.1 272.204 71.093 272.07C71.083 271.868 71.101 271.662 71.067 271.464C70.99 271.02 70.739 270.789 70.291 270.791C69.596 270.796 68.902 270.826 68.208 270.866C67.86 270.885 67.81 270.858 67.81 270.499C67.81 270.276 67.811 270.053 67.81 269.83C67.809 269.657 67.885 269.561 68.061 269.52C68.869 269.338 69.685 269.239 70.511 269.291C70.856 269.312 71.207 269.387 71.536 269.498C72.323 269.759 72.755 270.337 72.881 271.146C72.912 271.352 72.923 271.563 72.923 271.77C72.928 273.178 72.925 274.584 72.925 275.99C72.924 276.268 72.89 276.303 72.604 276.304ZM73.551 268.94H73.402V269.375H73.339V268.94H73.19V268.887H73.553L73.551 268.94ZM74.03 269.376L74.018 269.161C74.015 269.094 74.01 269.01 74.01 268.951H74.008C73.992 269.008 73.971 269.069 73.947 269.136L73.861 269.374H73.814L73.734 269.141C73.711 269.072 73.693 269.009 73.678 268.951C73.677 269.011 73.672 269.092 73.667 269.167L73.654 269.377H73.594L73.628 268.888H73.708L73.791 269.124C73.81 269.184 73.826 269.238 73.839 269.289H73.841C73.855 269.239 73.872 269.186 73.894 269.124L73.981 268.888H74.061L74.092 269.377H74.03V269.376Z" fill="#7F6499"/>
</svg>
