<svg width="191" height="382" viewBox="0 0 191 382" fill="none" xmlns="http://www.w3.org/2000/svg">
<path d="M178.431 381.529H11.97C5.359 381.529 0 376.17 0 369.559V11.97C0 5.359 5.359 0 11.97 0H178.43C185.041 0 190.4 5.359 190.4 11.97V369.559C190.4 376.17 185.041 381.529 178.431 381.529Z" fill="white"/>
<path d="M103.679 301.83H90.061C89.786 301.83 89.563 301.607 89.563 301.332V287.714C89.563 287.439 89.786 287.216 90.061 287.216H103.679C103.954 287.216 104.177 287.439 104.177 287.714V301.332C104.177 301.607 103.954 301.83 103.679 301.83Z" fill="#E8E8E8"/>
<path d="M120.364 301.83H106.746C106.471 301.83 106.248 301.607 106.248 301.332V287.714C106.248 287.439 106.471 287.216 106.746 287.216H120.364C120.639 287.216 120.862 287.439 120.862 287.714V301.332C120.862 301.607 120.639 301.83 120.364 301.83Z" fill="#E8E8E8"/>
<path d="M137.05 301.83H123.431C123.156 301.83 122.933 301.607 122.933 301.332V287.714C122.933 287.439 123.156 287.216 123.431 287.216H137.049C137.324 287.216 137.547 287.439 137.547 287.714V301.332C137.548 301.607 137.325 301.83 137.05 301.83Z" fill="#E8E8E8"/>
<path d="M153.735 301.83H140.117C139.842 301.83 139.619 301.607 139.619 301.332V287.714C139.619 287.439 139.842 287.216 140.117 287.216H153.735C154.01 287.216 154.233 287.439 154.233 287.714V301.332C154.233 301.607 154.01 301.83 153.735 301.83Z" fill="#E8E8E8"/>
<path d="M170.42 301.83H156.802C156.527 301.83 156.304 301.607 156.304 301.332V287.714C156.304 287.439 156.527 287.216 156.802 287.216H170.42C170.695 287.216 170.918 287.439 170.918 287.714V301.332C170.918 301.607 170.695 301.83 170.42 301.83Z" fill="#34385B"/>
<path d="M21.4748 16.8042V21.1815H20.9447V17.3599H20.9191L19.8504 18.0695V17.5309L20.9447 16.8042H21.4748ZM24.1615 21.2413C23.8394 21.2413 23.5651 21.1537 23.3386 20.9784C23.112 20.8018 22.9389 20.546 22.8192 20.2111C22.6995 19.8748 22.6397 19.4688 22.6397 18.9928C22.6397 18.5198 22.6995 18.1158 22.8192 17.781C22.9403 17.4447 23.1142 17.1882 23.3407 17.0115C23.5687 16.8334 23.8423 16.7443 24.1615 16.7443C24.4807 16.7443 24.7535 16.8334 24.9801 17.0115C25.2081 17.1882 25.3819 17.4447 25.5016 17.781C25.6227 18.1158 25.6833 18.5198 25.6833 18.9928C25.6833 19.4688 25.6234 19.8748 25.5037 20.2111C25.384 20.546 25.2109 20.8018 24.9844 20.9784C24.7578 21.1537 24.4835 21.2413 24.1615 21.2413ZM24.1615 20.7711C24.4807 20.7711 24.7286 20.6172 24.9053 20.3094C25.082 20.0017 25.1703 19.5628 25.1703 18.9928C25.1703 18.6138 25.1297 18.2911 25.0485 18.0246C24.9687 17.7582 24.8533 17.5551 24.7022 17.4155C24.5526 17.2758 24.3724 17.206 24.1615 17.206C23.8451 17.206 23.5979 17.362 23.4198 17.6741C23.2417 17.9847 23.1526 18.4243 23.1526 18.9928C23.1526 19.3719 23.1925 19.6939 23.2723 19.9589C23.3521 20.224 23.4668 20.4256 23.6164 20.5638C23.7675 20.702 23.9492 20.7711 24.1615 20.7711ZM26.8716 20.6215C26.7662 20.6215 26.6757 20.5837 26.6002 20.5082C26.5247 20.4327 26.4869 20.3422 26.4869 20.2368C26.4869 20.1313 26.5247 20.0409 26.6002 19.9653C26.6757 19.8898 26.7662 19.8521 26.8716 19.8521C26.9771 19.8521 27.0676 19.8898 27.1431 19.9653C27.2186 20.0409 27.2564 20.1313 27.2564 20.2368C27.2564 20.3066 27.2386 20.3707 27.2029 20.4291C27.1687 20.4876 27.1224 20.5346 27.064 20.5702C27.007 20.6044 26.9429 20.6215 26.8716 20.6215ZM26.8716 18.4072C26.7662 18.4072 26.6757 18.3694 26.6002 18.2939C26.5247 18.2184 26.4869 18.1279 26.4869 18.0225C26.4869 17.917 26.5247 17.8265 26.6002 17.751C26.6757 17.6755 26.7662 17.6377 26.8716 17.6377C26.9771 17.6377 27.0676 17.6755 27.1431 17.751C27.2186 17.8265 27.2564 17.917 27.2564 18.0225C27.2564 18.0923 27.2386 18.1564 27.2029 18.2148C27.1687 18.2733 27.1224 18.3203 27.064 18.3559C27.007 18.3901 26.9429 18.4072 26.8716 18.4072ZM29.5807 21.2413C29.2587 21.2413 28.9844 21.1537 28.7579 20.9784C28.5313 20.8018 28.3582 20.546 28.2385 20.2111C28.1188 19.8748 28.0589 19.4688 28.0589 18.9928C28.0589 18.5198 28.1188 18.1158 28.2385 17.781C28.3596 17.4447 28.5334 17.1882 28.76 17.0115C28.988 16.8334 29.2616 16.7443 29.5807 16.7443C29.8999 16.7443 30.1728 16.8334 30.3994 17.0115C30.6273 17.1882 30.8012 17.4447 30.9209 17.781C31.042 18.1158 31.1025 18.5198 31.1025 18.9928C31.1025 19.4688 31.0427 19.8748 30.923 20.2111C30.8033 20.546 30.6302 20.8018 30.4036 20.9784C30.1771 21.1537 29.9028 21.2413 29.5807 21.2413ZM29.5807 20.7711C29.8999 20.7711 30.1479 20.6172 30.3245 20.3094C30.5012 20.0017 30.5896 19.5628 30.5896 18.9928C30.5896 18.6138 30.549 18.2911 30.4677 18.0246C30.388 17.7582 30.2725 17.5551 30.1215 17.4155C29.9719 17.2758 29.7916 17.206 29.5807 17.206C29.2644 17.206 29.0172 17.362 28.8391 17.6741C28.661 17.9847 28.5719 18.4243 28.5719 18.9928C28.5719 19.3719 28.6118 19.6939 28.6916 19.9589C28.7714 20.224 28.8861 20.4256 29.0357 20.5638C29.1868 20.702 29.3684 20.7711 29.5807 20.7711ZM33.3425 21.2413C33.0205 21.2413 32.7462 21.1537 32.5196 20.9784C32.293 20.8018 32.1199 20.546 32.0002 20.2111C31.8805 19.8748 31.8207 19.4688 31.8207 18.9928C31.8207 18.5198 31.8805 18.1158 32.0002 17.781C32.1213 17.4447 32.2952 17.1882 32.5217 17.0115C32.7497 16.8334 33.0233 16.7443 33.3425 16.7443C33.6617 16.7443 33.9345 16.8334 34.1611 17.0115C34.3891 17.1882 34.5629 17.4447 34.6826 17.781C34.8037 18.1158 34.8643 18.5198 34.8643 18.9928C34.8643 19.4688 34.8044 19.8748 34.6848 20.2111C34.5651 20.546 34.3919 20.8018 34.1654 20.9784C33.9388 21.1537 33.6645 21.2413 33.3425 21.2413ZM33.3425 20.7711C33.6617 20.7711 33.9096 20.6172 34.0863 20.3094C34.263 20.0017 34.3513 19.5628 34.3513 18.9928C34.3513 18.6138 34.3107 18.2911 34.2295 18.0246C34.1497 17.7582 34.0343 17.5551 33.8832 17.4155C33.7336 17.2758 33.5534 17.206 33.3425 17.206C33.0262 17.206 32.7789 17.362 32.6008 17.6741C32.4227 17.9847 32.3337 18.4243 32.3337 18.9928C32.3337 19.3719 32.3736 19.6939 32.4534 19.9589C32.5331 20.224 32.6479 20.4256 32.7975 20.5638C32.9485 20.702 33.1302 20.7711 33.3425 20.7711Z" fill="#34385B"/>
<path d="M46.682 17.958H46.278V17.209C46.278 17.11 46.198 17.03 46.099 17.03H37.523C37.424 17.03 37.344 17.11 37.344 17.209V21.021C37.344 21.12 37.424 21.2 37.523 21.2H46.099C46.198 21.2 46.278 21.12 46.278 21.021V20.272H46.682C46.781 20.272 46.861 20.192 46.861 20.093V18.137C46.861 18.038 46.781 17.958 46.682 17.958ZM45.92 20.842H37.702V17.389H45.92V18.138V20.094V20.842ZM46.503 19.914H46.278V18.316H46.503V19.914Z" fill="#34385B"/>
<path d="M43.631 20.38H38.521C38.361 20.38 38.231 20.25 38.231 20.09V18.141C38.231 17.981 38.361 17.851 38.521 17.851H43.631C43.791 17.851 43.921 17.981 43.921 18.141V20.09C43.921 20.25 43.791 20.38 43.631 20.38Z" fill="#34385B"/>
<path d="M28.2273 67.167C28.1506 66.5193 27.8395 66.0164 27.2941 65.6585C26.7486 65.3005 26.0796 65.1216 25.287 65.1216C24.7074 65.1216 24.2003 65.2153 23.7657 65.4028C23.3353 65.5903 22.9986 65.8481 22.7557 66.1762C22.5171 66.5044 22.3978 66.8772 22.3978 67.2949C22.3978 67.6443 22.4809 67.9447 22.6471 68.1961C22.8175 68.4433 23.0348 68.65 23.2991 68.8162C23.5633 68.9781 23.8402 69.1123 24.13 69.2189C24.4198 69.3211 24.6861 69.4042 24.929 69.4682L26.2586 69.8261C26.5995 69.9156 26.9787 70.0392 27.3964 70.1968C27.8182 70.3545 28.2209 70.5697 28.6045 70.8424C28.9922 71.1109 29.3118 71.4561 29.5633 71.878C29.8147 72.2998 29.9404 72.8176 29.9404 73.4312C29.9404 74.1386 29.755 74.7778 29.3843 75.3488C29.0178 75.9199 28.4809 76.3737 27.7735 76.7103C27.0704 77.047 26.216 77.2153 25.2103 77.2153C24.2728 77.2153 23.461 77.064 22.7749 76.7615C22.0931 76.4589 21.5562 76.037 21.1641 75.4959C20.7763 74.9547 20.5569 74.3261 20.5057 73.6102H22.1421C22.1847 74.1045 22.3509 74.5136 22.6407 74.8375C22.9347 75.1571 23.3054 75.3957 23.7529 75.5534C24.2046 75.7068 24.6904 75.7835 25.2103 75.7835C25.8154 75.7835 26.3587 75.6855 26.8402 75.4895C27.3218 75.2892 27.7032 75.0122 27.9844 74.6585C28.2657 74.3005 28.4063 73.8829 28.4063 73.4057C28.4063 72.971 28.2848 72.6173 28.042 72.3446C27.7991 72.0718 27.4795 71.8503 27.0831 71.6798C26.6868 71.5093 26.2586 71.3602 25.7983 71.2324L24.1875 70.7721C23.1648 70.4781 22.3552 70.0584 21.7586 69.5129C21.162 68.9674 20.8637 68.2537 20.8637 67.3716C20.8637 66.6386 21.0618 65.9994 21.4581 65.4539C21.8587 64.9042 22.3956 64.4781 23.0689 64.1755C23.7465 63.8687 24.5029 63.7153 25.3381 63.7153C26.1819 63.7153 26.9319 63.8666 27.5881 64.1691C28.2444 64.4674 28.7643 64.8765 29.1478 65.3964C29.5356 65.9163 29.7401 66.5065 29.7614 67.167H28.2273ZM34.5666 76.9852L31.5752 67.167H33.1604L35.2825 74.6841H35.3848L37.4814 67.167H39.0922L41.1632 74.6585H41.2655L43.3877 67.167H44.9729L41.9814 76.9852H40.4984L38.3507 69.4426H38.1973L36.0496 76.9852H34.5666ZM50.7497 77.1897C49.8037 77.1897 48.9876 76.9809 48.3015 76.5633C47.6197 76.1414 47.0934 75.5534 46.7227 74.7991C46.3562 74.0406 46.173 73.1585 46.173 72.1528C46.173 71.1471 46.3562 70.2608 46.7227 69.4937C47.0934 68.7224 47.6091 68.1216 48.2696 67.6912C48.9344 67.2565 49.7099 67.0392 50.5963 67.0392C51.1076 67.0392 51.6126 67.1244 52.1112 67.2949C52.6098 67.4653 53.0636 67.7423 53.4727 68.1258C53.8818 68.5051 54.2078 69.0079 54.4507 69.6343C54.6936 70.2608 54.815 71.0321 54.815 71.9483V72.5875H47.2469V71.2835H53.2809C53.2809 70.7295 53.1701 70.2352 52.9486 69.8005C52.7312 69.3659 52.4201 69.0228 52.0153 68.7714C51.6147 68.52 51.1417 68.3943 50.5963 68.3943C49.9954 68.3943 49.4755 68.5434 49.0366 68.8417C48.602 69.1358 48.2674 69.5193 48.0331 69.9923C47.7987 70.4653 47.6815 70.9724 47.6815 71.5136V72.3829C47.6815 73.1244 47.8094 73.753 48.065 74.2686C48.325 74.7799 48.6851 75.1699 49.1453 75.4383C49.6055 75.7025 50.1403 75.8346 50.7497 75.8346C51.146 75.8346 51.504 75.7792 51.8236 75.6684C52.1474 75.5534 52.4265 75.3829 52.6609 75.1571C52.8953 74.927 53.0764 74.6414 53.2042 74.3005L54.6616 74.7096C54.5082 75.2039 54.2504 75.6386 53.8882 76.0136C53.526 76.3843 53.0785 76.6741 52.5459 76.8829C52.0132 77.0875 51.4145 77.1897 50.7497 77.1897ZM59.999 77.2153C59.3768 77.2153 58.8122 77.0981 58.3051 76.8638C57.798 76.6251 57.3953 76.2821 57.097 75.8346C56.7987 75.3829 56.6496 74.8375 56.6496 74.1983C56.6496 73.6358 56.7603 73.1798 56.9819 72.8304C57.2035 72.4767 57.4997 72.1997 57.8704 71.9994C58.2412 71.7991 58.6503 71.65 59.0977 71.552C59.5494 71.4497 60.0032 71.3687 60.4592 71.3091C61.0558 71.2324 61.5395 71.1748 61.9102 71.1365C62.2852 71.0939 62.5579 71.0236 62.7284 70.9255C62.9031 70.8275 62.9905 70.6571 62.9905 70.4142V70.363C62.9905 69.7324 62.8179 69.2423 62.4727 68.8929C62.1318 68.5434 61.614 68.3687 60.9194 68.3687C60.1993 68.3687 59.6346 68.5264 59.2255 68.8417C58.8165 69.1571 58.5288 69.4937 58.3626 69.8517L56.9308 69.3403C57.1865 68.7437 57.5274 68.2792 57.9535 67.9468C58.3839 67.6102 58.8527 67.3758 59.3598 67.2437C59.8711 67.1074 60.374 67.0392 60.8683 67.0392C61.1836 67.0392 61.5459 67.0775 61.9549 67.1542C62.3683 67.2267 62.7667 67.378 63.1503 67.6081C63.538 67.8382 63.8598 68.1855 64.1155 68.65C64.3711 69.1145 64.499 69.7366 64.499 70.5164V76.9852H62.9905V75.6557H62.9138C62.8115 75.8687 62.641 76.0967 62.4024 76.3396C62.1638 76.5825 61.8463 76.7892 61.45 76.9596C61.0537 77.1301 60.57 77.2153 59.999 77.2153ZM60.2291 75.8602C60.8257 75.8602 61.3285 75.743 61.7376 75.5086C62.151 75.2743 62.4621 74.9717 62.6709 74.601C62.8839 74.2302 62.9905 73.8403 62.9905 73.4312V72.0505C62.9265 72.1272 62.7859 72.1976 62.5686 72.2615C62.3555 72.3211 62.1084 72.3744 61.8271 72.4213C61.5501 72.4639 61.2795 72.5022 61.0153 72.5363C60.7554 72.5662 60.5444 72.5917 60.3825 72.613C59.9905 72.6642 59.624 72.7473 59.2831 72.8623C58.9464 72.9731 58.6737 73.1414 58.4649 73.3673C58.2603 73.5889 58.1581 73.8914 58.1581 74.275C58.1581 74.7991 58.352 75.1954 58.7397 75.4639C59.1318 75.7281 59.6282 75.8602 60.2291 75.8602ZM71.5222 67.167V68.4454H66.4342V67.167H71.5222ZM67.9171 64.8147H69.4257V74.1727C69.4257 74.5988 69.4874 74.9184 69.611 75.1315C69.7389 75.3403 69.9008 75.4809 70.0968 75.5534C70.2971 75.6216 70.508 75.6557 70.7296 75.6557C70.8958 75.6557 71.0322 75.6471 71.1387 75.6301C71.2453 75.6088 71.3305 75.5917 71.3944 75.5789L71.7012 76.9341C71.5989 76.9724 71.4562 77.0108 71.273 77.0491C71.0897 77.0917 70.8575 77.113 70.5762 77.113C70.1501 77.113 69.7325 77.0214 69.3234 76.8382C68.9185 76.6549 68.5819 76.3758 68.3134 76.0008C68.0492 75.6258 67.9171 75.1528 67.9171 74.5818V64.8147ZM77.8024 77.1897C76.8564 77.1897 76.0404 76.9809 75.3543 76.5633C74.6725 76.1414 74.1462 75.5534 73.7754 74.7991C73.409 74.0406 73.2257 73.1585 73.2257 72.1528C73.2257 71.1471 73.409 70.2608 73.7754 69.4937C74.1462 68.7224 74.6618 68.1216 75.3223 67.6912C75.9871 67.2565 76.7627 67.0392 77.649 67.0392C78.1604 67.0392 78.6654 67.1244 79.1639 67.2949C79.6625 67.4653 80.1163 67.7423 80.5254 68.1258C80.9345 68.5051 81.2605 69.0079 81.5034 69.6343C81.7463 70.2608 81.8678 71.0321 81.8678 71.9483V72.5875H74.2996V71.2835H80.3337C80.3337 70.7295 80.2229 70.2352 80.0013 69.8005C79.784 69.3659 79.4729 69.0228 79.0681 68.7714C78.6675 68.52 78.1945 68.3943 77.649 68.3943C77.0482 68.3943 76.5283 68.5434 76.0894 68.8417C75.6547 69.1358 75.3202 69.5193 75.0858 69.9923C74.8514 70.4653 74.7342 70.9724 74.7342 71.5136V72.3829C74.7342 73.1244 74.8621 73.753 75.1178 74.2686C75.3777 74.7799 75.7378 75.1699 76.198 75.4383C76.6583 75.7025 77.1931 75.8346 77.8024 75.8346C78.1987 75.8346 78.5567 75.7792 78.8763 75.6684C79.2002 75.5534 79.4793 75.3829 79.7136 75.1571C79.948 74.927 80.1291 74.6414 80.257 74.3005L81.7144 74.7096C81.5609 75.2039 81.3031 75.6386 80.9409 76.0136C80.5787 76.3843 80.1313 76.6741 79.5986 76.8829C79.0659 77.0875 78.4672 77.1897 77.8024 77.1897ZM84.1625 76.9852V67.167H85.6199V68.65H85.7222C85.9011 68.1642 86.225 67.77 86.6938 67.4674C87.1625 67.1649 87.6909 67.0136 88.279 67.0136C88.3898 67.0136 88.5283 67.0157 88.6945 67.02C88.8607 67.0243 88.9864 67.0307 89.0716 67.0392V68.5733C89.0205 68.5605 88.9033 68.5413 88.72 68.5157C88.5411 68.4859 88.3514 68.471 88.1511 68.471C87.6739 68.471 87.2477 68.5711 86.8727 68.7714C86.502 68.9674 86.208 69.2402 85.9906 69.5896C85.7776 69.9348 85.671 70.3289 85.671 70.7721V76.9852H84.1625ZM97.8143 69.3659L96.4592 69.7494C96.374 69.5236 96.2483 69.3041 96.0821 69.091C95.9201 68.8737 95.6986 68.6947 95.4173 68.5541C95.1361 68.4135 94.776 68.3432 94.3371 68.3432C93.7362 68.3432 93.2355 68.4816 92.8349 68.7586C92.4386 69.0314 92.2405 69.3787 92.2405 69.8005C92.2405 70.1755 92.3768 70.4717 92.6496 70.689C92.9223 70.9064 93.3484 71.0875 93.928 71.2324L95.3853 71.5903C96.2632 71.8034 96.9173 72.1294 97.3477 72.5683C97.7781 73.003 97.9933 73.5633 97.9933 74.2494C97.9933 74.8119 97.8314 75.3147 97.5075 75.7579C97.1879 76.2011 96.7405 76.5505 96.1652 76.8062C95.5899 77.0619 94.9209 77.1897 94.1581 77.1897C93.1567 77.1897 92.3278 76.9724 91.6716 76.5378C91.0153 76.1031 90.5998 75.4682 90.4251 74.6329L91.8569 74.275C91.9933 74.8034 92.2511 75.1997 92.6304 75.4639C93.0139 75.7281 93.5146 75.8602 94.1325 75.8602C94.8356 75.8602 95.3939 75.7111 95.8072 75.4128C96.2248 75.1102 96.4336 74.748 96.4336 74.3261C96.4336 73.9852 96.3143 73.6997 96.0757 73.4696C95.8371 73.2352 95.4706 73.0605 94.9763 72.9454L93.3399 72.5619C92.4407 72.3488 91.7802 72.0186 91.3584 71.5711C90.9407 71.1194 90.7319 70.5548 90.7319 69.8772C90.7319 69.3233 90.8875 68.8332 91.1986 68.4071C91.5139 67.9809 91.9422 67.6464 92.4834 67.4035C93.0288 67.1606 93.6467 67.0392 94.3371 67.0392C95.3086 67.0392 96.0714 67.2522 96.6254 67.6784C97.1836 68.1045 97.5799 68.667 97.8143 69.3659Z" fill="#34385B"/>
<path d="M117.656 352.116H35.892C34.686 352.116 33.709 351.138 33.709 349.933V327.962C33.709 326.756 34.687 325.779 35.892 325.779H117.656C118.862 325.779 119.839 326.756 119.839 327.962V349.933C119.839 351.138 118.862 352.116 117.656 352.116Z" fill="#F2B866"/>
<path d="M55.2984 342.795V335.522H56.1365V338.207H56.2075C56.269 338.112 56.3543 337.991 56.4632 337.845C56.5744 337.695 56.733 337.563 56.939 337.447C57.1473 337.328 57.4291 337.269 57.7842 337.269C58.2435 337.269 58.6483 337.384 58.9987 337.614C59.349 337.843 59.6225 338.169 59.819 338.59C60.0155 339.012 60.1137 339.509 60.1137 340.082C60.1137 340.659 60.0155 341.16 59.819 341.584C59.6225 342.005 59.3502 342.332 59.0022 342.564C58.6542 342.794 58.2529 342.908 57.7984 342.908C57.448 342.908 57.1675 342.85 56.9568 342.734C56.7461 342.616 56.5839 342.482 56.4703 342.333C56.3566 342.182 56.269 342.056 56.2075 341.957H56.108V342.795H55.2984ZM56.1222 340.068C56.1222 340.479 56.1826 340.843 56.3034 341.158C56.4241 341.47 56.6005 341.715 56.8325 341.893C57.0645 342.068 57.3486 342.156 57.6847 342.156C58.0351 342.156 58.3275 342.063 58.5619 341.879C58.7986 341.692 58.9762 341.441 59.0945 341.126C59.2153 340.809 59.2757 340.456 59.2757 340.068C59.2757 339.684 59.2165 339.338 59.0981 339.031C58.9821 338.72 58.8057 338.475 58.569 338.296C58.3346 338.113 58.0399 338.022 57.6847 338.022C57.3438 338.022 57.0574 338.108 56.8254 338.281C56.5934 338.452 56.4182 338.691 56.2998 338.999C56.1814 339.304 56.1222 339.66 56.1222 340.068ZM64.8332 340.565V337.34H65.6713V342.795H64.8332V341.872H64.7764C64.6485 342.148 64.4497 342.384 64.1798 342.578C63.9099 342.77 63.569 342.866 63.157 342.866C62.8161 342.866 62.5131 342.791 62.248 342.642C61.9828 342.491 61.7745 342.263 61.623 341.96C61.4714 341.655 61.3957 341.27 61.3957 340.806V337.34H62.2338V340.749C62.2338 341.147 62.345 341.464 62.5676 341.701C62.7925 341.938 63.0789 342.056 63.4269 342.056C63.6353 342.056 63.8472 342.003 64.0626 341.896C64.2804 341.79 64.4627 341.626 64.6095 341.406C64.7586 341.186 64.8332 340.906 64.8332 340.565ZM67.746 344.84C67.604 344.84 67.4773 344.828 67.366 344.805C67.2548 344.783 67.1778 344.762 67.1352 344.741L67.3483 344.002C67.5519 344.054 67.7318 344.073 67.888 344.059C68.0443 344.045 68.1828 343.975 68.3035 343.849C68.4266 343.726 68.5391 343.526 68.6409 343.249L68.7971 342.823L66.7801 337.34H67.6892L69.1949 341.687H69.2517L70.7574 337.34H71.6665L69.3511 343.59C69.247 343.872 69.1179 344.105 68.964 344.29C68.8102 344.477 68.6314 344.615 68.4278 344.705C68.2266 344.795 67.9993 344.84 67.746 344.84ZM76.4232 339.514V342.795H75.5851V337.34H76.3948V338.193H76.4658C76.5937 337.916 76.7878 337.693 77.0482 337.525C77.3086 337.354 77.6448 337.269 78.0567 337.269C78.426 337.269 78.7492 337.345 79.0262 337.497C79.3032 337.646 79.5186 337.873 79.6725 338.178C79.8264 338.481 79.9033 338.865 79.9033 339.329V342.795H79.0653V339.386C79.0653 338.957 78.954 338.623 78.7314 338.384C78.5089 338.143 78.2035 338.022 77.8153 338.022C77.5477 338.022 77.3086 338.08 77.0979 338.196C76.8896 338.312 76.7251 338.481 76.6043 338.704C76.4836 338.926 76.4232 339.196 76.4232 339.514ZM83.6507 342.908C83.1582 342.908 82.7262 342.791 82.3545 342.557C81.9852 342.322 81.6963 341.995 81.488 341.573C81.282 341.152 81.1791 340.659 81.1791 340.096C81.1791 339.528 81.282 339.032 81.488 338.608C81.6963 338.184 81.9852 337.855 82.3545 337.621C82.7262 337.386 83.1582 337.269 83.6507 337.269C84.1431 337.269 84.574 337.386 84.9433 337.621C85.315 337.855 85.6038 338.184 85.8097 338.608C86.0181 339.032 86.1222 339.528 86.1222 340.096C86.1222 340.659 86.0181 341.152 85.8097 341.573C85.6038 341.995 85.315 342.322 84.9433 342.557C84.574 342.791 84.1431 342.908 83.6507 342.908ZM83.6507 342.156C84.0247 342.156 84.3325 342.06 84.574 341.868C84.8154 341.676 84.9942 341.424 85.1102 341.112C85.2262 340.799 85.2842 340.461 85.2842 340.096C85.2842 339.731 85.2262 339.392 85.1102 339.077C84.9942 338.762 84.8154 338.507 84.574 338.313C84.3325 338.119 84.0247 338.022 83.6507 338.022C83.2766 338.022 82.9688 338.119 82.7274 338.313C82.4859 338.507 82.3071 338.762 82.1911 339.077C82.0751 339.392 82.0171 339.731 82.0171 340.096C82.0171 340.461 82.0751 340.799 82.1911 341.112C82.3071 341.424 82.4859 341.676 82.7274 341.868C82.9688 342.06 83.2766 342.156 83.6507 342.156ZM88.4518 342.795L86.7899 337.34H87.6705L88.8495 341.516H88.9063L90.0711 337.34H90.966L92.1166 341.502H92.1734L93.3524 337.34H94.233L92.5711 342.795H91.7472L90.5541 338.604H90.4688L89.2757 342.795H88.4518Z" fill="white"/>
<path d="M152.832 348.257C157.974 343.115 157.974 334.777 152.832 329.634C147.689 324.491 139.351 324.491 134.208 329.634C129.065 334.777 129.065 343.115 134.208 348.257C139.351 353.4 147.689 353.4 152.832 348.257Z" fill="#EEEFF4"/>
<path d="M149.728 337.649C149.728 335.762 148.198 334.233 146.312 334.233C145.161 334.233 144.143 334.803 143.524 335.676C142.905 334.803 141.888 334.233 140.736 334.233C138.849 334.233 137.32 335.763 137.32 337.649C137.32 337.981 137.368 338.301 137.457 338.604H137.456C137.456 338.604 138.016 341.543 143.759 343.661C143.759 343.661 149.225 340.888 149.608 338.548C149.685 338.261 149.728 337.96 149.728 337.649Z" fill="#FE3B03"/>
<path d="M97.287 233.91C133.613 233.91 163.061 204.462 163.061 168.136C163.061 131.81 133.613 102.362 97.287 102.362C60.961 102.362 31.513 131.81 31.513 168.136C31.513 204.462 60.961 233.91 97.287 233.91Z" fill="#34385B"/>
<path d="M147.122 122.6C145.343 126.07 141.088 127.44 137.618 125.661C134.148 123.882 132.778 119.627 134.557 116.157C136.336 112.687 140.591 111.317 144.061 113.096C147.531 114.875 148.902 119.13 147.122 122.6Z" fill="#FED700"/>
<path d="M157.673 133.304C157.673 135.723 155.712 137.684 153.293 137.684C150.874 137.684 148.913 135.723 148.913 133.304C148.913 130.885 150.874 128.924 153.293 128.924C155.712 128.924 157.673 130.885 157.673 133.304Z" fill="#FFA200"/>
<path d="M64.861 223.651C64.861 225.302 63.523 226.64 61.873 226.64C60.222 226.64 58.884 225.302 58.884 223.651C58.884 222.001 60.222 220.662 61.873 220.662C63.523 220.662 64.861 222 64.861 223.651Z" fill="#FE3B03"/>
<path d="M170.443 40.7H161.655C161.379 40.7 161.155 40.476 161.155 40.2C161.155 39.924 161.379 39.7 161.655 39.7H170.443C170.719 39.7 170.943 39.924 170.943 40.2C170.943 40.476 170.719 40.7 170.443 40.7Z" fill="black"/>
<path d="M170.443 45.166H165.655C165.379 45.166 165.155 44.942 165.155 44.666C165.155 44.39 165.379 44.166 165.655 44.166H170.443C170.719 44.166 170.943 44.39 170.943 44.666C170.943 44.942 170.719 45.166 170.443 45.166Z" fill="black"/>
<path d="M170.443 49.632H161.655C161.379 49.632 161.155 49.408 161.155 49.132C161.155 48.856 161.379 48.632 161.655 48.632H170.443C170.719 48.632 170.943 48.856 170.943 49.132C170.943 49.408 170.719 49.632 170.443 49.632Z" fill="black"/>
<path d="M145.618 46.545C144.838 46.545 144.198 47.185 144.198 47.965C144.198 48.745 144.838 49.385 145.618 49.385C146.398 49.385 147.038 48.745 147.038 47.965C147.038 47.585 146.888 47.235 146.618 46.965C146.358 46.695 145.998 46.545 145.618 46.545ZM145.898 48.245C145.828 48.325 145.728 48.365 145.618 48.365C145.398 48.365 145.218 48.185 145.218 47.965C145.218 47.745 145.398 47.565 145.618 47.565C145.838 47.565 146.018 47.745 146.018 47.965C146.018 48.075 145.978 48.175 145.898 48.245Z" fill="black"/>
<path d="M150.548 46.545C149.768 46.545 149.128 47.185 149.128 47.965C149.128 48.745 149.768 49.385 150.548 49.385C151.328 49.385 151.968 48.745 151.968 47.965C151.968 47.185 151.328 46.545 150.548 46.545ZM150.828 48.245C150.758 48.325 150.658 48.365 150.548 48.365C150.328 48.365 150.148 48.185 150.148 47.965C150.148 47.745 150.328 47.565 150.548 47.565C150.768 47.565 150.948 47.745 150.948 47.965C150.948 48.075 150.908 48.175 150.828 48.245Z" fill="black"/>
<path d="M153.368 39.825C153.268 39.715 153.138 39.655 152.998 39.635L144.708 39.525L144.538 38.975C144.338 38.395 143.788 38.005 143.188 38.005H142.308C142.028 38.005 141.808 38.235 141.808 38.515C141.808 38.795 142.028 39.025 142.308 39.025H143.178C143.348 39.025 143.508 39.135 143.568 39.305L145.188 44.175L145.088 44.395C144.918 44.845 144.968 45.355 145.228 45.755C145.488 46.155 145.928 46.395 146.398 46.415H151.458C151.738 46.415 151.968 46.185 151.968 45.905C151.968 45.625 151.738 45.395 151.458 45.395H146.408C146.278 45.395 146.148 45.315 146.078 45.205C145.998 45.075 145.988 44.935 146.038 44.795L146.078 44.715L151.388 44.155C152.098 44.075 152.678 43.565 152.838 42.875L153.458 40.265C153.508 40.135 153.478 39.955 153.368 39.825ZM146.078 43.675L145.048 40.545L152.328 40.655L151.848 42.645C151.788 42.915 151.558 43.115 151.278 43.135L146.078 43.675Z" fill="black"/>
<path d="M155.324 40.134C155.324 41.486 154.228 42.582 152.875 42.582C151.523 42.582 150.427 41.486 150.427 40.134C150.427 38.782 151.523 37.686 152.875 37.686C154.228 37.686 155.324 38.782 155.324 40.134Z" fill="#FF623E"/>
<path d="M170.918 283.667H19.483C19.345 283.667 19.233 283.555 19.233 283.417C19.233 283.279 19.345 283.167 19.483 283.167H170.919C171.057 283.167 171.169 283.279 171.169 283.417C171.168 283.555 171.057 283.667 170.918 283.667Z" fill="#CECECE"/>
<path d="M170.918 306.832H19.483C19.345 306.832 19.233 306.72 19.233 306.582C19.233 306.444 19.345 306.332 19.483 306.332H170.919C171.057 306.332 171.169 306.444 171.169 306.582C171.169 306.72 171.057 306.832 170.918 306.832Z" fill="#CECECE"/>
<path d="M24.2752 263.833C24.2752 264.356 24.1806 264.809 23.9914 265.191C23.8022 265.572 23.5427 265.867 23.2129 266.074C22.883 266.281 22.5062 266.384 22.0826 266.384C21.6589 266.384 21.2822 266.281 20.9523 266.074C20.6225 265.867 20.3629 265.572 20.1738 265.191C19.9846 264.809 19.89 264.356 19.89 263.833C19.89 263.309 19.9846 262.856 20.1738 262.474C20.3629 262.093 20.6225 261.798 20.9523 261.591C21.2822 261.384 21.6589 261.281 22.0826 261.281C22.5062 261.281 22.883 261.384 23.2129 261.591C23.5427 261.798 23.8022 262.093 23.9914 262.474C24.1806 262.856 24.2752 263.309 24.2752 263.833ZM23.6931 263.833C23.6931 263.402 23.6211 263.039 23.4772 262.743C23.3349 262.448 23.1417 262.224 22.8975 262.072C22.655 261.92 22.3834 261.844 22.0826 261.844C21.7818 261.844 21.5094 261.92 21.2652 262.072C21.0227 262.224 20.8294 262.448 20.6855 262.743C20.5432 263.039 20.4721 263.402 20.4721 263.833C20.4721 264.263 20.5432 264.626 20.6855 264.922C20.8294 265.217 21.0227 265.441 21.2652 265.593C21.5094 265.745 21.7818 265.821 22.0826 265.821C22.3834 265.821 22.655 265.745 22.8975 265.593C23.1417 265.441 23.3349 265.217 23.4772 264.922C23.6211 264.626 23.6931 264.263 23.6931 263.833ZM24.8082 261.882V261.349H28.5337V261.882H26.9717V266.316H26.3702V261.882H24.8082ZM29.4621 266.316V261.349H30.0636V263.561H32.7122V261.349H33.3137V266.316H32.7122V264.094H30.0636V266.316H29.4621ZM34.5179 266.316V261.349H37.5158V261.882H35.1194V263.561H37.3606V264.094H35.1194V265.783H37.5546V266.316H34.5179ZM38.6 266.316V261.349H40.2784C40.6665 261.349 40.985 261.415 41.234 261.548C41.4831 261.679 41.6674 261.859 41.787 262.089C41.9067 262.318 41.9665 262.579 41.9665 262.872C41.9665 263.165 41.9067 263.424 41.787 263.651C41.6674 263.877 41.4839 264.055 41.2365 264.184C40.9891 264.312 40.6729 264.376 40.2881 264.376H38.9298V263.833H40.2687C40.5339 263.833 40.7473 263.794 40.909 263.716C41.0723 263.638 41.1904 263.529 41.2631 263.386C41.3375 263.242 41.3747 263.071 41.3747 262.872C41.3747 262.673 41.3375 262.499 41.2631 262.351C41.1888 262.202 41.0699 262.087 40.9066 262.006C40.7433 261.924 40.5274 261.882 40.259 261.882H39.2015V266.316H38.6ZM40.9381 264.085L42.1606 266.316H41.462L40.259 264.085H40.9381ZM44.8898 261.349H45.6078L47.2959 265.472H47.3541L49.0422 261.349H49.7601V266.316H49.1974V262.542H49.1489L47.5966 266.316H47.0533L45.501 262.542H45.4525V266.316H44.8898V261.349ZM55.1574 263.833C55.1574 264.356 55.0628 264.809 54.8736 265.191C54.6844 265.572 54.4249 265.867 54.095 266.074C53.7652 266.281 53.3884 266.384 52.9648 266.384C52.5411 266.384 52.1644 266.281 51.8345 266.074C51.5047 265.867 51.2451 265.572 51.0559 265.191C50.8668 264.809 50.7722 264.356 50.7722 263.833C50.7722 263.309 50.8668 262.856 51.0559 262.474C51.2451 262.093 51.5047 261.798 51.8345 261.591C52.1644 261.384 52.5411 261.281 52.9648 261.281C53.3884 261.281 53.7652 261.384 54.095 261.591C54.4249 261.798 54.6844 262.093 54.8736 262.474C55.0628 262.856 55.1574 263.309 55.1574 263.833ZM54.5753 263.833C54.5753 263.402 54.5033 263.039 54.3594 262.743C54.2171 262.448 54.0239 262.224 53.7797 262.072C53.5372 261.92 53.2655 261.844 52.9648 261.844C52.664 261.844 52.3916 261.92 52.1474 262.072C51.9049 262.224 51.7116 262.448 51.5677 262.743C51.4254 263.039 51.3543 263.402 51.3543 263.833C51.3543 264.263 51.4254 264.626 51.5677 264.922C51.7116 265.217 51.9049 265.441 52.1474 265.593C52.3916 265.745 52.664 265.821 52.9648 265.821C53.2655 265.821 53.5372 265.745 53.7797 265.593C54.0239 265.441 54.2171 265.217 54.3594 264.922C54.5033 264.626 54.5753 264.263 54.5753 263.833ZM57.7017 266.316H56.1688V261.349H57.7696C58.2515 261.349 58.6638 261.448 59.0066 261.647C59.3494 261.844 59.6122 262.128 59.7949 262.499C59.9776 262.867 60.069 263.309 60.069 263.823C60.069 264.34 59.9768 264.786 59.7925 265.159C59.6081 265.531 59.3397 265.817 58.9872 266.018C58.6347 266.217 58.2062 266.316 57.7017 266.316ZM56.7703 265.783H57.6629C58.0736 265.783 58.414 265.703 58.684 265.545C58.9541 265.386 59.1554 265.161 59.288 264.868C59.4206 264.576 59.4868 264.227 59.4868 263.823C59.4868 263.422 59.4214 263.077 59.2904 262.787C59.1594 262.496 58.9638 262.273 58.7034 262.118C58.4431 261.961 58.1189 261.882 57.7308 261.882H56.7703V265.783ZM61.078 266.316V261.349H64.0758V261.882H61.6795V263.561H63.9206V264.094H61.6795V265.783H64.1146V266.316H61.078ZM65.16 266.316V261.349H65.7615V265.783H68.0706V266.316H65.16ZM71.7185 262.591C71.6893 262.345 71.5713 262.154 71.3643 262.018C71.1574 261.882 70.9035 261.815 70.6027 261.815C70.3828 261.815 70.1904 261.85 70.0255 261.921C69.8622 261.992 69.7344 262.09 69.6423 262.215C69.5517 262.339 69.5064 262.481 69.5064 262.639C69.5064 262.772 69.538 262.886 69.601 262.981C69.6657 263.075 69.7482 263.153 69.8484 263.216C69.9487 263.278 70.0538 263.329 70.1637 263.369C70.2737 263.408 70.3747 263.44 70.4669 263.464L70.9714 263.6C71.1008 263.634 71.2447 263.681 71.4031 263.74C71.5632 263.8 71.716 263.882 71.8616 263.985C72.0087 264.087 72.13 264.218 72.2254 264.378C72.3208 264.538 72.3685 264.735 72.3685 264.968C72.3685 265.236 72.2981 265.479 72.1575 265.695C72.0184 265.912 71.8147 266.084 71.5462 266.212C71.2794 266.34 70.9552 266.404 70.5736 266.404C70.2179 266.404 69.9099 266.346 69.6495 266.231C69.3908 266.116 69.1871 265.956 69.0383 265.751C68.8912 265.546 68.8079 265.307 68.7885 265.036H69.4094C69.4256 265.223 69.4886 265.378 69.5986 265.501C69.7102 265.623 69.8508 265.713 70.0206 265.773C70.192 265.831 70.3764 265.86 70.5736 265.86C70.8032 265.86 71.0094 265.823 71.1921 265.749C71.3748 265.673 71.5196 265.568 71.6263 265.433C71.733 265.297 71.7864 265.139 71.7864 264.958C71.7864 264.793 71.7403 264.659 71.6481 264.555C71.5559 264.452 71.4347 264.368 71.2843 264.303C71.1339 264.238 70.9714 264.182 70.7968 264.133L70.1856 263.959C69.7975 263.847 69.4903 263.688 69.2639 263.481C69.0375 263.274 68.9243 263.003 68.9243 262.668C68.9243 262.39 68.9995 262.148 69.1499 261.941C69.3019 261.732 69.5056 261.57 69.7611 261.456C70.0182 261.339 70.3052 261.281 70.6221 261.281C70.9423 261.281 71.2269 261.338 71.4759 261.453C71.7249 261.566 71.9222 261.722 72.0677 261.919C72.2149 262.116 72.2925 262.34 72.3006 262.591H71.7185Z" fill="black"/>
<path d="M22.8015 292.851C22.7724 292.606 22.6544 292.415 22.4474 292.279C22.2404 292.143 21.9866 292.075 21.6858 292.075C21.4659 292.075 21.2735 292.111 21.1086 292.182C20.9452 292.253 20.8175 292.351 20.7253 292.476C20.6348 292.6 20.5895 292.742 20.5895 292.9C20.5895 293.033 20.621 293.147 20.6841 293.242C20.7488 293.336 20.8312 293.414 20.9315 293.477C21.0318 293.539 21.1369 293.59 21.2468 293.63C21.3568 293.669 21.4578 293.7 21.55 293.725L22.0545 293.86C22.1838 293.894 22.3278 293.941 22.4862 294.001C22.6463 294.061 22.7991 294.143 22.9446 294.246C23.0918 294.348 23.213 294.479 23.3085 294.639C23.4039 294.799 23.4516 294.996 23.4516 295.228C23.4516 295.497 23.3812 295.739 23.2405 295.956C23.1015 296.173 22.8977 296.345 22.6293 296.473C22.3625 296.6 22.0383 296.664 21.6567 296.664C21.301 296.664 20.9929 296.607 20.7326 296.492C20.4739 296.377 20.2702 296.217 20.1214 296.012C19.9742 295.807 19.891 295.568 19.8716 295.296H20.4925C20.5087 295.484 20.5717 295.639 20.6817 295.762C20.7932 295.883 20.9339 295.974 21.1037 296.034C21.2751 296.092 21.4594 296.121 21.6567 296.121C21.8863 296.121 22.0925 296.084 22.2752 296.009C22.4579 295.933 22.6026 295.828 22.7094 295.694C22.8161 295.558 22.8694 295.4 22.8694 295.219C22.8694 295.054 22.8234 294.92 22.7312 294.816C22.639 294.713 22.5178 294.629 22.3674 294.564C22.217 294.499 22.0545 294.443 21.8799 294.394L21.2686 294.219C20.8806 294.108 20.5733 293.949 20.347 293.742C20.1206 293.535 20.0074 293.264 20.0074 292.929C20.0074 292.651 20.0826 292.408 20.233 292.201C20.385 291.993 20.5887 291.831 20.8442 291.716C21.1013 291.6 21.3883 291.542 21.7052 291.542C22.0254 291.542 22.31 291.599 22.559 291.714C22.808 291.827 23.0053 291.982 23.1508 292.18C23.2979 292.377 23.3756 292.601 23.3836 292.851H22.8015ZM25.042 291.61V296.577H24.4405V291.61H25.042ZM26.0832 296.577V296.14L28.7609 292.143H26.0541V291.61H29.4788V292.046L26.8011 296.043H29.5079V296.577H26.0832ZM30.5169 296.577V291.61H33.5148V292.143H31.1184V293.822H33.3596V294.355H31.1184V296.043H33.5536V296.577H30.5169ZM40.7111 294.093C40.7111 294.617 40.6165 295.07 40.4274 295.452C40.2382 295.833 39.9786 296.127 39.6488 296.334C39.3189 296.541 38.9422 296.645 38.5185 296.645C38.0949 296.645 37.7181 296.541 37.3883 296.334C37.0584 296.127 36.7989 295.833 36.6097 295.452C36.4205 295.07 36.3259 294.617 36.3259 294.093C36.3259 293.569 36.4205 293.117 36.6097 292.735C36.7989 292.353 37.0584 292.059 37.3883 291.852C37.7181 291.645 38.0949 291.542 38.5185 291.542C38.9422 291.542 39.3189 291.645 39.6488 291.852C39.9786 292.059 40.2382 292.353 40.4274 292.735C40.6165 293.117 40.7111 293.569 40.7111 294.093ZM40.129 294.093C40.129 293.663 40.0571 293.3 39.9132 293.004C39.7709 292.708 39.5776 292.484 39.3335 292.332C39.0909 292.18 38.8193 292.104 38.5185 292.104C38.2178 292.104 37.9453 292.18 37.7011 292.332C37.4586 292.484 37.2654 292.708 37.1215 293.004C36.9792 293.3 36.908 293.663 36.908 294.093C36.908 294.523 36.9792 294.886 37.1215 295.182C37.2654 295.478 37.4586 295.702 37.7011 295.854C37.9453 296.006 38.2178 296.082 38.5185 296.082C38.8193 296.082 39.0909 296.006 39.3335 295.854C39.5776 295.702 39.7709 295.478 39.9132 295.182C40.0571 294.886 40.129 294.523 40.129 294.093ZM41.7226 296.577V291.61H43.401C43.7907 291.61 44.1092 291.68 44.3566 291.821C44.6056 291.96 44.79 292.148 44.9096 292.386C45.0293 292.623 45.0891 292.889 45.0891 293.181C45.0891 293.474 45.0293 293.74 44.9096 293.979C44.7916 294.219 44.6089 294.409 44.3615 294.552C44.1141 294.692 43.7971 294.763 43.4107 294.763H42.2076V294.229H43.3913C43.6581 294.229 43.8723 294.183 44.034 294.091C44.1957 293.999 44.3129 293.874 44.3857 293.717C44.4601 293.559 44.4973 293.38 44.4973 293.181C44.4973 292.982 44.4601 292.805 44.3857 292.648C44.3129 292.491 44.1949 292.368 44.0316 292.279C43.8683 292.189 43.6516 292.143 43.3816 292.143H42.3241V296.577H41.7226ZM45.7864 292.143V291.61H49.5119V292.143H47.9499V296.577H47.3484V292.143H45.7864ZM51.0418 291.61V296.577H50.4403V291.61H51.0418ZM56.439 294.093C56.439 294.617 56.3445 295.07 56.1553 295.452C55.9661 295.833 55.7066 296.127 55.3767 296.334C55.0468 296.541 54.6701 296.645 54.2464 296.645C53.8228 296.645 53.446 296.541 53.1162 296.334C52.7863 296.127 52.5268 295.833 52.3376 295.452C52.1484 295.07 52.0538 294.617 52.0538 294.093C52.0538 293.569 52.1484 293.117 52.3376 292.735C52.5268 292.353 52.7863 292.059 53.1162 291.852C53.446 291.645 53.8228 291.542 54.2464 291.542C54.6701 291.542 55.0468 291.645 55.3767 291.852C55.7066 292.059 55.9661 292.353 56.1553 292.735C56.3445 293.117 56.439 293.569 56.439 294.093ZM55.8569 294.093C55.8569 293.663 55.785 293.3 55.6411 293.004C55.4988 292.708 55.3055 292.484 55.0614 292.332C54.8188 292.18 54.5472 292.104 54.2464 292.104C53.9457 292.104 53.6732 292.18 53.429 292.332C53.1865 292.484 52.9933 292.708 52.8494 293.004C52.7071 293.3 52.6359 293.663 52.6359 294.093C52.6359 294.523 52.7071 294.886 52.8494 295.182C52.9933 295.478 53.1865 295.702 53.429 295.854C53.6732 296.006 53.9457 296.082 54.2464 296.082C54.5472 296.082 54.8188 296.006 55.0614 295.854C55.3055 295.702 55.4988 295.478 55.6411 295.182C55.785 294.886 55.8569 294.523 55.8569 294.093ZM61.3894 291.61V296.577H60.8073L58.1005 292.677H58.052V296.577H57.4505V291.61H58.0326L60.7491 295.519H60.7976V291.61H61.3894ZM65.3096 292.851C65.2805 292.606 65.1624 292.415 64.9554 292.279C64.7485 292.143 64.4946 292.075 64.1939 292.075C63.9739 292.075 63.7815 292.111 63.6166 292.182C63.4533 292.253 63.3255 292.351 63.2334 292.476C63.1428 292.6 63.0975 292.742 63.0975 292.9C63.0975 293.033 63.1291 293.147 63.1921 293.242C63.2568 293.336 63.3393 293.414 63.4395 293.477C63.5398 293.539 63.6449 293.59 63.7548 293.63C63.8648 293.669 63.9659 293.7 64.058 293.725L64.5625 293.86C64.6919 293.894 64.8358 293.941 64.9943 294.001C65.1543 294.061 65.3071 294.143 65.4527 294.246C65.5998 294.348 65.7211 294.479 65.8165 294.639C65.9119 294.799 65.9596 294.996 65.9596 295.228C65.9596 295.497 65.8892 295.739 65.7486 295.956C65.6095 296.173 65.4058 296.345 65.1374 296.473C64.8706 296.6 64.5464 296.664 64.1647 296.664C63.809 296.664 63.501 296.607 63.2406 296.492C62.9819 296.377 62.7782 296.217 62.6294 296.012C62.4823 295.807 62.399 295.568 62.3796 295.296H63.0005C63.0167 295.484 63.0798 295.639 63.1897 295.762C63.3013 295.883 63.442 295.974 63.6117 296.034C63.7831 296.092 63.9675 296.121 64.1647 296.121C64.3944 296.121 64.6005 296.084 64.7832 296.009C64.966 295.933 65.1107 295.828 65.2174 295.694C65.3241 295.558 65.3775 295.4 65.3775 295.219C65.3775 295.054 65.3314 294.92 65.2392 294.816C65.1471 294.713 65.0258 294.629 64.8754 294.564C64.725 294.499 64.5625 294.443 64.3879 294.394L63.7767 294.219C63.3886 294.108 63.0814 293.949 62.855 293.742C62.6286 293.535 62.5154 293.264 62.5154 292.929C62.5154 292.651 62.5906 292.408 62.741 292.201C62.893 291.993 63.0967 291.831 63.3522 291.716C63.6093 291.6 63.8963 291.542 64.2133 291.542C64.5334 291.542 64.818 291.599 65.067 291.714C65.316 291.827 65.5133 291.982 65.6588 292.18C65.806 292.377 65.8836 292.601 65.8917 292.851H65.3096Z" fill="black"/>
<path d="M97.5372 293.509C97.5201 293.365 97.451 293.253 97.3298 293.174C97.2086 293.094 97.0599 293.055 96.8838 293.055C96.755 293.055 96.6423 293.075 96.5457 293.117C96.4501 293.159 96.3752 293.216 96.3213 293.289C96.2682 293.362 96.2417 293.445 96.2417 293.538C96.2417 293.615 96.2602 293.682 96.2971 293.738C96.335 293.793 96.3833 293.839 96.442 293.876C96.5007 293.912 96.5623 293.941 96.6267 293.965C96.6911 293.988 96.7502 294.006 96.8042 294.021L97.0997 294.1C97.1754 294.12 97.2597 294.147 97.3525 294.182C97.4463 294.217 97.5358 294.265 97.621 294.326C97.7072 294.386 97.7782 294.462 97.8341 294.556C97.8899 294.65 97.9179 294.765 97.9179 294.901C97.9179 295.058 97.8767 295.2 97.7943 295.327C97.7128 295.454 97.5935 295.555 97.4363 295.63C97.2801 295.705 97.0902 295.742 96.8667 295.742C96.6584 295.742 96.478 295.708 96.3255 295.641C96.174 295.574 96.0547 295.48 95.9676 295.36C95.8814 295.24 95.8326 295.1 95.8213 294.941H96.1849C96.1944 295.051 96.2313 295.142 96.2957 295.214C96.361 295.285 96.4434 295.338 96.5429 295.373C96.6432 295.407 96.7512 295.424 96.8667 295.424C97.0012 295.424 97.1219 295.402 97.2289 295.359C97.3359 295.314 97.4207 295.253 97.4832 295.174C97.5457 295.094 97.5769 295.002 97.5769 294.896C97.5769 294.799 97.55 294.72 97.496 294.66C97.442 294.599 97.371 294.55 97.2829 294.512C97.1948 294.474 97.0997 294.441 96.9974 294.413L96.6394 294.31C96.4122 294.245 96.2323 294.152 96.0997 294.03C95.9671 293.909 95.9008 293.751 95.9008 293.555C95.9008 293.392 95.9448 293.25 96.0329 293.128C96.1219 293.006 96.2412 292.912 96.3909 292.844C96.5414 292.776 96.7095 292.742 96.8951 292.742C97.0826 292.742 97.2493 292.776 97.3951 292.843C97.541 292.909 97.6565 293 97.7417 293.116C97.8279 293.231 97.8734 293.362 97.8781 293.509H97.5372Z" fill="#BFBFBF"/>
<path d="M111.997 292.782H112.418L113.406 295.197H113.44L114.429 292.782H114.85V295.691H114.52V293.481H114.492L113.583 295.691H113.264L112.355 293.481H112.327V295.691H111.997V292.782Z" fill="#BFBFBF"/>
<path d="M129.385 295.691V292.782H129.737V295.378H131.089V295.691H129.385Z" fill="#BFBFBF"/>
<path d="M144.813 292.782L145.563 293.992H145.585L146.335 292.782H146.75L145.835 294.236L146.75 295.691H146.335L145.585 294.503H145.563L144.813 295.691H144.398L145.335 294.236L144.398 292.782H144.813ZM147.209 295.691V292.782H147.561V295.378H148.913V295.691H147.209Z" fill="#BFBFBF"/>
<path d="M160.096 295.691V295.435L161.057 294.384C161.169 294.261 161.262 294.154 161.335 294.063C161.408 293.971 161.462 293.885 161.497 293.805C161.533 293.723 161.551 293.638 161.551 293.549C161.551 293.447 161.526 293.358 161.477 293.283C161.429 293.208 161.362 293.151 161.278 293.11C161.194 293.069 161.099 293.049 160.994 293.049C160.882 293.049 160.785 293.072 160.701 293.119C160.619 293.164 160.555 293.228 160.51 293.31C160.465 293.393 160.443 293.489 160.443 293.6H160.108C160.108 293.43 160.147 293.28 160.226 293.151C160.304 293.022 160.411 292.922 160.547 292.85C160.683 292.778 160.836 292.742 161.005 292.742C161.176 292.742 161.327 292.778 161.459 292.85C161.59 292.922 161.693 293.019 161.768 293.141C161.843 293.263 161.88 293.399 161.88 293.549C161.88 293.656 161.861 293.761 161.822 293.863C161.784 293.964 161.718 294.077 161.623 294.202C161.53 294.326 161.399 294.478 161.233 294.657L160.579 295.356V295.378H161.932V295.691H160.096ZM162.74 292.782L163.49 293.992H163.513L164.263 292.782H164.677L163.763 294.236L164.677 295.691H164.263L163.513 294.503H163.49L162.74 295.691H162.325L163.263 294.236L162.325 292.782H162.74ZM165.136 295.691V292.782H165.488V295.378H166.84V295.691H165.136Z" fill="white"/>
<path d="M119.982 266.978C121.846 266.978 123.357 265.467 123.357 263.603C123.357 261.739 121.846 260.228 119.982 260.228C118.118 260.228 116.607 261.739 116.607 263.603C116.607 265.467 118.118 266.978 119.982 266.978Z" fill="#BFE6FF"/>
<path d="M131.872 266.978C133.736 266.978 135.247 265.467 135.247 263.603C135.247 261.739 133.736 260.228 131.872 260.228C130.008 260.228 128.497 261.739 128.497 263.603C128.497 265.467 130.008 266.978 131.872 266.978Z" fill="#BFC5FF"/>
<path d="M143.763 266.978C145.627 266.978 147.138 265.467 147.138 263.603C147.138 261.739 145.627 260.228 143.763 260.228C141.899 260.228 140.388 261.739 140.388 263.603C140.388 265.467 141.899 266.978 143.763 266.978Z" fill="#EDBFFF"/>
<path d="M155.653 266.978C157.517 266.978 159.028 265.467 159.028 263.603C159.028 261.739 157.517 260.228 155.653 260.228C153.789 260.228 152.278 261.739 152.278 263.603C152.278 265.467 153.789 266.978 155.653 266.978Z" fill="#FFBFE1"/>
<path d="M167.543 266.978C169.407 266.978 170.918 265.467 170.918 263.603C170.918 261.739 169.407 260.228 167.543 260.228C165.679 260.228 164.168 261.739 164.168 263.603C164.168 265.467 165.679 266.978 167.543 266.978Z" fill="#FFBFBF"/>
<path d="M54.249 220.009C54.014 220.314 53.65 220.488 53.265 220.479C47.645 220.312 40.399 218.264 37.674 217.429C37.057 217.24 36.695 216.601 36.853 215.977C36.988 215.444 37.173 214.722 37.398 213.847C40.736 214.686 48.514 216.539 55.664 217.426C55.047 218.815 54.57 219.595 54.249 220.009Z" fill="#9CCBF7"/>
<path d="M153.033 215.373C153.033 215.373 143.979 217.01 136.989 218.246C132.225 200.981 126.407 186.271 126.223 185.798C125.987 180.583 121.361 142.398 123.43 130.978C124.903 122.864 127.095 118.33 128.348 116.283C128.544 116.433 128.697 116.629 128.791 116.853C134.388 129.693 151.496 205.8 152.505 209.946C153.536 214.148 153.033 215.373 153.033 215.373Z" fill="url(#paint0_linear_101_366)"/>
<path d="M55.664 217.427C48.514 216.539 40.736 214.687 37.398 213.848C41.597 197.626 60.208 126.528 60.208 126.528C60.208 126.528 62.916 117.18 64.277 115.175C65.177 118.932 66.678 125.849 67.434 132.734C68.559 142.904 66.848 180.393 66.848 180.393C66.573 181.344 57.841 211.838 56.293 215.89C56.072 216.47 55.857 216.977 55.664 217.427Z" fill="url(#paint1_linear_101_366)"/>
<path d="M127.576 215.651C127.606 216.328 127.028 216.861 126.351 216.762C122.539 216.199 111.223 214.624 105.957 214.761C102.312 214.86 95.517 214.692 89.01 214.791C85.015 214.852 81.134 215.004 78.166 215.385C77.489 215.469 76.865 215.568 76.294 215.674C66.927 217.47 65.831 216.275 65.831 216.275C65.412 216.07 65.184 215.621 65.253 215.156C65.329 214.669 65.398 214.06 65.466 213.353C67.635 213.688 71.752 213.871 78.281 212.417C78.532 212.364 78.783 212.311 79.042 212.25C81.523 211.664 84.84 211.276 88.623 211.055C100.745 210.347 117.684 211.42 127.493 213.658L127.576 215.651Z" fill="#9CCBF7"/>
<path d="M127.49 213.653C114.626 210.719 89.473 209.793 79.039 212.246C72.072 213.885 67.716 213.705 65.464 213.353C66.298 204.726 66.834 181.293 66.848 180.391C66.848 180.391 68.558 142.902 67.434 132.732C66.678 125.847 65.177 118.93 64.277 115.173C64.389 115 64.505 114.881 64.596 114.827C65.475 114.327 75.269 110.805 80.377 108.968C81.022 113.288 83.988 124.755 97.21 126.125C109.512 127.401 113.221 114.864 114.3 108.588L128.1 116.104C128.194 116.155 128.277 116.209 128.349 116.283C127.096 118.33 124.904 122.864 123.431 130.978C121.362 142.398 125.988 180.583 126.224 185.798L127.49 213.653Z" fill="url(#paint2_linear_101_366)"/>
<path d="M152.926 218.244C149.862 219.097 141.123 220.299 138.451 220.654C138.003 220.713 137.584 220.433 137.463 219.986C137.303 219.405 137.143 218.824 136.989 218.246C143.979 217.01 153.033 215.373 153.033 215.373L153.544 217.107C153.694 217.596 153.414 218.111 152.926 218.244Z" fill="#9CCBF7"/>
<path d="M111.637 107.144C111.596 107.632 111.527 108.235 111.429 108.907C111.305 109.77 111.124 110.757 110.86 111.798C109.765 116.194 107.271 121.591 101.592 123.116C100.14 123.502 98.484 123.641 96.591 123.444C95.416 123.32 94.338 123.119 93.349 122.838C87.417 121.179 84.734 116.99 83.532 113.297C83.219 112.323 83.006 111.384 82.863 110.543C82.703 109.626 82.631 108.821 82.599 108.175C82.69 108.15 82.765 108.118 82.841 108.093C83.203 107.962 83.592 108.006 83.903 108.234C85.002 108.983 88.386 110.69 96.627 110.61C105.09 110.532 108.916 108.246 110.23 107.194C110.611 106.903 111.12 106.86 111.537 107.086L111.637 107.144Z" fill="#73B2E5"/>
<path d="M97.21 126.126C83.988 124.756 81.022 113.289 80.377 108.969C81.298 108.647 82.063 108.371 82.601 108.179C82.796 112.037 84.487 122.186 96.589 123.448C109.031 124.739 111.247 111.649 111.64 107.14L114.3 108.589C113.221 114.864 109.512 127.402 97.21 126.126Z" fill="#9CCBF7"/>
<path d="M110.863 111.795C107.932 113.231 102.986 115.104 96.781 115.329C90.825 115.542 86.28 114.341 83.531 113.294C83.218 112.326 83.002 111.386 82.865 110.54C84.969 111.513 89.844 113.301 96.698 113.048C103.797 112.79 109.225 110.157 111.431 108.906C111.305 109.775 111.124 110.759 110.863 111.795Z" fill="#4D8EBA"/>
<path d="M101.592 123.116C100.14 123.502 98.484 123.641 96.591 123.444C95.416 123.32 94.338 123.119 93.349 122.838L93.257 119.08C93.251 118.837 93.444 118.642 93.688 118.636L101.036 118.448C101.279 118.442 101.474 118.635 101.48 118.871L101.592 123.116Z" fill="white"/>
<path d="M128.381 116.304C126.894 118.838 125.888 121.622 125.076 124.436C124.675 125.847 124.336 127.275 124.038 128.711C123.885 129.428 123.757 130.15 123.625 130.872C123.521 131.596 123.448 132.322 123.357 133.046C123.127 135.961 123.09 138.899 123.178 141.833C123.236 144.767 123.395 147.701 123.575 150.632C123.947 156.495 124.509 162.344 124.985 168.202C125.422 174.063 126.027 179.912 126.261 185.798L126.185 185.801C125.519 179.962 124.803 174.124 124.228 168.27C123.652 162.416 123.259 156.544 122.968 150.666C122.826 147.727 122.704 144.786 122.685 141.841C122.634 138.898 122.709 135.947 122.98 133.007C123.084 132.274 123.172 131.539 123.289 130.81C123.434 130.088 123.575 129.365 123.742 128.647C124.066 127.21 124.431 125.782 124.858 124.372C125.722 121.561 126.78 118.783 128.317 116.265L128.381 116.304Z" fill="#4D8EBA"/>
<path d="M66.81 180.39C66.832 174.925 66.979 169.467 67.077 164.007C67.191 158.549 67.408 153.093 67.495 147.636C67.531 144.908 67.56 142.178 67.52 139.452C67.497 136.722 67.4 134.005 67.073 131.298C66.441 125.882 65.45 120.505 64.239 115.182L64.313 115.164C65.623 120.467 66.715 125.829 67.45 131.251C67.817 133.964 67.953 136.712 68.014 139.441C68.093 142.175 68.101 144.907 68.103 147.64C68.098 153.105 68.051 158.57 67.837 164.029C67.601 169.487 67.342 174.945 66.885 180.392L66.81 180.39Z" fill="#4D8EBA"/>
<path opacity="0.1" d="M89.011 214.791C85.016 214.852 81.135 215.004 78.167 215.385C78.205 214.396 78.243 213.407 78.281 212.417C78.867 198.172 79.445 183.919 80.024 169.674C80.07 168.677 80.123 167.619 80.671 166.782C81.211 165.937 82.421 165.443 83.251 166.006C83.921 166.47 84.058 167.383 84.149 168.19C85.641 182.473 87.132 196.764 88.624 211.055C88.752 212.302 88.881 213.543 89.011 214.791Z" fill="url(#paint3_linear_101_366)"/>
<path d="M111.694 132.329L112.419 133.799C112.428 133.818 112.446 133.831 112.467 133.834L114.089 134.07C114.141 134.078 114.162 134.142 114.124 134.179L112.95 135.323C112.935 135.338 112.928 135.359 112.932 135.38L113.209 136.995C113.218 137.047 113.163 137.087 113.116 137.062L111.665 136.299C111.646 136.289 111.624 136.289 111.605 136.299L110.154 137.062C110.107 137.087 110.052 137.047 110.061 136.995L110.338 135.38C110.341 135.359 110.335 135.338 110.32 135.323L109.146 134.179C109.108 134.142 109.129 134.078 109.181 134.07L110.803 133.834C110.824 133.831 110.842 133.818 110.851 133.799L111.576 132.329C111.603 132.281 111.671 132.281 111.694 132.329Z" fill="white"/>
<defs>
<linearGradient id="paint0_linear_101_366" x1="138.027" y1="218.247" x2="138.027" y2="116.284" gradientUnits="userSpaceOnUse">
<stop stop-color="#73B2E5"/>
<stop offset="0.9918" stop-color="#BDE0FF"/>
</linearGradient>
<linearGradient id="paint1_linear_101_366" x1="52.6074" y1="217.427" x2="52.6074" y2="115.174" gradientUnits="userSpaceOnUse">
<stop stop-color="#73B2E5"/>
<stop offset="0.9918" stop-color="#BDE0FF"/>
</linearGradient>
<linearGradient id="paint2_linear_101_366" x1="96.3125" y1="213.653" x2="96.3125" y2="108.589" gradientUnits="userSpaceOnUse">
<stop stop-color="#BBE0FF"/>
<stop offset="1" stop-color="#D2E8FF"/>
</linearGradient>
<linearGradient id="paint3_linear_101_366" x1="83.5888" y1="215.384" x2="83.5888" y2="165.765" gradientUnits="userSpaceOnUse">
<stop stop-color="#73B2E5"/>
<stop offset="0.9918" stop-color="#BDE0FF" stop-opacity="0"/>
</linearGradient>
</defs>
</svg>
