<svg width="554" height="564" viewBox="0 0 554 564" fill="none" xmlns="http://www.w3.org/2000/svg">
<path d="M234.658 0.540637C159.672 1.86514 43.6547 30.376 10.2605 103.644C-1.40286 129.234 -0.613225 166.854 0.965842 242.093C1.43013 264.208 2.19966 296.441 7.60484 336.435C18.833 419.515 26.4766 476.072 55.4055 509.005C127.892 591.524 389.732 589.14 501.546 440.579C562.54 359.537 571.924 244.253 516.151 148.977C454.747 44.0797 335.047 -1.23267 234.658 0.540637Z" fill="#F4F7FA"/>
<path d="M43.9314 382.658C29.9122 383.158 18.4347 372.135 18.4347 358.081V90.3488C18.4347 76.2953 29.9122 65.3538 43.9314 65.9552L489.069 85.0474C500.089 85.5199 509.004 95.9525 509.004 108.305V343.641C509.004 355.994 500.089 366.363 489.069 366.757L43.9314 382.658Z" fill="url(#paint0_linear_107_796)"/>
<path d="M489.069 92.3507L43.9314 74.1658C34.7459 73.7906 27.269 81.1798 27.269 90.6721V357.821C27.269 367.314 34.7461 374.756 43.9314 374.447L489.069 359.453C496.306 359.209 502.151 352.221 502.151 343.843V108.055C502.151 99.6766 496.306 92.6463 489.069 92.3507Z" fill="url(#paint1_linear_107_796)"/>
<path d="M488.948 92.3507L43.8105 74.1658C34.6251 73.7906 27.1482 81.1798 27.1482 90.6723V357.821C27.1482 367.314 34.6253 374.757 43.8105 374.447L488.948 359.453C496.185 359.21 502.03 352.221 502.03 343.843V108.055C502.03 99.6766 496.185 92.6463 488.948 92.3507Z" fill="url(#paint2_linear_107_796)"/>
<mask id="mask0_107_796" style="mask-type:luminance" maskUnits="userSpaceOnUse" x="27" y="74" width="476" height="301">
<path d="M488.948 92.3507L43.8105 74.1658C34.6251 73.7906 27.1482 81.1798 27.1482 90.6723V357.821C27.1482 367.314 34.6253 374.757 43.8105 374.447L488.948 359.453C496.185 359.21 502.03 352.221 502.03 343.843V108.055C502.03 99.6766 496.185 92.6463 488.948 92.3507Z" fill="white"/>
</mask>
<g mask="url(#mask0_107_796)">
<path d="M-79.3452 455.549L-80.7429 454.616L224.753 74.2139L225.968 75.1435L-79.3452 455.549Z" fill="url(#paint3_linear_107_796)"/>
<path d="M72.8684 421.266L71.3804 420.627L245.448 71.1774L246.804 71.8665L72.8684 421.266Z" fill="url(#paint4_linear_107_796)"/>
<path d="M216.829 402.38L215.295 402.178L266.183 70.2138L267.65 70.5106L216.829 402.38Z" fill="url(#paint5_linear_107_796)"/>
<path d="M351.287 397.813L286.9 71.2576L288.342 71.0748L352.72 397.518L351.287 397.813Z" fill="url(#paint6_linear_107_796)"/>
<path d="M479.609 406.247L307.482 74.1926L308.772 73.6137L480.823 405.568L479.609 406.247Z" fill="url(#paint7_linear_107_796)"/>
<path d="M600.482 426.456L327.77 78.9551L328.891 78.1331L601.48 425.56L600.482 426.456Z" fill="url(#paint8_linear_107_796)"/>
<path d="M570.006 156.69L-35.242 143.842L-35.2466 142.293L569.948 155.334L570.006 156.69Z" fill="url(#paint9_linear_107_796)"/>
<path d="M567.615 100.595L-35.4328 79.8139L-35.4374 78.2777L567.558 99.2483L567.615 100.595Z" fill="url(#paint10_linear_107_796)"/>
<path d="M573.085 228.934L-34.9956 226.402L-35.0002 224.836L573.027 227.565L573.085 228.934Z" fill="url(#paint11_linear_107_796)"/>
<path d="M576.194 301.865L-34.7467 309.86L-34.7515 308.277L576.135 300.483L576.194 301.865Z" fill="url(#paint12_linear_107_796)"/>
<path d="M579.332 375.493L-34.4951 394.232L-34.4998 392.631L579.272 374.097L579.332 375.493Z" fill="url(#paint13_linear_107_796)"/>
<path d="M507.052 319.673L387.394 321.702L358.419 294.55L294.636 295.239L262.637 295.585L196.086 296.305L165.945 325.458L26.4619 327.823L21.7524 387.685L264.531 380.563L296.692 379.619L513.241 373.267L507.052 319.673Z" fill="url(#paint14_linear_107_796)"/>
<path opacity="0.5" d="M507.053 319.673L387.422 321.702L358.454 294.549L294.686 295.239L262.694 295.584L196.159 296.304L166.025 325.457L26.5757 327.822L21.8679 387.682L264.588 380.562L296.742 379.618L513.241 373.267L507.053 319.673Z" fill="url(#paint15_linear_107_796)"/>
<path d="M244.437 328.255C244.628 337.349 237.258 344.891 227.94 345.092C218.584 345.293 210.83 338.022 210.658 328.86C210.485 319.71 217.943 312.191 227.28 312.057C236.58 311.924 244.246 319.172 244.437 328.255Z" fill="url(#paint16_linear_107_796)"/>
<path d="M353.048 326.31C353.297 335.186 346.329 342.543 337.451 342.734C328.538 342.926 321.097 335.827 320.865 326.886C320.632 317.956 327.682 310.621 336.579 310.493C345.44 310.366 352.799 317.444 353.048 326.31Z" fill="url(#paint17_linear_107_796)"/>
<path d="M265.504 331.479C265.556 333.811 263.682 335.739 261.314 335.785C258.944 335.832 256.98 333.976 256.929 331.639C256.878 329.304 258.758 327.377 261.127 327.335C263.493 327.293 265.452 329.148 265.504 331.479Z" fill="url(#paint18_linear_107_796)"/>
<path d="M285.804 331.099C285.859 333.42 284.004 335.34 281.658 335.386C279.309 335.432 277.359 333.584 277.305 331.258C277.252 328.933 279.113 327.015 281.46 326.973C283.805 326.932 285.749 328.779 285.804 331.099Z" fill="url(#paint19_linear_107_796)"/>
<path d="M305.923 330.723C305.981 333.033 304.145 334.944 301.819 334.99C299.491 335.035 297.557 333.195 297.5 330.88C297.443 328.566 299.285 326.656 301.612 326.615C303.936 326.574 305.866 328.413 305.923 330.723Z" fill="url(#paint20_linear_107_796)"/>
<path d="M307.549 319.197C307.572 320.113 306.752 320.869 305.831 320.884L258.168 321.67C257.227 321.686 256.359 320.948 256.339 320.021L256.331 319.649C256.311 318.723 257.099 317.961 258.04 317.946L305.718 317.198C306.639 317.184 307.517 317.914 307.54 318.829L307.549 319.197Z" fill="url(#paint21_linear_107_796)"/>
<path d="M176.627 344.675C176.694 348.667 173.402 351.981 169.268 352.075L60.3035 354.556C55.9651 354.655 52.4138 351.409 52.3784 347.309C52.3431 343.211 55.834 339.821 60.1684 339.736L169.034 337.598C173.164 337.517 176.561 340.684 176.627 344.675Z" fill="url(#paint22_linear_107_796)"/>
<path d="M412.088 334.713C412.144 336.456 410.814 337.901 409.102 337.936L408.712 337.941C406.999 337.977 405.351 336.592 405.297 334.846L405.291 334.666C405.236 332.921 406.8 331.479 408.512 331.446L408.787 331.44C410.498 331.407 412.027 332.79 412.082 334.533L412.088 334.713Z" fill="url(#paint23_linear_107_796)"/>
<path d="M427.182 334.423C427.239 336.161 425.777 337.597 424.077 337.632L423.737 337.639C422.036 337.674 420.446 336.296 420.389 334.556L420.383 334.376C420.327 332.637 421.759 331.196 423.46 331.164L423.816 331.159C425.516 331.127 427.119 332.507 427.176 334.244L427.182 334.423Z" fill="url(#paint24_linear_107_796)"/>
<path d="M441.521 334.274C441.58 336.005 440.24 337.284 438.55 337.284H438.472C436.781 337.284 435.541 336.129 435.483 334.396L435.477 334.141C435.419 332.407 436.67 330.942 438.359 330.909L438.444 330.888C440.132 330.855 441.457 332.298 441.515 334.029L441.521 334.274Z" fill="url(#paint25_linear_107_796)"/>
<path d="M460.272 351.903L456.494 351.992L455.749 330.547L459.523 330.477L460.272 351.903Z" fill="url(#paint26_linear_107_796)"/>
<path d="M467.828 351.69L464.806 351.778L464.051 330.375L467.069 330.305L467.828 351.69Z" fill="url(#paint27_linear_107_796)"/>
<path d="M476.141 351.501L472.363 351.589L471.598 330.227L475.372 330.156L476.141 351.501Z" fill="url(#paint28_linear_107_796)"/>
<path d="M484.455 351.301L480.676 351.389L479.902 330.068L483.676 329.998L484.455 351.301Z" fill="url(#paint29_linear_107_796)"/>
<path d="M492.013 351.111L488.99 351.201L488.206 329.919L491.225 329.847L492.013 351.111Z" fill="url(#paint30_linear_107_796)"/>
<path opacity="0.5" d="M111.307 133.757C111.49 148.27 99.1028 159.786 83.5467 159.451C67.8876 159.115 55.0107 146.914 54.88 132.228C54.7497 117.571 67.3718 106.125 82.9785 106.635C98.4828 107.142 111.125 119.272 111.307 133.757Z" fill="url(#paint31_linear_107_796)"/>
<path d="M112.987 208.648L49.9752 207.954L49.8184 189.56L99.9085 190.307L112.987 208.648Z" fill="url(#paint32_linear_107_796)"/>
<path d="M113.438 244.322L50.2836 244.104L50.126 225.623L100.33 225.993L113.438 244.322Z" fill="url(#paint33_linear_107_796)"/>
</g>
<path opacity="0.7" d="M424.909 140.65C428.237 140.65 430.934 137.953 430.934 134.625C430.934 131.297 428.237 128.599 424.909 128.599C421.581 128.599 418.883 131.297 418.883 134.625C418.883 137.953 421.581 140.65 424.909 140.65Z" fill="url(#paint34_linear_107_796)"/>
<path opacity="0.7" d="M42.3292 280.334C45.657 280.334 48.3547 277.636 48.3547 274.309C48.3547 270.981 45.657 268.283 42.3292 268.283C39.0014 268.283 36.3037 270.981 36.3037 274.309C36.3037 277.636 39.0014 280.334 42.3292 280.334Z" fill="url(#paint35_linear_107_796)"/>
<path opacity="0.7" d="M443.525 124.504C445.489 124.504 447.081 122.912 447.081 120.948C447.081 118.984 445.489 117.392 443.525 117.392C441.561 117.392 439.969 118.984 439.969 120.948C439.969 122.912 441.561 124.504 443.525 124.504Z" fill="url(#paint36_linear_107_796)"/>
<path opacity="0.7" d="M482.987 240.983C484.951 240.983 486.543 239.391 486.543 237.427C486.543 235.463 484.951 233.871 482.987 233.871C481.023 233.871 479.431 235.463 479.431 237.427C479.431 239.391 481.023 240.983 482.987 240.983Z" fill="url(#paint37_linear_107_796)"/>
<path opacity="0.7" d="M156.309 113.674C158.273 113.674 159.865 112.082 159.865 110.118C159.865 108.154 158.273 106.562 156.309 106.562C154.345 106.562 152.753 108.154 152.753 110.118C152.753 112.082 154.345 113.674 156.309 113.674Z" fill="url(#paint38_linear_107_796)"/>
<path opacity="0.7" d="M128.438 254.032C130.402 254.032 131.994 252.44 131.994 250.476C131.994 248.512 130.402 246.92 128.438 246.92C126.474 246.92 124.882 248.512 124.882 250.476C124.882 252.44 126.474 254.032 128.438 254.032Z" fill="url(#paint39_linear_107_796)"/>
<path opacity="0.7" d="M102.931 286.111C105.566 286.111 107.702 283.975 107.702 281.34C107.702 278.705 105.566 276.568 102.931 276.568C100.295 276.568 98.1592 278.705 98.1592 281.34C98.1592 283.975 100.295 286.111 102.931 286.111Z" fill="url(#paint40_linear_107_796)"/>
<path d="M49.4621 382.658C35.4429 383.158 23.9653 372.135 23.9653 358.081V90.3488C23.9653 76.2953 35.4429 65.3538 49.4621 65.9552L494.599 85.0474C505.619 85.5199 514.535 95.9525 514.535 108.305V343.641C514.535 355.994 505.619 366.363 494.599 366.757L49.4621 382.658Z" fill="url(#paint41_linear_107_796)"/>
<path d="M494.6 92.3507L49.462 74.1658C40.2766 73.7906 32.7997 81.1798 32.7997 90.6721V357.821C32.7997 367.314 40.2768 374.756 49.462 374.447L494.6 359.453C501.836 359.209 507.681 352.221 507.681 343.843V108.055C507.681 99.6766 501.836 92.6463 494.6 92.3507Z" fill="url(#paint42_linear_107_796)"/>
<mask id="mask1_107_796" style="mask-type:luminance" maskUnits="userSpaceOnUse" x="32" y="74" width="476" height="301">
<path d="M494.479 92.3507L49.3412 74.1658C40.1557 73.7906 32.6788 81.1798 32.6788 90.6723V357.821C32.6788 367.314 40.1559 374.757 49.3412 374.447L494.479 359.453C501.715 359.21 507.56 352.221 507.56 343.843V108.055C507.56 99.6766 501.715 92.6463 494.479 92.3507Z" fill="white"/>
</mask>
<g mask="url(#mask1_107_796)">
<path d="M-73.8148 455.549L-75.2123 454.616L230.284 74.2139L231.499 75.1435L-73.8148 455.549Z" fill="white"/>
<path d="M78.3989 421.266L76.9108 420.627L250.978 71.1774L252.335 71.8665L78.3989 421.266Z" fill="white"/>
<path d="M222.36 402.38L220.825 402.178L271.714 70.2138L273.181 70.5106L222.36 402.38Z" fill="white"/>
<path d="M356.817 397.813L292.43 71.2576L293.873 71.0748L358.251 397.518L356.817 397.813Z" fill="white"/>
<path d="M485.139 406.247L313.012 74.1926L314.302 73.6137L486.354 405.568L485.139 406.247Z" fill="white"/>
<path d="M606.013 426.456L333.3 78.9551L334.421 78.1331L607.01 425.56L606.013 426.456Z" fill="white"/>
<path d="M575.537 156.69L-29.7113 143.842L-29.7159 142.293L575.479 155.334L575.537 156.69Z" fill="white"/>
<path d="M573.146 100.595L-29.9023 79.8139L-29.9067 78.2777L573.088 99.2483L573.146 100.595Z" fill="white"/>
<path d="M578.616 228.934L-29.465 226.402L-29.4696 224.836L578.557 227.565L578.616 228.934Z" fill="white"/>
<path d="M581.724 301.865L-29.2161 309.86L-29.2209 308.277L581.665 300.483L581.724 301.865Z" fill="white"/>
<path d="M584.862 375.493L-28.9645 394.232L-28.9691 392.631L584.803 374.097L584.862 375.493Z" fill="white"/>
<path d="M512.583 319.673L392.924 321.702L363.95 294.55L300.167 295.239L268.167 295.585L201.616 296.305L171.475 325.458L31.9925 327.823L27.2831 387.685L270.061 380.563L302.223 379.619L518.772 373.267L512.583 319.673Z" fill="url(#paint43_linear_107_796)"/>
<path opacity="0.5" d="M512.584 319.673L392.953 321.702L363.984 294.549L300.217 295.239L268.224 295.584L201.689 296.304L171.556 325.457L32.1063 327.822L27.3985 387.682L270.118 380.562L302.273 379.618L518.772 373.267L512.584 319.673Z" fill="url(#paint44_linear_107_796)"/>
<path d="M249.967 328.255C250.159 337.349 242.788 344.891 233.47 345.092C224.114 345.293 216.361 338.022 216.188 328.86C216.015 319.71 223.473 312.191 232.811 312.057C242.11 311.924 249.776 319.172 249.967 328.255Z" fill="url(#paint45_linear_107_796)"/>
<path d="M358.579 326.31C358.828 335.186 351.859 342.543 342.982 342.734C334.068 342.926 326.628 335.827 326.395 326.886C326.163 317.956 333.213 310.621 342.109 310.493C350.97 310.366 358.33 317.444 358.579 326.31Z" fill="url(#paint46_linear_107_796)"/>
<path d="M271.035 331.479C271.087 333.811 269.212 335.739 266.845 335.785C264.475 335.832 262.511 333.976 262.459 331.639C262.408 329.304 264.289 327.377 266.658 327.335C269.024 327.293 270.983 329.148 271.035 331.479Z" fill="url(#paint47_linear_107_796)"/>
<path d="M291.335 331.099C291.39 333.42 289.534 335.34 287.188 335.386C284.839 335.432 282.89 333.584 282.836 331.258C282.782 328.933 284.643 327.015 286.991 326.973C289.336 326.932 291.28 328.779 291.335 331.099Z" fill="url(#paint48_linear_107_796)"/>
<path d="M311.454 330.723C311.512 333.033 309.675 334.944 307.35 334.99C305.022 335.035 303.087 333.195 303.031 330.88C302.974 328.566 304.816 326.656 307.142 326.615C309.467 326.574 311.396 328.413 311.454 330.723Z" fill="url(#paint49_linear_107_796)"/>
<path d="M313.079 319.197C313.102 320.113 312.283 320.869 311.361 320.884L263.698 321.67C262.757 321.686 261.89 320.948 261.869 320.021L261.861 319.649C261.841 318.723 262.629 317.961 263.57 317.946L311.248 317.198C312.169 317.184 313.047 317.914 313.07 318.829L313.079 319.197Z" fill="url(#paint50_linear_107_796)"/>
<path d="M182.158 344.675C182.224 348.667 178.933 351.981 174.799 352.075L65.8342 354.556C61.4957 354.655 57.9445 351.409 57.9091 347.309C57.8737 343.211 61.3646 339.821 65.6991 339.736L174.565 337.598C178.695 337.517 182.091 340.684 182.158 344.675Z" fill="url(#paint51_linear_107_796)"/>
<path d="M417.619 334.713C417.674 336.456 416.345 337.901 414.633 337.936L414.243 337.941C412.53 337.977 410.882 336.592 410.827 334.846L410.822 334.666C410.767 332.921 412.33 331.479 414.043 331.446L414.318 331.44C416.029 331.407 417.557 332.79 417.613 334.533L417.619 334.713Z" fill="url(#paint52_linear_107_796)"/>
<path d="M432.712 334.423C432.769 336.161 431.307 337.597 429.607 337.632L429.268 337.639C427.566 337.674 425.976 336.296 425.92 334.556L425.914 334.376C425.858 332.637 427.29 331.196 428.991 331.164L429.347 331.159C431.046 331.127 432.649 332.507 432.707 334.244L432.712 334.423Z" fill="url(#paint53_linear_107_796)"/>
<path d="M447.052 334.274C447.11 336.005 445.771 337.284 444.081 337.284H444.003C442.312 337.284 441.072 336.129 441.014 334.396L441.008 334.141C440.95 332.407 442.2 330.942 443.89 330.909L443.974 330.888C445.662 330.855 446.987 332.298 447.046 334.029L447.052 334.274Z" fill="url(#paint54_linear_107_796)"/>
<path d="M465.803 351.903L462.024 351.992L461.279 330.547L465.053 330.477L465.803 351.903Z" fill="url(#paint55_linear_107_796)"/>
<path d="M473.358 351.69L470.336 351.778L469.581 330.375L472.6 330.305L473.358 351.69Z" fill="url(#paint56_linear_107_796)"/>
<path d="M481.672 351.501L477.893 351.589L477.129 330.227L480.903 330.156L481.672 351.501Z" fill="url(#paint57_linear_107_796)"/>
<path d="M489.985 351.301L486.206 351.389L485.432 330.068L489.207 329.998L489.985 351.301Z" fill="url(#paint58_linear_107_796)"/>
<path d="M497.543 351.111L494.521 351.201L493.736 329.919L496.756 329.847L497.543 351.111Z" fill="url(#paint59_linear_107_796)"/>
<path opacity="0.5" d="M116.838 133.757C117.021 148.27 104.633 159.786 89.0774 159.451C73.4183 159.115 60.5414 146.914 60.4107 132.228C60.2804 117.571 72.9023 106.125 88.5092 106.635C104.014 107.142 116.655 119.272 116.838 133.757Z" fill="url(#paint60_linear_107_796)"/>
<path d="M118.518 208.648L55.5058 207.954L55.349 189.56L105.439 190.307L118.518 208.648Z" fill="url(#paint61_linear_107_796)"/>
<path d="M118.969 247.779L55.8143 247.561L55.6566 229.08L105.86 229.449L118.969 247.779Z" fill="url(#paint62_linear_107_796)"/>
</g>
<path opacity="0.7" d="M430.44 140.65C433.767 140.65 436.465 137.953 436.465 134.625C436.465 131.297 433.767 128.599 430.44 128.599C427.112 128.599 424.414 131.297 424.414 134.625C424.414 137.953 427.112 140.65 430.44 140.65Z" fill="white"/>
<path opacity="0.7" d="M47.8599 280.334C51.1877 280.334 53.8854 277.636 53.8854 274.309C53.8854 270.981 51.1877 268.283 47.8599 268.283C44.5321 268.283 41.8344 270.981 41.8344 274.309C41.8344 277.636 44.5321 280.334 47.8599 280.334Z" fill="white"/>
<path opacity="0.7" d="M449.055 124.504C451.019 124.504 452.611 122.912 452.611 120.948C452.611 118.984 451.019 117.392 449.055 117.392C447.091 117.392 445.499 118.984 445.499 120.948C445.499 122.912 447.091 124.504 449.055 124.504Z" fill="white"/>
<path opacity="0.7" d="M492.043 237.996C492.357 236.057 491.041 234.23 489.102 233.916C487.163 233.601 485.337 234.918 485.022 236.856C484.708 238.795 486.024 240.622 487.963 240.936C489.901 241.251 491.728 239.934 492.043 237.996Z" fill="white"/>
<path opacity="0.7" d="M165.302 110.957C165.754 109.046 164.57 107.131 162.659 106.679C160.747 106.228 158.832 107.411 158.381 109.323C157.929 111.234 159.113 113.149 161.024 113.601C162.936 114.052 164.851 112.868 165.302 110.957Z" fill="white"/>
<path opacity="0.7" d="M133.969 254.032C135.933 254.032 137.525 252.44 137.525 250.476C137.525 248.512 135.933 246.92 133.969 246.92C132.005 246.92 130.413 248.512 130.413 250.476C130.413 252.44 132.005 254.032 133.969 254.032Z" fill="white"/>
<path opacity="0.7" d="M108.461 286.111C111.096 286.111 113.232 283.975 113.232 281.34C113.232 278.705 111.096 276.568 108.461 276.568C105.826 276.568 103.69 278.705 103.69 281.34C103.69 283.975 105.826 286.111 108.461 286.111Z" fill="white"/>
<path d="M136.709 448.569C136.669 448.621 136.626 448.676 136.589 448.73C131.416 455.506 129.492 463.75 130.571 471.588C131.63 479.304 135.596 486.629 142.247 491.768C146.052 494.709 150.324 496.614 154.737 497.538C154.737 497.544 154.74 497.541 154.74 497.541C163.696 499.422 173.207 497.234 180.474 491.335C182.288 489.861 183.961 488.16 185.45 486.233C187.421 483.682 188.928 480.919 189.989 478.049C191.728 473.327 192.256 468.306 191.622 463.431C190.613 455.631 186.624 448.215 179.911 443.028C173.228 437.863 165.092 435.873 157.318 436.834C152.067 437.478 146.985 439.468 142.629 442.728C140.449 444.36 138.454 446.31 136.709 448.569Z" fill="url(#paint63_linear_107_796)"/>
<path opacity="0.2" d="M136.709 448.569C136.669 448.621 136.626 448.676 136.589 448.73C137.102 449.443 137.755 450.217 138.553 451.058C146.672 459.583 155.134 459.377 160.864 472.108C165.748 482.96 173.01 492.11 180.474 491.335C182.288 489.861 183.961 488.16 185.45 486.233C187.421 483.682 188.928 480.919 189.989 478.049C185.353 478.426 176.735 478.129 172.7 471.565C167.027 462.34 166.926 456.205 154.636 450.17C146.72 446.279 143.604 444.722 142.629 442.728C140.449 444.36 138.454 446.31 136.709 448.569Z" fill="url(#paint64_linear_107_796)"/>
<path opacity="0.2" d="M130.57 471.588C131.63 479.304 135.596 486.628 142.247 491.768C146.052 494.708 150.323 496.614 154.737 497.538C153.922 496.805 153.194 495.941 152.57 494.929C146.897 485.704 146.795 479.569 134.505 473.534C133.031 472.81 131.725 472.169 130.57 471.588Z" fill="url(#paint65_linear_107_796)"/>
<path opacity="0.2" d="M157.317 436.834C158.721 438.988 161.317 441.176 165.61 442.905C176.827 447.422 179.341 457.149 187.892 462.2C189.336 463.051 190.569 463.417 191.621 463.431C190.613 455.631 186.624 448.215 179.911 443.028C173.228 437.863 165.092 435.873 157.317 436.834Z" fill="url(#paint66_linear_107_796)"/>
<path d="M114.81 430.209C110.406 435.908 117.082 448.965 130.536 463.212C136.135 469.142 142.905 475.277 150.537 481.174C158.114 487.029 165.704 492.002 172.806 495.913C190.055 505.402 204.447 508.609 208.866 502.891C210.428 500.87 210.598 497.93 209.57 494.338C207.6 487.465 201.239 478.217 191.825 468.514C191.82 468.816 191.806 469.122 191.787 469.423C199.664 478.536 203.302 486.588 200.424 490.311C197.974 493.483 191.299 492.881 182.707 489.339C175.412 486.349 166.736 481.238 158.084 474.551C147.748 466.564 139.593 457.979 135.075 450.892C131.356 445.039 130.11 440.205 132.157 437.557C134.632 434.354 141.414 435.007 150.134 438.637C150.628 438.447 151.118 438.276 151.619 438.119C151.819 438.055 152.016 437.994 152.216 437.937C134.377 427.861 119.347 424.337 114.81 430.209Z" fill="url(#paint67_linear_107_796)"/>
<path opacity="0.2" d="M114.81 430.209C110.406 435.908 117.082 448.965 130.536 463.212C136.135 469.142 142.905 475.277 150.537 481.174C158.114 487.029 165.704 492.002 172.806 495.913C190.055 505.402 204.447 508.609 208.866 502.891C210.428 500.87 210.598 497.93 209.57 494.338C208.229 496.597 206.249 498.274 203.357 497.591C196.113 495.885 195.624 494.012 189.599 497.598C183.575 501.183 169.61 491.232 164.891 485.25C160.172 479.269 156.392 473.753 146.334 470.651C136.276 467.549 125.82 457.912 126.95 450.742C128.08 443.572 124.953 437.544 120.934 434.687C116.914 431.83 124.033 427.99 130.147 431.158C136.262 434.326 142.262 433.499 145.699 434.873C147.174 435.463 149.473 436.792 151.619 438.119C151.818 438.055 152.016 437.995 152.216 437.937C134.377 427.861 119.347 424.337 114.81 430.209Z" fill="url(#paint68_linear_107_796)"/>
<path d="M376.382 50.3556C376.363 50.3948 376.344 50.4364 376.323 50.4746C376.145 50.8486 375.96 51.2132 375.762 51.5693C375.566 51.9256 375.36 52.2749 375.145 52.6135C372.645 56.5703 368.932 59.417 364.733 60.8943C364.128 61.107 363.512 61.2912 362.889 61.4477C362.577 61.5259 362.264 61.5944 361.947 61.6584C357.844 62.4838 353.445 62.0646 349.367 60.1543C346.496 58.8093 344.056 56.9544 342.207 54.5935L342.205 54.5923C339.476 51.0175 337.833 46.8395 337.682 42.4273C337.675 42.2421 337.673 42.0557 337.671 41.8691C337.659 40.4523 337.805 39.0107 338.104 37.5933C338.237 36.9589 338.403 36.3247 338.601 35.6972C338.801 35.0672 339.03 34.4425 339.293 33.8239C339.39 33.5913 339.494 33.356 339.601 33.128C340.383 31.4583 341.364 29.9447 342.502 28.6027C342.675 28.3972 342.851 28.1952 343.032 27.9993C345.277 25.5558 348.064 23.7306 351.113 22.6329C355.992 20.8731 361.543 20.9771 366.609 23.3502C371.652 25.7128 375.271 29.884 377.051 34.7332C378.256 38.0066 378.621 41.5862 378.023 45.1237C377.983 45.3562 377.94 45.5874 377.891 45.8186C377.693 46.7782 377.425 47.7321 377.08 48.6736C376.942 49.0514 376.794 49.4246 376.634 49.7982C376.553 49.9842 376.469 50.1694 376.382 50.3556Z" fill="url(#paint69_linear_107_796)"/>
<path opacity="0.3" d="M376.382 50.3555C376.363 50.3947 376.344 50.4364 376.323 50.4746C376.145 50.8486 375.96 51.2131 375.763 51.5692C375.566 51.9256 375.358 52.2736 375.143 52.6122C367.662 50.1931 365.024 44.7117 355.09 45.7955C347.852 46.5847 340.9 45.7947 337.682 42.4272C337.675 42.242 337.673 42.0556 337.671 41.869C337.659 40.4522 337.805 39.0107 338.104 37.5933C338.237 36.9589 338.403 36.3247 338.601 35.6971C338.801 35.0672 339.03 34.4424 339.293 33.8239C339.39 33.5913 339.494 33.356 339.601 33.128C340.383 31.4582 341.364 29.9447 342.502 28.6027C343.796 32.0434 346.601 37.1485 351.863 37.3086C359.823 37.5545 364.003 35.1536 371.814 41.3034C374.628 43.5183 376.496 44.9797 377.882 45.8142C377.688 46.7762 377.421 47.7301 377.08 48.6737C376.942 49.0516 376.794 49.4247 376.634 49.7984C376.553 49.9841 376.469 50.1693 376.382 50.3555Z" fill="url(#paint70_linear_107_796)"/>
<path opacity="0.3" d="M364.733 60.8942C359.889 62.5986 354.398 62.481 349.379 60.1297C346.508 58.7847 344.103 56.8538 342.23 54.5444C342.906 54.801 343.632 54.9677 344.414 55.0288C351.534 55.5747 355.162 53.7851 362.406 59.173C363.275 59.8195 364.044 60.3922 364.733 60.8942Z" fill="url(#paint71_linear_107_796)"/>
<path opacity="0.3" d="M377.051 34.733C375.366 34.5592 373.3 33.6962 370.992 31.6997C364.962 26.4831 358.5 27.9406 352.96 24.4484C352.025 23.8583 351.439 23.2458 351.114 22.6327C355.992 20.8729 361.543 20.9768 366.609 23.3499C371.652 25.7128 375.271 29.8838 377.051 34.733Z" fill="url(#paint72_linear_107_796)"/>
<path d="M77.3024 444.175C83.0255 444.175 87.6649 439.536 87.6649 433.813C87.6649 428.09 83.0255 423.45 77.3024 423.45C71.5793 423.45 66.9398 428.09 66.9398 433.813C66.9398 439.536 71.5793 444.175 77.3024 444.175Z" fill="url(#paint73_linear_107_796)"/>
<path d="M251.566 52.1059C257.289 52.1059 261.928 47.4665 261.928 41.7434C261.928 36.0203 257.289 31.3808 251.566 31.3808C245.843 31.3808 241.203 36.0203 241.203 41.7434C241.203 47.4665 245.843 52.1059 251.566 52.1059Z" fill="url(#paint74_linear_107_796)"/>
<path d="M471.345 200.808C477.356 200.808 482.228 195.935 482.228 189.925C482.228 183.914 477.356 179.041 471.345 179.041C465.334 179.041 460.462 183.914 460.462 189.925C460.462 195.935 465.334 200.808 471.345 200.808Z" fill="url(#paint75_linear_107_796)"/>
<path d="M261.057 176.021L307.645 193.362C309.788 194.159 310.949 196.088 310.438 197.773L295.323 247.538C294.659 249.722 292.214 250.785 289.749 249.846L262.613 249.972C260.381 249.981 258.246 249.171 256.59 247.687L236.328 229.512C233.899 228.587 232.77 226.18 233.742 224.134L255.929 177.46C256.68 175.879 258.941 175.234 261.057 176.021Z" fill="url(#paint76_linear_107_796)"/>
<path d="M263.748 179.391L304.861 195.357L309.636 139.877C309.85 137.375 308.466 134.932 306.188 133.722C306.161 133.707 306.136 133.663 306.137 133.66L306.166 133.578L302.577 132.214L302.546 132.296C300.05 131.658 297.261 132.58 295.798 134.63L263.748 179.391Z" fill="url(#paint77_linear_107_796)"/>
<path opacity="0.3" d="M263.748 179.391L284.408 187.415C293.074 172.809 292.748 149.347 300.276 144.196C303.751 141.817 305.426 137.474 306.188 133.722C306.161 133.707 306.136 133.663 306.137 133.66L306.166 133.578L302.577 132.214L302.546 132.296C300.05 131.658 297.261 132.58 295.798 134.63L263.748 179.391Z" fill="url(#paint78_linear_107_796)"/>
<path d="M264.503 182.047L187.117 153.194L177.434 166.655C177.434 166.655 207.326 203.867 235.525 210.859C263.476 217.79 264.123 192.689 264.503 182.047Z" fill="url(#paint79_linear_107_796)"/>
<path d="M188.45 151.342L178.99 164.493C178.99 164.493 208.791 201.295 236.795 208.251C244.333 210.123 249.926 209.722 254.031 207.722C264.8 202.493 265.159 187.614 265.409 180.011L188.45 151.342Z" fill="url(#paint80_linear_107_796)"/>
<path opacity="0.3" d="M185.994 154.756L178.99 164.493C178.99 164.493 208.791 201.295 236.795 208.251C244.333 210.123 249.977 209.61 254.08 207.612L259.963 189.426C259.963 189.426 250.076 182.149 238.642 187.443C226.703 192.97 213.604 184.372 203.08 169.955C197.76 162.666 192.291 157.068 185.994 154.756Z" fill="url(#paint81_linear_107_796)"/>
<path d="M185.481 146.304C184.818 147.199 185.236 148.285 186.416 148.724C187.597 149.164 189.085 148.787 189.736 147.887L203.729 128.533C204.301 127.742 203.869 126.774 202.767 126.368C201.666 125.962 200.303 126.268 199.721 127.055L185.481 146.304Z" fill="url(#paint82_linear_107_796)"/>
<path d="M171.088 156.182C159.832 170.971 153.575 185.386 157.903 187.417C157.953 187.44 158.003 187.463 158.056 187.483C162.688 189.238 175.875 177.241 186.591 161.981C196.419 147.984 200.578 136.262 196.596 134.79C196.551 134.773 196.503 134.761 196.458 134.744L196.455 134.743C196.296 134.684 196.111 134.661 195.919 134.646C191.5 134.252 181.014 143.141 171.088 156.182Z" fill="url(#paint83_linear_107_796)"/>
<path d="M173.958 153.788C173.435 154.477 173.623 155.366 174.451 155.675L184.959 159.604C185.789 159.914 186.921 159.517 187.416 158.815C187.909 158.117 187.694 157.227 186.87 156.919L176.444 153.026C175.622 152.719 174.478 153.101 173.958 153.788Z" fill="url(#paint84_linear_107_796)"/>
<path opacity="0.3" d="M171.043 156.165C159.786 170.953 153.798 185.471 157.805 187.38L196.374 134.713L196.456 134.743C196.294 134.683 196.081 134.661 195.899 134.638C191.479 134.244 180.971 143.124 171.043 156.165Z" fill="url(#paint85_linear_107_796)"/>
<path d="M305.006 197.148L384.826 226.908L383.18 243.842C383.18 243.842 334.09 251.869 307.63 238.127C281.779 224.703 298.144 205.423 305.006 197.148Z" fill="url(#paint86_linear_107_796)"/>
<path d="M385.052 224.58L383.444 241.119C383.444 241.119 334.71 248.923 308.421 235.308C301.41 231.677 297.448 227.651 295.678 223.415C291.038 212.347 300.766 200.915 305.687 195.015L385.052 224.58Z" fill="url(#paint87_linear_107_796)"/>
<path opacity="0.3" d="M384.635 228.871L383.444 241.119C383.444 241.119 334.71 248.923 308.421 235.308C301.41 231.677 297.485 227.533 295.715 223.299L303.484 205.706C303.484 205.706 315.937 206.753 321.121 218.361C326.559 230.537 342.536 232.814 360.655 228.936C369.869 226.963 378.032 226.368 384.635 228.871Z" fill="url(#paint88_linear_107_796)"/>
<path d="M389.196 196.909C389.289 195.915 390.303 195.46 391.461 195.887C392.62 196.314 393.495 197.465 393.413 198.463L391.417 222.91C391.324 224.049 390.237 224.6 388.991 224.136C387.745 223.672 386.821 222.373 386.927 221.239L389.196 196.909Z" fill="url(#paint89_linear_107_796)"/>
<path d="M395.613 240.167C394.31 259.284 389.257 274.691 384.38 273.247C384.324 273.23 384.268 273.212 384.212 273.191C379.297 271.328 377.144 253.053 379.221 234.035C381.121 216.631 385.941 204.823 390.129 206.372C390.177 206.39 390.223 206.412 390.271 206.43L390.274 206.431C390.442 206.493 390.605 206.6 390.768 206.717C394.567 209.397 396.76 223.351 395.613 240.167Z" fill="url(#paint90_linear_107_796)"/>
<path d="M394.985 236.36C394.923 237.248 394.153 237.804 393.275 237.476L382.166 233.323C381.291 232.996 380.668 231.921 380.76 231.046C380.853 230.175 381.641 229.638 382.509 229.962L393.528 234.076C394.399 234.401 395.047 235.476 394.985 236.36Z" fill="url(#paint91_linear_107_796)"/>
<path opacity="0.3" d="M395.624 240.171C394.321 259.289 389.503 274.785 384.404 273.256L390.291 206.437L390.274 206.43C390.445 206.494 390.613 206.614 390.773 206.719C394.572 209.399 396.77 223.355 395.624 240.171Z" fill="url(#paint92_linear_107_796)"/>
<path d="M270.111 224.177C273.771 225.562 278.218 222.59 283.178 215.557C287.42 209.541 291.439 201.35 294.491 192.66C297.405 184.361 299.109 176.536 299.381 170.489C299.679 163.897 298.266 160.067 295.192 158.935C292.122 157.804 288.487 159.771 284.282 164.91C280.43 169.618 276.456 176.579 273.069 184.675C269.523 193.152 267.03 201.887 266.157 209.151C265.136 217.651 266.455 222.795 270.111 224.177Z" fill="url(#paint93_linear_107_796)"/>
<path d="M274.688 185.279C267.347 203.045 265.274 220.458 270.746 222.526C276.226 224.597 286.4 210.2 292.864 192.054C298.747 175.536 299.38 161.809 294.744 160.101C290.114 158.395 281.371 169.102 274.688 185.279Z" fill="url(#paint94_linear_107_796)"/>
<path d="M263.188 174.056L309.482 191.27C311.612 192.062 312.773 193.971 312.272 195.635L297.513 244.743C296.866 246.896 294.448 247.94 292.001 247.009L265.116 247.082C262.905 247.086 260.786 246.283 259.138 244.817L238.966 226.848C236.554 225.931 235.422 223.554 236.374 221.536L258.109 175.471C258.846 173.909 261.085 173.275 263.188 174.056Z" fill="url(#paint95_linear_107_796)"/>
<path d="M232.759 221.484C228.322 230.709 225.073 239.898 223.388 247.531C223.326 247.809 223.266 248.084 223.21 248.356C223.445 249.796 226.005 251.817 229.603 253.3C229.798 253.38 229.994 253.46 230.194 253.536C234.435 255.166 238.395 255.419 239.408 254.198C239.427 254.174 239.445 254.149 239.465 254.121C244.239 247.584 249.126 238.823 253.167 229.233C260.551 211.713 262.724 196.999 259.197 193.04C258.836 192.63 258.411 192.33 257.924 192.148C252.748 190.21 241.819 202.649 232.759 221.484Z" fill="url(#paint96_linear_107_796)"/>
<path d="M223.294 247.689C223.199 247.891 223.173 248.116 223.21 248.356C223.457 249.873 226.289 252.036 230.194 253.536C234.435 255.166 238.395 255.419 239.408 254.198C239.426 254.174 239.445 254.149 239.465 254.121C239.505 254.064 239.54 254 239.569 253.935C240.215 252.428 237.109 249.825 232.64 248.112C228.342 246.465 224.309 246.225 223.388 247.531C223.351 247.58 223.321 247.632 223.294 247.689Z" fill="url(#paint97_linear_107_796)"/>
<path opacity="0.3" d="M232.759 221.484C228.322 230.709 225.073 239.898 223.388 247.531C223.326 247.809 223.266 248.084 223.21 248.356C223.445 249.796 226.005 251.817 229.603 253.3C229.47 252.524 229.306 251.756 229.107 250.995C226.086 239.481 242.955 216.316 253.312 204.224C257.51 199.323 258.928 195.644 259.197 193.04C258.836 192.63 258.411 192.331 257.924 192.148C252.748 190.21 241.819 202.649 232.759 221.484Z" fill="url(#paint98_linear_107_796)"/>
<path d="M234.037 250.988L229.114 249.237C226.496 248.306 223.441 249.046 221.368 251.128L219.38 253.125C218.643 253.866 218.851 255.041 219.782 255.372L236.416 261.301C237.35 261.634 238.37 260.895 238.37 259.891L238.371 257.182C238.372 254.359 236.658 251.92 234.037 250.988Z" fill="url(#paint99_linear_107_796)"/>
<path d="M238.021 261.094C237.286 262.94 232.336 262.898 226.975 260.986C221.618 259.075 217.945 256.045 218.76 254.23C219.568 252.43 224.493 252.503 229.77 254.383C235.052 256.263 238.75 259.262 238.021 261.094Z" fill="url(#paint100_linear_107_796)"/>
<path d="M235.707 260.269C235.141 261.668 231.381 261.633 227.315 260.183C223.251 258.734 220.457 256.434 221.068 255.053C221.676 253.68 225.421 253.733 229.439 255.165C233.46 256.596 236.269 258.878 235.707 260.269Z" fill="url(#paint101_linear_107_796)"/>
<path d="M279.253 239.139C275.873 248.837 273.646 258.483 272.783 266.486C272.752 266.778 272.721 267.066 272.694 267.351C273.069 268.854 275.77 270.936 279.427 272.442C279.625 272.523 279.824 272.604 280.026 272.682C284.325 274.333 288.209 274.549 289.07 273.259C289.086 273.233 289.102 273.207 289.118 273.177C293.1 266.282 296.963 257.061 299.918 246.986C305.313 228.589 305.921 213.195 302.083 209.105C301.69 208.681 301.247 208.374 300.753 208.189C295.518 206.228 286.151 219.351 279.253 239.139Z" fill="url(#paint102_linear_107_796)"/>
<path d="M272.708 266.653C272.636 266.865 272.634 267.1 272.694 267.351C273.089 268.935 276.07 271.162 280.026 272.682C284.325 274.333 288.209 274.549 289.07 273.259C289.086 273.233 289.102 273.207 289.118 273.177C289.152 273.117 289.179 273.051 289.2 272.981C289.676 271.398 286.384 268.714 281.856 266.978C277.501 265.309 273.548 265.108 272.783 266.486C272.753 266.538 272.729 266.592 272.708 266.653Z" fill="url(#paint103_linear_107_796)"/>
<path opacity="0.3" d="M279.253 239.139C275.873 248.837 273.646 258.483 272.783 266.486C272.752 266.778 272.721 267.066 272.694 267.351C273.069 268.854 275.77 270.936 279.427 272.442C279.218 271.632 278.979 270.831 278.708 270.037C274.59 258.035 288.653 233.614 297.499 220.856C301.085 215.686 302.089 211.826 302.083 209.105C301.69 208.681 301.247 208.374 300.753 208.189C295.518 206.228 286.151 219.351 279.253 239.139Z" fill="url(#paint104_linear_107_796)"/>
<path d="M283.51 269.969L278.536 268.199C275.89 267.258 272.989 268.07 271.183 270.273L269.449 272.387C268.807 273.171 269.129 274.397 270.07 274.732L286.882 280.726C287.826 281.063 288.744 280.277 288.642 279.226L288.366 276.393C288.079 273.441 286.159 270.911 283.51 269.969Z" fill="url(#paint105_linear_107_796)"/>
<path d="M288.425 280.489C287.897 282.43 283.07 282.448 277.651 280.515C272.237 278.583 268.349 275.459 268.958 273.55C269.561 271.657 274.367 271.673 279.701 273.572C285.038 275.473 288.948 278.564 288.425 280.489Z" fill="url(#paint106_linear_107_796)"/>
<path d="M286.085 279.655C285.677 281.126 282.011 281.136 277.901 279.67C273.793 278.205 270.836 275.834 271.291 274.381C271.743 272.938 275.397 272.947 279.458 274.394C283.522 275.842 286.491 278.194 286.085 279.655Z" fill="url(#paint107_linear_107_796)"/>
<path d="M262.659 181.705C262.119 182.902 262.845 184.314 264.283 184.851L303.716 199.568C305.171 200.111 306.671 199.523 307.064 198.264L307.125 198.071C307.515 196.82 306.665 195.379 305.229 194.844L266.281 180.335C264.86 179.806 263.277 180.334 262.742 181.522L262.659 181.705Z" fill="url(#paint108_linear_107_796)"/>
<path d="M283.542 276.373C283.542 276.373 287.457 289.582 285.518 297.188C284.789 295.099 283.782 294.309 283.782 294.309C283.782 294.309 269.026 326.821 263.656 332.023C265.714 300.979 269.82 287.843 269.82 287.843L263.345 292.008C263.345 292.008 269.274 275.408 275.98 273.481C275.98 273.481 281.878 275.048 283.542 276.373Z" fill="url(#paint109_linear_107_796)"/>
<path d="M232.962 256.791C232.962 256.791 236.877 269.999 234.939 277.606C234.209 275.517 233.202 274.727 233.202 274.727C233.202 274.727 218.446 307.239 213.077 312.441C215.135 281.397 219.241 268.261 219.241 268.261L212.767 272.426C212.767 272.426 218.695 255.826 225.4 253.899C225.4 253.899 231.299 255.466 232.962 256.791Z" fill="url(#paint110_linear_107_796)"/>
<path d="M477.117 539.765L366.969 509.804L335.887 516.229V521.28L437.442 556.39L477.117 539.765Z" fill="url(#paint111_linear_107_796)"/>
<path d="M457.087 526.346C466.488 530.455 479.218 536.106 496.376 535.59C507.301 535.262 513.27 535.083 517.176 531.353C530.188 518.932 507.549 478.215 461.738 397.288C447.088 371.406 437.456 355.821 418.13 348.505C396.189 340.197 375.087 347.597 367.338 350.314C361.87 352.231 317.461 368.605 309.174 410.789C302.402 445.261 322.475 483.107 359.249 500.923C361.431 497.842 363.614 494.76 365.797 491.679C362.432 486.262 355.967 474.184 355.782 457.782C355.584 440.202 362.62 419.396 368.493 419.648C377.854 420.05 366.825 473.206 398.923 501.694C404.118 506.304 400.873 501.775 457.087 526.346Z" fill="url(#paint112_linear_107_796)"/>
<path opacity="0.4" d="M325.737 436.211C327.755 422.134 334.03 378.359 361.174 367.647C382.458 359.248 403.509 376.332 413.56 365.722C417.627 361.429 417.963 354.64 416.988 348.097C417.369 348.232 417.749 348.36 418.13 348.504C437.456 355.821 447.087 371.406 461.738 397.287C507.548 478.215 530.188 518.932 517.176 531.353C513.27 535.082 507.301 535.262 496.376 535.59C479.218 536.106 466.488 530.455 457.087 526.346C400.873 501.775 404.118 506.304 398.923 501.693C366.825 473.206 377.854 420.05 368.493 419.648C362.62 419.396 355.584 440.202 355.782 457.782C355.967 474.184 362.432 486.262 365.797 491.679C363.614 494.76 361.431 497.842 359.249 500.923C345.615 494.318 334.283 484.955 325.758 474.036C324.177 462.875 323.747 450.092 325.737 436.211Z" fill="url(#paint113_linear_107_796)"/>
<path d="M478.657 521.28L471.276 518.227C471.276 518.227 512.554 476.439 435.131 391.228C435.131 391.228 396.993 342.365 415.966 346.606C440.546 352.101 480.742 363.852 517.833 414.476C554.925 465.101 533.651 509.403 478.657 521.28Z" fill="url(#paint114_linear_107_796)"/>
<path d="M478.657 521.28C478.657 521.28 474.57 516.123 464.865 515.456C455.161 514.79 439.72 521.239 436.672 525.857C433.623 530.476 436.532 533.301 440.454 533.097C444.375 532.894 449.768 527.501 457.087 526.346C464.405 525.19 479.042 536.08 478.657 521.28Z" fill="url(#paint115_linear_107_796)"/>
<path d="M376.993 349.558C379.285 347.759 379.763 344.478 378.077 342.1L373.116 335.101L378.291 325.534L396.503 339.167C401.337 342.786 406.98 345.174 412.944 346.125L415.966 346.606C415.966 346.606 398.424 356.124 389.429 359.19C380.434 362.255 369.745 355.248 369.745 355.248L376.993 349.558Z" fill="url(#paint116_linear_107_796)"/>
<path d="M356.002 306.756L354.819 306.516C349.952 305.526 344.924 310.048 343.588 316.617L343.513 316.985C342.178 323.554 345.04 329.681 349.907 330.671L351.089 330.911C353.544 331.41 356.634 326.408 357.991 319.738C359.347 313.067 358.457 307.255 356.002 306.756Z" fill="url(#paint117_linear_107_796)"/>
<path d="M360.765 320.302C359.28 327.603 355.232 332.943 351.605 332.205C347.978 331.468 346.146 324.932 347.631 317.631C349.116 310.33 353.355 305.029 356.982 305.766C360.609 306.504 362.249 313.001 360.765 320.302Z" fill="url(#paint118_linear_107_796)"/>
<path d="M351.416 332.167L352.801 332.449L358.177 306.009L356.793 305.728L351.416 332.167Z" fill="url(#paint119_linear_107_796)"/>
<path d="M362.056 320.564C360.571 327.865 356.427 333.186 352.801 332.449C349.174 331.711 347.437 325.194 348.922 317.893C350.407 310.593 354.551 305.272 358.177 306.009C361.804 306.747 363.541 313.263 362.056 320.564Z" fill="url(#paint120_linear_107_796)"/>
<path opacity="0.6" d="M359.06 319.955C358.252 323.925 355.999 326.818 354.027 326.417C352.055 326.016 351.111 322.472 351.918 318.503C352.726 314.533 354.979 311.64 356.951 312.041C358.923 312.442 359.867 315.985 359.06 319.955Z" fill="url(#paint121_linear_107_796)"/>
<path d="M383.092 334.853C383.092 334.853 401.385 321.644 397.256 316.003C393.126 310.362 387.24 311.463 385.238 309.536C383.235 307.61 374.191 296.653 362.587 299.586C350.982 302.519 346.681 290.324 344.388 299.586C342.094 308.848 338.256 325.205 354.797 325.557C371.337 325.909 383.092 334.853 383.092 334.853Z" fill="#26264F"/>
<path d="M380.994 336.76C380.994 336.76 375.272 345.026 363.66 343.868C353.284 342.833 351.503 322.091 358.06 317.968C360.25 316.592 364.667 316.159 368.279 317.198C370.414 317.812 371.145 318.627 374.654 319.571C377.892 320.444 378.8 320.162 379.785 320.93C381.017 321.891 381.941 324.162 379.986 330.139C381.947 328.434 384.321 327.845 386.021 328.622C386.292 328.746 387.013 329.207 387.425 329.878C388.913 332.306 386.518 335.232 380.994 336.76Z" fill="url(#paint122_linear_107_796)"/>
<path d="M387.501 312.512L386.59 317.165L385.084 316.873L385.996 312.22C386.53 309.502 386.306 306.827 385.489 304.471C384.947 302.888 384.121 301.452 383.08 300.239C381.61 298.527 379.692 297.272 377.464 296.704L377.404 296.687L370.007 294.786C366.515 293.891 362.877 294.631 359.763 296.893C358.886 297.529 358.086 298.26 357.373 299.069C357.14 299.318 356.925 299.577 356.719 299.852C356.289 299.757 355.549 299.594 355.041 299.473C355.455 298.88 355.901 298.304 356.4 297.77C357.166 296.902 358.026 296.119 358.972 295.439C359.196 295.284 359.411 295.13 359.635 294.983C362.688 293.005 366.137 292.274 369.5 292.894C369.81 292.945 370.119 293.014 370.42 293.091L374.729 294.201L377.877 295.01C380.879 295.784 383.373 297.641 385.102 300.161C385.842 301.211 386.435 302.38 386.883 303.628C387.845 306.32 388.112 309.39 387.501 312.512Z" fill="url(#paint123_linear_107_796)"/>
<path d="M358.052 299.347C358.663 299.472 359.33 299.315 359.887 298.852C362.731 296.49 366.268 295.625 369.589 296.479L377.047 298.395C379.652 299.065 381.852 300.826 383.242 303.354C383.899 304.55 385.321 304.87 386.418 304.069C387.514 303.268 387.871 301.65 387.213 300.455C385.211 296.813 382.043 294.277 378.291 293.312L370.833 291.396C366.184 290.201 361.239 291.411 357.261 294.714C356.208 295.589 355.943 297.224 356.668 298.367C357.009 298.904 357.509 299.237 358.052 299.347Z" fill="url(#paint124_linear_107_796)"/>
<path opacity="0.3" d="M362.289 294.779C368.205 294.073 368.578 292.394 371.501 292.854C376.967 293.716 377.978 299.952 383.408 300.261C384.682 300.334 385.831 300.059 386.77 299.7C386.924 299.946 387.071 300.197 387.213 300.455C387.87 301.65 387.514 303.268 386.417 304.069C385.321 304.87 383.899 304.55 383.242 303.354C381.851 300.826 379.651 299.065 377.047 298.395L369.588 296.479C366.267 295.625 362.73 296.49 359.887 298.852C359.329 299.315 358.663 299.472 358.052 299.347C357.508 299.237 357.008 298.904 356.667 298.367C356.01 297.331 356.167 295.891 356.986 294.979C358.503 295.045 360.295 295.017 362.289 294.779Z" fill="url(#paint125_linear_107_796)"/>
<path d="M377.293 323.436C375.792 330.818 377.548 337.406 381.214 338.152C384.881 338.897 389.07 333.518 390.572 326.137C392.073 318.755 390.317 312.167 386.65 311.421C382.983 310.675 378.794 316.055 377.293 323.436Z" fill="url(#paint126_linear_107_796)"/>
<path d="M378.599 323.701C377.097 331.083 378.853 337.671 382.52 338.417C386.186 339.163 390.376 333.783 391.877 326.402C393.378 319.02 391.622 312.432 387.956 311.686C384.289 310.941 380.1 316.32 378.599 323.701Z" fill="url(#paint127_linear_107_796)"/>
<path d="M389.243 313.15L390.438 313.393C395.359 314.394 398.253 320.589 396.902 327.23L396.827 327.603C395.476 334.243 390.392 338.816 385.472 337.815L384.277 337.572C381.795 337.067 380.894 331.191 382.266 324.447C383.637 317.703 386.761 312.646 389.243 313.15Z" fill="url(#paint128_linear_107_796)"/>
<path d="M388.123 325.443C387.133 330.311 388.296 334.657 390.721 335.15C393.145 335.643 395.913 332.096 396.903 327.229C397.893 322.361 396.73 318.015 394.305 317.522C391.881 317.029 389.113 320.576 388.123 325.443Z" fill="url(#paint129_linear_107_796)"/>
<path d="M433.696 545.392L423.435 409.99C423.272 407.848 421.438 405.85 419.007 405.166L243.377 355.796C241.805 355.354 238.79 355.787 237.593 356.529C236.397 357.272 235.039 357.112 235.098 358.493L242.439 483.623C242.561 485.704 244.273 487.678 246.616 488.439L429.922 547.984L433.696 545.392Z" fill="url(#paint130_linear_107_796)"/>
<path d="M429.922 547.985L419.289 411.449C419.122 409.309 417.29 407.316 414.861 406.633L239.224 357.261C237.652 356.819 236.045 356.993 234.848 357.736C233.651 358.478 232.991 359.711 233.05 361.092L238.337 484.982C238.428 487.111 240.193 489.142 242.603 489.889L429.922 547.985Z" fill="url(#paint131_linear_107_796)"/>
<path opacity="0.3" d="M429.922 547.984L242.603 489.889C240.193 489.141 238.428 487.111 238.337 484.982L236.742 447.618C292.349 483.1 362.365 496.802 427.531 517.292L429.922 547.984Z" fill="url(#paint132_linear_107_796)"/>
<path d="M336.712 552.142L343.357 556.269C343.357 556.269 374.904 542.279 376.793 541.44C377.093 541.307 378.39 539.691 376.793 539.027C368.339 535.508 336.083 527.17 336.083 527.17L319.295 535.145L336.712 552.142Z" fill="url(#paint133_linear_107_796)"/>
<path d="M336.712 549.729L343.357 553.856C343.357 553.856 374.904 539.866 376.793 539.027C378.681 538.187 336.083 524.758 336.083 524.758L319.295 532.731L336.712 549.729Z" fill="url(#paint134_linear_107_796)"/>
<path d="M303.906 445.191C303.906 445.191 287.958 530.528 286.279 535.285C284.73 539.676 329.898 553.919 340.699 556.619C341.597 556.844 342.936 556.45 343.357 556.269C346.435 556.549 332.096 453.235 332.096 453.235L331.046 453.025L303.906 445.191Z" fill="url(#paint135_linear_107_796)"/>
<path d="M303.906 445.191C303.906 445.191 285.16 530.808 283.481 535.564C281.803 540.321 335.803 555.71 340.56 556.549C343.637 556.829 331.047 453.025 331.047 453.025L303.906 445.191Z" fill="url(#paint136_linear_107_796)"/>
<defs>
<linearGradient id="paint0_linear_107_796" x1="87.2718" y1="-333.835" x2="292.557" y2="325.842" gradientUnits="userSpaceOnUse">
<stop stop-color="#444B8C"/>
<stop offset="0.9964" stop-color="#26264F"/>
</linearGradient>
<linearGradient id="paint1_linear_107_796" x1="221.8" y1="95.0343" x2="419.496" y2="730.327" gradientUnits="userSpaceOnUse">
<stop stop-color="#444B8C"/>
<stop offset="0.9964" stop-color="#26264F"/>
</linearGradient>
<linearGradient id="paint2_linear_107_796" x1="27.1481" y1="224.304" x2="502.03" y2="224.304" gradientUnits="userSpaceOnUse">
<stop stop-color="#444B8C"/>
<stop offset="0.9964" stop-color="#26264F"/>
</linearGradient>
<linearGradient id="paint3_linear_107_796" x1="-80.7429" y1="264.881" x2="225.968" y2="264.881" gradientUnits="userSpaceOnUse">
<stop stop-color="#444B8C"/>
<stop offset="0.9964" stop-color="#26264F"/>
</linearGradient>
<linearGradient id="paint4_linear_107_796" x1="71.3803" y1="246.222" x2="246.804" y2="246.222" gradientUnits="userSpaceOnUse">
<stop stop-color="#444B8C"/>
<stop offset="0.9964" stop-color="#26264F"/>
</linearGradient>
<linearGradient id="paint5_linear_107_796" x1="215.295" y1="236.297" x2="267.65" y2="236.297" gradientUnits="userSpaceOnUse">
<stop stop-color="#444B8C"/>
<stop offset="0.9964" stop-color="#26264F"/>
</linearGradient>
<linearGradient id="paint6_linear_107_796" x1="286.9" y1="234.444" x2="352.72" y2="234.444" gradientUnits="userSpaceOnUse">
<stop stop-color="#444B8C"/>
<stop offset="0.9964" stop-color="#26264F"/>
</linearGradient>
<linearGradient id="paint7_linear_107_796" x1="307.482" y1="239.93" x2="480.823" y2="239.93" gradientUnits="userSpaceOnUse">
<stop stop-color="#444B8C"/>
<stop offset="0.9964" stop-color="#26264F"/>
</linearGradient>
<linearGradient id="paint8_linear_107_796" x1="327.77" y1="252.295" x2="601.48" y2="252.295" gradientUnits="userSpaceOnUse">
<stop stop-color="#444B8C"/>
<stop offset="0.9964" stop-color="#26264F"/>
</linearGradient>
<linearGradient id="paint9_linear_107_796" x1="-35.2465" y1="149.492" x2="570.006" y2="149.492" gradientUnits="userSpaceOnUse">
<stop stop-color="#444B8C"/>
<stop offset="0.9964" stop-color="#26264F"/>
</linearGradient>
<linearGradient id="paint10_linear_107_796" x1="-35.4374" y1="89.4364" x2="567.615" y2="89.4364" gradientUnits="userSpaceOnUse">
<stop stop-color="#444B8C"/>
<stop offset="0.9964" stop-color="#26264F"/>
</linearGradient>
<linearGradient id="paint11_linear_107_796" x1="-35.0003" y1="226.885" x2="573.085" y2="226.885" gradientUnits="userSpaceOnUse">
<stop stop-color="#444B8C"/>
<stop offset="0.9964" stop-color="#26264F"/>
</linearGradient>
<linearGradient id="paint12_linear_107_796" x1="-34.7514" y1="305.172" x2="576.193" y2="305.172" gradientUnits="userSpaceOnUse">
<stop stop-color="#444B8C"/>
<stop offset="0.9964" stop-color="#26264F"/>
</linearGradient>
<linearGradient id="paint13_linear_107_796" x1="-34.4998" y1="384.165" x2="579.332" y2="384.165" gradientUnits="userSpaceOnUse">
<stop stop-color="#444B8C"/>
<stop offset="0.9964" stop-color="#26264F"/>
</linearGradient>
<linearGradient id="paint14_linear_107_796" x1="21.7524" y1="341.117" x2="513.241" y2="341.117" gradientUnits="userSpaceOnUse">
<stop stop-color="#444B8C"/>
<stop offset="0.9964" stop-color="#26264F"/>
</linearGradient>
<linearGradient id="paint15_linear_107_796" x1="434.335" y1="-323.401" x2="172.554" y2="749.581" gradientUnits="userSpaceOnUse">
<stop stop-color="#444B8C"/>
<stop offset="0.9964" stop-color="#26264F"/>
</linearGradient>
<linearGradient id="paint16_linear_107_796" x1="257.775" y1="204.676" x2="209.948" y2="400.711" gradientUnits="userSpaceOnUse">
<stop stop-color="#444B8C"/>
<stop offset="0.9964" stop-color="#26264F"/>
</linearGradient>
<linearGradient id="paint17_linear_107_796" x1="366.363" y1="206.082" x2="319.835" y2="396.79" gradientUnits="userSpaceOnUse">
<stop stop-color="#444B8C"/>
<stop offset="0.9964" stop-color="#26264F"/>
</linearGradient>
<linearGradient id="paint18_linear_107_796" x1="268.943" y1="299.893" x2="256.718" y2="349.997" gradientUnits="userSpaceOnUse">
<stop stop-color="#444B8C"/>
<stop offset="0.9964" stop-color="#26264F"/>
</linearGradient>
<linearGradient id="paint19_linear_107_796" x1="289.242" y1="299.674" x2="277.08" y2="349.523" gradientUnits="userSpaceOnUse">
<stop stop-color="#444B8C"/>
<stop offset="0.9964" stop-color="#26264F"/>
</linearGradient>
<linearGradient id="paint20_linear_107_796" x1="309.359" y1="299.456" x2="297.259" y2="349.053" gradientUnits="userSpaceOnUse">
<stop stop-color="#444B8C"/>
<stop offset="0.9964" stop-color="#26264F"/>
</linearGradient>
<linearGradient id="paint21_linear_107_796" x1="296.31" y1="260.521" x2="273.568" y2="353.732" gradientUnits="userSpaceOnUse">
<stop stop-color="#444B8C"/>
<stop offset="0.9964" stop-color="#26264F"/>
</linearGradient>
<linearGradient id="paint22_linear_107_796" x1="153.595" y1="185.788" x2="91.7324" y2="439.351" gradientUnits="userSpaceOnUse">
<stop stop-color="#444B8C"/>
<stop offset="0.9964" stop-color="#26264F"/>
</linearGradient>
<linearGradient id="paint23_linear_107_796" x1="414.68" y1="310.168" x2="405.218" y2="348.951" gradientUnits="userSpaceOnUse">
<stop stop-color="#444B8C"/>
<stop offset="0.9964" stop-color="#26264F"/>
</linearGradient>
<linearGradient id="paint24_linear_107_796" x1="429.742" y1="309.97" x2="420.311" y2="348.625" gradientUnits="userSpaceOnUse">
<stop stop-color="#444B8C"/>
<stop offset="0.9964" stop-color="#26264F"/>
</linearGradient>
<linearGradient id="paint25_linear_107_796" x1="444.369" y1="310.127" x2="435.114" y2="348.062" gradientUnits="userSpaceOnUse">
<stop stop-color="#444B8C"/>
<stop offset="0.9964" stop-color="#26264F"/>
</linearGradient>
<linearGradient id="paint26_linear_107_796" x1="477.764" y1="260.261" x2="446.507" y2="388.377" gradientUnits="userSpaceOnUse">
<stop stop-color="#444B8C"/>
<stop offset="0.9964" stop-color="#26264F"/>
</linearGradient>
<linearGradient id="paint27_linear_107_796" x1="485.489" y1="260.903" x2="454.554" y2="387.699" gradientUnits="userSpaceOnUse">
<stop stop-color="#444B8C"/>
<stop offset="0.9964" stop-color="#26264F"/>
</linearGradient>
<linearGradient id="paint28_linear_107_796" x1="493.546" y1="260.216" x2="462.411" y2="387.831" gradientUnits="userSpaceOnUse">
<stop stop-color="#444B8C"/>
<stop offset="0.9964" stop-color="#26264F"/>
</linearGradient>
<linearGradient id="paint29_linear_107_796" x1="501.816" y1="260.195" x2="470.742" y2="387.56" gradientUnits="userSpaceOnUse">
<stop stop-color="#444B8C"/>
<stop offset="0.9964" stop-color="#26264F"/>
</linearGradient>
<linearGradient id="paint30_linear_107_796" x1="509.547" y1="260.842" x2="478.789" y2="386.914" gradientUnits="userSpaceOnUse">
<stop stop-color="#444B8C"/>
<stop offset="0.9964" stop-color="#26264F"/>
</linearGradient>
<linearGradient id="paint31_linear_107_796" x1="131.112" y1="-63.7812" x2="55.1358" y2="247.628" gradientUnits="userSpaceOnUse">
<stop stop-color="#444B8C"/>
<stop offset="0.9964" stop-color="#26264F"/>
</linearGradient>
<linearGradient id="paint32_linear_107_796" x1="107.514" y1="92.0816" x2="65.6172" y2="263.806" gradientUnits="userSpaceOnUse">
<stop stop-color="#444B8C"/>
<stop offset="0.9964" stop-color="#26264F"/>
</linearGradient>
<linearGradient id="paint33_linear_107_796" x1="108.317" y1="126.211" x2="65.7303" y2="300.766" gradientUnits="userSpaceOnUse">
<stop stop-color="#444B8C"/>
<stop offset="0.9964" stop-color="#26264F"/>
</linearGradient>
<linearGradient id="paint34_linear_107_796" x1="418.883" y1="134.625" x2="430.934" y2="134.625" gradientUnits="userSpaceOnUse">
<stop stop-color="#444B8C"/>
<stop offset="0.9964" stop-color="#26264F"/>
</linearGradient>
<linearGradient id="paint35_linear_107_796" x1="36.3036" y1="274.309" x2="48.3548" y2="274.309" gradientUnits="userSpaceOnUse">
<stop stop-color="#444B8C"/>
<stop offset="0.9964" stop-color="#26264F"/>
</linearGradient>
<linearGradient id="paint36_linear_107_796" x1="439.968" y1="120.948" x2="447.081" y2="120.948" gradientUnits="userSpaceOnUse">
<stop stop-color="#444B8C"/>
<stop offset="0.9964" stop-color="#26264F"/>
</linearGradient>
<linearGradient id="paint37_linear_107_796" x1="479.431" y1="237.427" x2="486.543" y2="237.427" gradientUnits="userSpaceOnUse">
<stop stop-color="#444B8C"/>
<stop offset="0.9964" stop-color="#26264F"/>
</linearGradient>
<linearGradient id="paint38_linear_107_796" x1="152.753" y1="110.118" x2="159.865" y2="110.118" gradientUnits="userSpaceOnUse">
<stop stop-color="#444B8C"/>
<stop offset="0.9964" stop-color="#26264F"/>
</linearGradient>
<linearGradient id="paint39_linear_107_796" x1="124.882" y1="250.476" x2="131.994" y2="250.476" gradientUnits="userSpaceOnUse">
<stop stop-color="#444B8C"/>
<stop offset="0.9964" stop-color="#26264F"/>
</linearGradient>
<linearGradient id="paint40_linear_107_796" x1="98.159" y1="281.34" x2="107.702" y2="281.34" gradientUnits="userSpaceOnUse">
<stop stop-color="#444B8C"/>
<stop offset="0.9964" stop-color="#26264F"/>
</linearGradient>
<linearGradient id="paint41_linear_107_796" x1="92.8024" y1="-333.835" x2="298.087" y2="325.842" gradientUnits="userSpaceOnUse">
<stop stop-color="#AA80F9"/>
<stop offset="0.9964" stop-color="#6165D7"/>
</linearGradient>
<linearGradient id="paint42_linear_107_796" x1="227.33" y1="95.0343" x2="425.027" y2="730.327" gradientUnits="userSpaceOnUse">
<stop stop-color="#AA80F9"/>
<stop offset="0.9964" stop-color="#6165D7"/>
</linearGradient>
<linearGradient id="paint43_linear_107_796" x1="27.283" y1="341.117" x2="518.772" y2="341.117" gradientUnits="userSpaceOnUse">
<stop stop-color="#AA80F9"/>
<stop offset="0.9964" stop-color="#6165D7"/>
</linearGradient>
<linearGradient id="paint44_linear_107_796" x1="439.865" y1="-323.401" x2="178.084" y2="749.581" gradientUnits="userSpaceOnUse">
<stop stop-color="#AA80F9"/>
<stop offset="0.9964" stop-color="#6165D7"/>
</linearGradient>
<linearGradient id="paint45_linear_107_796" x1="263.306" y1="204.676" x2="215.478" y2="400.711" gradientUnits="userSpaceOnUse">
<stop offset="0.0036" stop-color="#E38DDD"/>
<stop offset="1" stop-color="#9571F6"/>
</linearGradient>
<linearGradient id="paint46_linear_107_796" x1="371.894" y1="206.082" x2="325.366" y2="396.79" gradientUnits="userSpaceOnUse">
<stop offset="0.0036" stop-color="#E38DDD"/>
<stop offset="1" stop-color="#9571F6"/>
</linearGradient>
<linearGradient id="paint47_linear_107_796" x1="274.473" y1="299.893" x2="262.249" y2="349.997" gradientUnits="userSpaceOnUse">
<stop offset="0.0036" stop-color="#E38DDD"/>
<stop offset="1" stop-color="#9571F6"/>
</linearGradient>
<linearGradient id="paint48_linear_107_796" x1="294.772" y1="299.674" x2="282.61" y2="349.523" gradientUnits="userSpaceOnUse">
<stop offset="0.0036" stop-color="#E38DDD"/>
<stop offset="1" stop-color="#9571F6"/>
</linearGradient>
<linearGradient id="paint49_linear_107_796" x1="314.89" y1="299.456" x2="302.79" y2="349.053" gradientUnits="userSpaceOnUse">
<stop offset="0.0036" stop-color="#E38DDD"/>
<stop offset="1" stop-color="#9571F6"/>
</linearGradient>
<linearGradient id="paint50_linear_107_796" x1="301.84" y1="260.521" x2="279.099" y2="353.732" gradientUnits="userSpaceOnUse">
<stop offset="0.0036" stop-color="#E38DDD"/>
<stop offset="1" stop-color="#9571F6"/>
</linearGradient>
<linearGradient id="paint51_linear_107_796" x1="159.126" y1="185.788" x2="97.263" y2="439.351" gradientUnits="userSpaceOnUse">
<stop offset="0.0036" stop-color="#E38DDD"/>
<stop offset="1" stop-color="#9571F6"/>
</linearGradient>
<linearGradient id="paint52_linear_107_796" x1="420.211" y1="310.168" x2="410.749" y2="348.951" gradientUnits="userSpaceOnUse">
<stop offset="0.0036" stop-color="#E38DDD"/>
<stop offset="1" stop-color="#9571F6"/>
</linearGradient>
<linearGradient id="paint53_linear_107_796" x1="435.272" y1="309.97" x2="425.842" y2="348.625" gradientUnits="userSpaceOnUse">
<stop offset="0.0036" stop-color="#E38DDD"/>
<stop offset="1" stop-color="#9571F6"/>
</linearGradient>
<linearGradient id="paint54_linear_107_796" x1="449.899" y1="310.127" x2="440.644" y2="348.062" gradientUnits="userSpaceOnUse">
<stop offset="0.0036" stop-color="#E38DDD"/>
<stop offset="1" stop-color="#9571F6"/>
</linearGradient>
<linearGradient id="paint55_linear_107_796" x1="483.294" y1="260.261" x2="452.037" y2="388.377" gradientUnits="userSpaceOnUse">
<stop offset="0.0036" stop-color="#E38DDD"/>
<stop offset="1" stop-color="#9571F6"/>
</linearGradient>
<linearGradient id="paint56_linear_107_796" x1="491.019" y1="260.903" x2="460.084" y2="387.699" gradientUnits="userSpaceOnUse">
<stop offset="0.0036" stop-color="#E38DDD"/>
<stop offset="1" stop-color="#9571F6"/>
</linearGradient>
<linearGradient id="paint57_linear_107_796" x1="499.076" y1="260.216" x2="467.941" y2="387.831" gradientUnits="userSpaceOnUse">
<stop offset="0.0036" stop-color="#E38DDD"/>
<stop offset="1" stop-color="#9571F6"/>
</linearGradient>
<linearGradient id="paint58_linear_107_796" x1="507.347" y1="260.195" x2="476.272" y2="387.56" gradientUnits="userSpaceOnUse">
<stop offset="0.0036" stop-color="#E38DDD"/>
<stop offset="1" stop-color="#9571F6"/>
</linearGradient>
<linearGradient id="paint59_linear_107_796" x1="515.078" y1="260.842" x2="484.32" y2="386.914" gradientUnits="userSpaceOnUse">
<stop offset="0.0036" stop-color="#E38DDD"/>
<stop offset="1" stop-color="#9571F6"/>
</linearGradient>
<linearGradient id="paint60_linear_107_796" x1="136.643" y1="-63.7812" x2="60.6664" y2="247.628" gradientUnits="userSpaceOnUse">
<stop stop-color="#AA80F9"/>
<stop offset="0.9964" stop-color="#6165D7"/>
</linearGradient>
<linearGradient id="paint61_linear_107_796" x1="113.044" y1="92.0816" x2="71.1478" y2="263.806" gradientUnits="userSpaceOnUse">
<stop stop-color="#AA80F9"/>
<stop offset="0.9964" stop-color="#6165D7"/>
</linearGradient>
<linearGradient id="paint62_linear_107_796" x1="113.848" y1="129.668" x2="71.2609" y2="304.223" gradientUnits="userSpaceOnUse">
<stop stop-color="#AA80F9"/>
<stop offset="0.9964" stop-color="#6165D7"/>
</linearGradient>
<linearGradient id="paint63_linear_107_796" x1="185.45" y1="486.232" x2="136.711" y2="448.567" gradientUnits="userSpaceOnUse">
<stop offset="0.0036" stop-color="#E38DDD"/>
<stop offset="1" stop-color="#9571F6"/>
</linearGradient>
<linearGradient id="paint64_linear_107_796" x1="185.66" y1="485.96" x2="136.921" y2="448.295" gradientUnits="userSpaceOnUse">
<stop offset="0.0036" stop-color="#E38DDD"/>
<stop offset="1" stop-color="#9571F6"/>
</linearGradient>
<linearGradient id="paint65_linear_107_796" x1="156.07" y1="495.813" x2="128.383" y2="474.418" gradientUnits="userSpaceOnUse">
<stop offset="0.0036" stop-color="#E38DDD"/>
<stop offset="1" stop-color="#9571F6"/>
</linearGradient>
<linearGradient id="paint66_linear_107_796" x1="193.918" y1="460.459" x2="159.572" y2="433.917" gradientUnits="userSpaceOnUse">
<stop offset="0.0036" stop-color="#E38DDD"/>
<stop offset="1" stop-color="#9571F6"/>
</linearGradient>
<linearGradient id="paint67_linear_107_796" x1="214.775" y1="477.6" x2="108.904" y2="455.494" gradientUnits="userSpaceOnUse">
<stop stop-color="#311944"/>
<stop offset="1" stop-color="#893976"/>
</linearGradient>
<linearGradient id="paint68_linear_107_796" x1="208.338" y1="503.574" x2="114.283" y2="430.89" gradientUnits="userSpaceOnUse">
<stop stop-color="#311944"/>
<stop offset="1" stop-color="#893976"/>
</linearGradient>
<linearGradient id="paint69_linear_107_796" x1="339.597" y1="33.1374" x2="376.377" y2="50.3659" gradientUnits="userSpaceOnUse">
<stop stop-color="#AA80F9"/>
<stop offset="0.9964" stop-color="#6165D7"/>
</linearGradient>
<linearGradient id="paint70_linear_107_796" x1="338.991" y1="34.4311" x2="375.771" y2="51.6596" gradientUnits="userSpaceOnUse">
<stop stop-color="#AA80F9"/>
<stop offset="0.9964" stop-color="#6165D7"/>
</linearGradient>
<linearGradient id="paint71_linear_107_796" x1="342.84" y1="53.2432" x2="363.733" y2="63.0297" gradientUnits="userSpaceOnUse">
<stop stop-color="#AA80F9"/>
<stop offset="0.9964" stop-color="#6165D7"/>
</linearGradient>
<linearGradient id="paint72_linear_107_796" x1="352.164" y1="20.3902" x2="378.083" y2="32.5309" gradientUnits="userSpaceOnUse">
<stop stop-color="#AA80F9"/>
<stop offset="0.9964" stop-color="#6165D7"/>
</linearGradient>
<linearGradient id="paint73_linear_107_796" x1="82.5635" y1="426.397" x2="74.3707" y2="437.945" gradientUnits="userSpaceOnUse">
<stop stop-color="#FFC444"/>
<stop offset="0.9964" stop-color="#F36F56"/>
</linearGradient>
<linearGradient id="paint74_linear_107_796" x1="256.827" y1="34.3275" x2="248.634" y2="45.8759" gradientUnits="userSpaceOnUse">
<stop stop-color="#FFC444"/>
<stop offset="0.9964" stop-color="#F36F56"/>
</linearGradient>
<linearGradient id="paint75_linear_107_796" x1="476.87" y1="182.136" x2="468.266" y2="194.265" gradientUnits="userSpaceOnUse">
<stop stop-color="#FFC444"/>
<stop offset="0.9964" stop-color="#F36F56"/>
</linearGradient>
<linearGradient id="paint76_linear_107_796" x1="263.293" y1="174.594" x2="281.729" y2="252.633" gradientUnits="userSpaceOnUse">
<stop stop-color="#444B8C"/>
<stop offset="0.9964" stop-color="#26264F"/>
</linearGradient>
<linearGradient id="paint77_linear_107_796" x1="278.439" y1="135.084" x2="286.93" y2="197.786" gradientUnits="userSpaceOnUse">
<stop stop-color="#FFC444"/>
<stop offset="0.9964" stop-color="#F36F56"/>
</linearGradient>
<linearGradient id="paint78_linear_107_796" x1="277.562" y1="135.202" x2="284.628" y2="187.385" gradientUnits="userSpaceOnUse">
<stop stop-color="#FFC444"/>
<stop offset="0.9964" stop-color="#F36F56"/>
</linearGradient>
<linearGradient id="paint79_linear_107_796" x1="214.445" y1="146.738" x2="230.786" y2="215.906" gradientUnits="userSpaceOnUse">
<stop stop-color="#444B8C"/>
<stop offset="0.9964" stop-color="#26264F"/>
</linearGradient>
<linearGradient id="paint80_linear_107_796" x1="215.737" y1="144.895" x2="231.907" y2="213.344" gradientUnits="userSpaceOnUse">
<stop stop-color="#FFC444"/>
<stop offset="0.9964" stop-color="#F36F56"/>
</linearGradient>
<linearGradient id="paint81_linear_107_796" x1="257.058" y1="200.265" x2="177.551" y2="168.044" gradientUnits="userSpaceOnUse">
<stop stop-color="#FFC444"/>
<stop offset="0.9964" stop-color="#F36F56"/>
</linearGradient>
<linearGradient id="paint82_linear_107_796" x1="192.401" y1="128.307" x2="196.77" y2="146.801" gradientUnits="userSpaceOnUse">
<stop stop-color="#AA80F9"/>
<stop offset="0.9964" stop-color="#6165D7"/>
</linearGradient>
<linearGradient id="paint83_linear_107_796" x1="172.325" y1="140.02" x2="182.311" y2="182.287" gradientUnits="userSpaceOnUse">
<stop stop-color="#FFC444"/>
<stop offset="0.9964" stop-color="#F36F56"/>
</linearGradient>
<linearGradient id="paint84_linear_107_796" x1="179.641" y1="151.952" x2="181.705" y2="160.687" gradientUnits="userSpaceOnUse">
<stop offset="0.0036" stop-color="#EBEFF2"/>
<stop offset="1" stop-color="white"/>
</linearGradient>
<linearGradient id="paint85_linear_107_796" x1="184.568" y1="164.076" x2="166.706" y2="156.837" gradientUnits="userSpaceOnUse">
<stop stop-color="#FFC444"/>
<stop offset="0.9964" stop-color="#F36F56"/>
</linearGradient>
<linearGradient id="paint86_linear_107_796" x1="370.101" y1="203.871" x2="306.377" y2="244.602" gradientUnits="userSpaceOnUse">
<stop stop-color="#444B8C"/>
<stop offset="0.9964" stop-color="#26264F"/>
</linearGradient>
<linearGradient id="paint87_linear_107_796" x1="370.353" y1="201.584" x2="307.235" y2="241.928" gradientUnits="userSpaceOnUse">
<stop stop-color="#FFC444"/>
<stop offset="0.9964" stop-color="#F36F56"/>
</linearGradient>
<linearGradient id="paint88_linear_107_796" x1="299.785" y1="213.257" x2="381.341" y2="246.309" gradientUnits="userSpaceOnUse">
<stop stop-color="#FFC444"/>
<stop offset="0.9964" stop-color="#F36F56"/>
</linearGradient>
<linearGradient id="paint89_linear_107_796" x1="398.063" y1="205.017" x2="382.393" y2="215.033" gradientUnits="userSpaceOnUse">
<stop stop-color="#AA80F9"/>
<stop offset="0.9964" stop-color="#6165D7"/>
</linearGradient>
<linearGradient id="paint90_linear_107_796" x1="405.011" y1="228.411" x2="369.349" y2="251.205" gradientUnits="userSpaceOnUse">
<stop stop-color="#FFC444"/>
<stop offset="0.9964" stop-color="#F36F56"/>
</linearGradient>
<linearGradient id="paint91_linear_107_796" x1="392.072" y1="231.043" x2="383.67" y2="236.412" gradientUnits="userSpaceOnUse">
<stop offset="0.0036" stop-color="#EBEFF2"/>
<stop offset="1" stop-color="white"/>
</linearGradient>
<linearGradient id="paint92_linear_107_796" x1="378.229" y1="236.151" x2="399.514" y2="244.777" gradientUnits="userSpaceOnUse">
<stop stop-color="#FFC444"/>
<stop offset="0.9964" stop-color="#F36F56"/>
</linearGradient>
<linearGradient id="paint93_linear_107_796" x1="321.376" y1="-28.1726" x2="282.032" y2="194.937" gradientUnits="userSpaceOnUse">
<stop offset="0.0036" stop-color="#EBEFF2"/>
<stop offset="1" stop-color="white"/>
</linearGradient>
<linearGradient id="paint94_linear_107_796" x1="319.781" y1="-18.7146" x2="282.173" y2="194.548" gradientUnits="userSpaceOnUse">
<stop stop-color="#444B8C"/>
<stop offset="0.9964" stop-color="#26264F"/>
</linearGradient>
<linearGradient id="paint95_linear_107_796" x1="265.617" y1="172.586" x2="283.864" y2="249.82" gradientUnits="userSpaceOnUse">
<stop stop-color="#FFC444"/>
<stop offset="0.9964" stop-color="#F36F56"/>
</linearGradient>
<linearGradient id="paint96_linear_107_796" x1="279.581" y1="12.6516" x2="241.956" y2="226.005" gradientUnits="userSpaceOnUse">
<stop stop-color="#FFC444"/>
<stop offset="0.9964" stop-color="#F36F56"/>
</linearGradient>
<linearGradient id="paint97_linear_107_796" x1="232.614" y1="244.081" x2="228.806" y2="265.675" gradientUnits="userSpaceOnUse">
<stop stop-color="#FFC444"/>
<stop offset="0.9964" stop-color="#F36F56"/>
</linearGradient>
<linearGradient id="paint98_linear_107_796" x1="252.604" y1="156.125" x2="215.31" y2="367.606" gradientUnits="userSpaceOnUse">
<stop stop-color="#FFC444"/>
<stop offset="0.9964" stop-color="#F36F56"/>
</linearGradient>
<linearGradient id="paint99_linear_107_796" x1="220.171" y1="250.637" x2="239.246" y2="257.836" gradientUnits="userSpaceOnUse">
<stop stop-color="#AA80F9"/>
<stop offset="0.9964" stop-color="#6165D7"/>
</linearGradient>
<linearGradient id="paint100_linear_107_796" x1="231.229" y1="254.176" x2="220.665" y2="267.194" gradientUnits="userSpaceOnUse">
<stop stop-color="#AA80F9"/>
<stop offset="0.9964" stop-color="#6165D7"/>
</linearGradient>
<linearGradient id="paint101_linear_107_796" x1="230.547" y1="255.007" x2="222.518" y2="264.9" gradientUnits="userSpaceOnUse">
<stop stop-color="#444B8C"/>
<stop offset="0.9964" stop-color="#26264F"/>
</linearGradient>
<linearGradient id="paint102_linear_107_796" x1="327.627" y1="24.4824" x2="288.949" y2="243.809" gradientUnits="userSpaceOnUse">
<stop stop-color="#FFC444"/>
<stop offset="0.9964" stop-color="#F36F56"/>
</linearGradient>
<linearGradient id="paint103_linear_107_796" x1="282.169" y1="262.916" x2="278.265" y2="285.055" gradientUnits="userSpaceOnUse">
<stop stop-color="#FFC444"/>
<stop offset="0.9964" stop-color="#F36F56"/>
</linearGradient>
<linearGradient id="paint104_linear_107_796" x1="299.058" y1="171.816" x2="260.712" y2="389.264" gradientUnits="userSpaceOnUse">
<stop stop-color="#FFC444"/>
<stop offset="0.9964" stop-color="#F36F56"/>
</linearGradient>
<linearGradient id="paint105_linear_107_796" x1="270.304" y1="269.902" x2="289.589" y2="277.18" gradientUnits="userSpaceOnUse">
<stop stop-color="#AA80F9"/>
<stop offset="0.9964" stop-color="#6165D7"/>
</linearGradient>
<linearGradient id="paint106_linear_107_796" x1="281.505" y1="273.569" x2="271.044" y2="286.46" gradientUnits="userSpaceOnUse">
<stop stop-color="#AA80F9"/>
<stop offset="0.9964" stop-color="#6165D7"/>
</linearGradient>
<linearGradient id="paint107_linear_107_796" x1="280.828" y1="274.391" x2="272.878" y2="284.188" gradientUnits="userSpaceOnUse">
<stop stop-color="#444B8C"/>
<stop offset="0.9964" stop-color="#26264F"/>
</linearGradient>
<linearGradient id="paint108_linear_107_796" x1="281.586" y1="176.16" x2="288.114" y2="203.792" gradientUnits="userSpaceOnUse">
<stop offset="0.0036" stop-color="#EBEFF2"/>
<stop offset="1" stop-color="white"/>
</linearGradient>
<linearGradient id="paint109_linear_107_796" x1="260.66" y1="295.782" x2="274.44" y2="304.735" gradientUnits="userSpaceOnUse">
<stop stop-color="#FF9085"/>
<stop offset="1" stop-color="#FB6FBB"/>
</linearGradient>
<linearGradient id="paint110_linear_107_796" x1="210.081" y1="276.2" x2="223.861" y2="285.153" gradientUnits="userSpaceOnUse">
<stop stop-color="#FF9085"/>
<stop offset="1" stop-color="#FB6FBB"/>
</linearGradient>
<linearGradient id="paint111_linear_107_796" x1="477.117" y1="533.097" x2="335.887" y2="533.097" gradientUnits="userSpaceOnUse">
<stop stop-color="#444B8C"/>
<stop offset="0.9964" stop-color="#26264F"/>
</linearGradient>
<linearGradient id="paint112_linear_107_796" x1="454.926" y1="602.774" x2="385.596" y2="385.538" gradientUnits="userSpaceOnUse">
<stop stop-color="#FF9085"/>
<stop offset="1" stop-color="#FB6FBB"/>
</linearGradient>
<linearGradient id="paint113_linear_107_796" x1="457.515" y1="601.948" x2="388.185" y2="384.712" gradientUnits="userSpaceOnUse">
<stop stop-color="#FF9085"/>
<stop offset="1" stop-color="#FB6FBB"/>
</linearGradient>
<linearGradient id="paint114_linear_107_796" x1="529.86" y1="578.86" x2="460.529" y2="361.624" gradientUnits="userSpaceOnUse">
<stop stop-color="#FF9085"/>
<stop offset="1" stop-color="#FB6FBB"/>
</linearGradient>
<linearGradient id="paint115_linear_107_796" x1="478.665" y1="524.258" x2="435.402" y2="524.258" gradientUnits="userSpaceOnUse">
<stop stop-color="#FFC444"/>
<stop offset="0.9964" stop-color="#F36F56"/>
</linearGradient>
<linearGradient id="paint116_linear_107_796" x1="415.967" y1="342.75" x2="369.745" y2="342.75" gradientUnits="userSpaceOnUse">
<stop stop-color="#FFC444"/>
<stop offset="0.9964" stop-color="#F36F56"/>
</linearGradient>
<linearGradient id="paint117_linear_107_796" x1="347.964" y1="310.077" x2="352.114" y2="319.604" gradientUnits="userSpaceOnUse">
<stop stop-color="#AA80F9"/>
<stop offset="0.9964" stop-color="#6165D7"/>
</linearGradient>
<linearGradient id="paint118_linear_107_796" x1="355.913" y1="325.45" x2="349.323" y2="299.868" gradientUnits="userSpaceOnUse">
<stop stop-color="#AA80F9"/>
<stop offset="0.9964" stop-color="#6165D7"/>
</linearGradient>
<linearGradient id="paint119_linear_107_796" x1="349.598" y1="314.166" x2="347.92" y2="312.576" gradientUnits="userSpaceOnUse">
<stop stop-color="#444B8C"/>
<stop offset="0.9964" stop-color="#3E4177"/>
</linearGradient>
<linearGradient id="paint120_linear_107_796" x1="349.115" y1="307.571" x2="353.576" y2="315.731" gradientUnits="userSpaceOnUse">
<stop stop-color="#AA80F9"/>
<stop offset="0.9964" stop-color="#6165D7"/>
</linearGradient>
<linearGradient id="paint121_linear_107_796" x1="359.06" y1="319.955" x2="351.918" y2="318.503" gradientUnits="userSpaceOnUse">
<stop offset="0.0036" stop-color="#6165D7"/>
<stop offset="1" stop-color="#AA80F9"/>
</linearGradient>
<linearGradient id="paint122_linear_107_796" x1="371.517" y1="321.79" x2="366.094" y2="407.815" gradientUnits="userSpaceOnUse">
<stop stop-color="#FFC444"/>
<stop offset="0.9964" stop-color="#F36F56"/>
</linearGradient>
<linearGradient id="paint123_linear_107_796" x1="370.241" y1="309.5" x2="377.181" y2="295.235" gradientUnits="userSpaceOnUse">
<stop stop-color="#AA80F9"/>
<stop offset="0.9964" stop-color="#6165D7"/>
</linearGradient>
<linearGradient id="paint124_linear_107_796" x1="371.067" y1="288.432" x2="372.057" y2="297.517" gradientUnits="userSpaceOnUse">
<stop stop-color="#AA80F9"/>
<stop offset="0.9964" stop-color="#6165D7"/>
</linearGradient>
<linearGradient id="paint125_linear_107_796" x1="371.063" y1="288.389" x2="372.056" y2="297.497" gradientUnits="userSpaceOnUse">
<stop stop-color="#AA80F9"/>
<stop offset="0.9964" stop-color="#6165D7"/>
</linearGradient>
<linearGradient id="paint126_linear_107_796" x1="390.572" y1="326.137" x2="377.293" y2="323.436" gradientUnits="userSpaceOnUse">
<stop stop-color="#AA80F9"/>
<stop offset="0.9964" stop-color="#6165D7"/>
</linearGradient>
<linearGradient id="paint127_linear_107_796" x1="388.81" y1="328.233" x2="398.207" y2="336.602" gradientUnits="userSpaceOnUse">
<stop stop-color="#AA80F9"/>
<stop offset="0.9964" stop-color="#6165D7"/>
</linearGradient>
<linearGradient id="paint128_linear_107_796" x1="396.864" y1="327.416" x2="382.265" y2="324.447" gradientUnits="userSpaceOnUse">
<stop stop-color="#AA80F9"/>
<stop offset="0.9964" stop-color="#6165D7"/>
</linearGradient>
<linearGradient id="paint129_linear_107_796" x1="396.903" y1="327.229" x2="388.124" y2="325.443" gradientUnits="userSpaceOnUse">
<stop stop-color="#AA80F9"/>
<stop offset="0.9964" stop-color="#6165D7"/>
</linearGradient>
<linearGradient id="paint130_linear_107_796" x1="235.096" y1="451.801" x2="433.696" y2="451.801" gradientUnits="userSpaceOnUse">
<stop stop-color="#444B8C"/>
<stop offset="0.9964" stop-color="#26264F"/>
</linearGradient>
<linearGradient id="paint131_linear_107_796" x1="371.891" y1="392.492" x2="269.333" y2="548.339" gradientUnits="userSpaceOnUse">
<stop stop-color="#444B8C"/>
<stop offset="0.9964" stop-color="#26264F"/>
</linearGradient>
<linearGradient id="paint132_linear_107_796" x1="236.743" y1="497.801" x2="429.922" y2="497.801" gradientUnits="userSpaceOnUse">
<stop stop-color="#444B8C"/>
<stop offset="0.9964" stop-color="#26264F"/>
</linearGradient>
<linearGradient id="paint133_linear_107_796" x1="319.295" y1="541.72" x2="377.574" y2="541.72" gradientUnits="userSpaceOnUse">
<stop stop-color="#444B8C"/>
<stop offset="0.9964" stop-color="#26264F"/>
</linearGradient>
<linearGradient id="paint134_linear_107_796" x1="368.075" y1="523.862" x2="315.288" y2="555.534" gradientUnits="userSpaceOnUse">
<stop stop-color="#444B8C"/>
<stop offset="0.9964" stop-color="#26264F"/>
</linearGradient>
<linearGradient id="paint135_linear_107_796" x1="286.24" y1="500.939" x2="343.79" y2="500.939" gradientUnits="userSpaceOnUse">
<stop stop-color="#444B8C"/>
<stop offset="0.9964" stop-color="#26264F"/>
</linearGradient>
<linearGradient id="paint136_linear_107_796" x1="332.231" y1="459.169" x2="294.023" y2="620.044" gradientUnits="userSpaceOnUse">
<stop stop-color="#444B8C"/>
<stop offset="0.9964" stop-color="#26264F"/>
</linearGradient>
</defs>
</svg>
